<svg width="247" height="51" viewBox="0 0 247 51" fill="none" xmlns="http://www.w3.org/2000/svg">
<path d="M5.58972 18L0.537719 0.719999H3.57372L7.01772 13.2L10.4497 0.743999L13.4857 0.719999L16.9297 13.2L20.3617 0.719999H23.3977L18.3577 18H15.5017L11.9617 5.712L8.44572 18H5.58972ZM28.8181 18.36C27.5061 18.36 26.3541 18.076 25.3621 17.508C24.3701 16.94 23.5941 16.152 23.0341 15.144C22.4821 14.136 22.2061 12.976 22.2061 11.664C22.2061 10.248 22.4781 9.02 23.0221 7.98C23.5661 6.932 24.3221 6.12 25.2901 5.544C26.2581 4.968 27.3781 4.68 28.6501 4.68C29.9941 4.68 31.1341 4.996 32.0701 5.628C33.0141 6.252 33.7141 7.136 34.1701 8.28C34.6261 9.424 34.7981 10.772 34.6861 12.324H31.8181V11.268C31.8101 9.86 31.5621 8.832 31.0741 8.184C30.5861 7.536 29.8181 7.212 28.7701 7.212C27.5861 7.212 26.7061 7.58 26.1301 8.316C25.5541 9.044 25.2661 10.112 25.2661 11.52C25.2661 12.832 25.5541 13.848 26.1301 14.568C26.7061 15.288 27.5461 15.648 28.6501 15.648C29.3621 15.648 29.9741 15.492 30.4861 15.18C31.0061 14.86 31.4061 14.4 31.6861 13.8L34.5421 14.664C34.0461 15.832 33.2781 16.74 32.2381 17.388C31.2061 18.036 30.0661 18.36 28.8181 18.36ZM24.3541 12.324V10.14H33.2701V12.324H24.3541ZM43.7923 18.36C42.8563 18.36 42.0643 18.184 41.4163 17.832C40.7683 17.472 40.2763 16.996 39.9403 16.404C39.6123 15.812 39.4483 15.16 39.4483 14.448C39.4483 13.824 39.5523 13.264 39.7603 12.768C39.9683 12.264 40.2883 11.832 40.7203 11.472C41.1523 11.104 41.7123 10.804 42.4003 10.572C42.9203 10.404 43.5283 10.252 44.2243 10.116C44.9283 9.98 45.6883 9.856 46.5043 9.744C47.3283 9.624 48.1883 9.496 49.0843 9.36L48.0523 9.948C48.0603 9.052 47.8603 8.392 47.4523 7.968C47.0443 7.544 46.3563 7.332 45.3883 7.332C44.8043 7.332 44.2403 7.468 43.6963 7.74C43.1523 8.012 42.7723 8.48 42.5563 9.144L39.9163 8.316C40.2363 7.22 40.8443 6.34 41.7403 5.676C42.6443 5.012 43.8603 4.68 45.3883 4.68C46.5403 4.68 47.5523 4.868 48.4243 5.244C49.3043 5.62 49.9563 6.236 50.3803 7.092C50.6123 7.548 50.7523 8.016 50.8003 8.496C50.8483 8.968 50.8723 9.484 50.8723 10.044V18H48.3403V15.192L48.7603 15.648C48.1763 16.584 47.4923 17.272 46.7083 17.712C45.9323 18.144 44.9603 18.36 43.7923 18.36ZM44.3683 16.056C45.0243 16.056 45.5843 15.94 46.0483 15.708C46.5123 15.476 46.8803 15.192 47.1523 14.856C47.4323 14.52 47.6203 14.204 47.7163 13.908C47.8683 13.54 47.9523 13.12 47.9683 12.648C47.9923 12.168 48.0043 11.78 48.0043 11.484L48.8923 11.748C48.0203 11.884 47.2723 12.004 46.6483 12.108C46.0243 12.212 45.4883 12.312 45.0403 12.408C44.5923 12.496 44.1963 12.596 43.8523 12.708C43.5163 12.828 43.2323 12.968 43.0003 13.128C42.7683 13.288 42.5883 13.472 42.4603 13.68C42.3403 13.888 42.2803 14.132 42.2803 14.412C42.2803 14.732 42.3603 15.016 42.5203 15.264C42.6803 15.504 42.9123 15.696 43.2163 15.84C43.5283 15.984 43.9123 16.056 44.3683 16.056ZM52.9964 18V5.04H55.5524V8.196L55.2404 7.788C55.4004 7.356 55.6124 6.964 55.8764 6.612C56.1484 6.252 56.4724 5.956 56.8484 5.724C57.1684 5.508 57.5204 5.34 57.9044 5.22C58.2964 5.092 58.6964 5.016 59.1044 4.992C59.5124 4.96 59.9084 4.976 60.2924 5.04V7.74C59.9084 7.628 59.4644 7.592 58.9604 7.632C58.4644 7.672 58.0164 7.812 57.6164 8.052C57.2164 8.268 56.8884 8.544 56.6324 8.88C56.3844 9.216 56.2004 9.6 56.0804 10.032C55.9604 10.456 55.9004 10.916 55.9004 11.412V18H52.9964ZM67.24 18.36C65.928 18.36 64.776 18.076 63.784 17.508C62.792 16.94 62.016 16.152 61.456 15.144C60.904 14.136 60.628 12.976 60.628 11.664C60.628 10.248 60.9 9.02 61.444 7.98C61.988 6.932 62.744 6.12 63.712 5.544C64.68 4.968 65.8 4.68 67.072 4.68C68.416 4.68 69.556 4.996 70.492 5.628C71.436 6.252 72.136 7.136 72.592 8.28C73.048 9.424 73.22 10.772 73.108 12.324H70.24V11.268C70.232 9.86 69.984 8.832 69.496 8.184C69.008 7.536 68.24 7.212 67.192 7.212C66.008 7.212 65.128 7.58 64.552 8.316C63.976 9.044 63.688 10.112 63.688 11.52C63.688 12.832 63.976 13.848 64.552 14.568C65.128 15.288 65.968 15.648 67.072 15.648C67.784 15.648 68.396 15.492 68.908 15.18C69.428 14.86 69.828 14.4 70.108 13.8L72.964 14.664C72.468 15.832 71.7 16.74 70.66 17.388C69.628 18.036 68.488 18.36 67.24 18.36ZM62.776 12.324V10.14H71.692V12.324H62.776ZM87.5542 18V11.76C87.5542 11.352 87.5262 10.9 87.4702 10.404C87.4142 9.908 87.2822 9.432 87.0742 8.976C86.8742 8.512 86.5702 8.132 86.1622 7.836C85.7622 7.54 85.2182 7.392 84.5302 7.392C84.1622 7.392 83.7982 7.452 83.4382 7.572C83.0782 7.692 82.7502 7.9 82.4542 8.196C82.1662 8.484 81.9342 8.884 81.7582 9.396C81.5822 9.9 81.4942 10.548 81.4942 11.34L79.7782 10.608C79.7782 9.504 79.9902 8.504 80.4142 7.608C80.8462 6.712 81.4782 6 82.3102 5.472C83.1422 4.936 84.1662 4.668 85.3822 4.668C86.3422 4.668 87.1342 4.828 87.7582 5.148C88.3822 5.468 88.8782 5.876 89.2462 6.372C89.6142 6.868 89.8862 7.396 90.0622 7.956C90.2382 8.516 90.3502 9.048 90.3982 9.552C90.4542 10.048 90.4822 10.452 90.4822 10.764V18H87.5542ZM78.5662 18V0.719999H81.1462V9.816H81.4942V18H78.5662ZM98.5056 18.36C97.1936 18.36 96.0416 18.076 95.0496 17.508C94.0576 16.94 93.2816 16.152 92.7216 15.144C92.1696 14.136 91.8936 12.976 91.8936 11.664C91.8936 10.248 92.1656 9.02 92.7096 7.98C93.2536 6.932 94.0096 6.12 94.9776 5.544C95.9456 4.968 97.0656 4.68 98.3376 4.68C99.6816 4.68 100.822 4.996 101.758 5.628C102.702 6.252 103.402 7.136 103.858 8.28C104.314 9.424 104.486 10.772 104.374 12.324H101.506V11.268C101.498 9.86 101.25 8.832 100.762 8.184C100.274 7.536 99.5056 7.212 98.4576 7.212C97.2736 7.212 96.3936 7.58 95.8176 8.316C95.2416 9.044 94.9536 10.112 94.9536 11.52C94.9536 12.832 95.2416 13.848 95.8176 14.568C96.3936 15.288 97.2336 15.648 98.3376 15.648C99.0496 15.648 99.6616 15.492 100.174 15.18C100.694 14.86 101.094 14.4 101.374 13.8L104.23 14.664C103.734 15.832 102.966 16.74 101.926 17.388C100.894 18.036 99.7536 18.36 98.5056 18.36ZM94.0416 12.324V10.14H102.958V12.324H94.0416ZM106.051 18V5.04H108.607V8.196L108.295 7.788C108.455 7.356 108.667 6.964 108.931 6.612C109.203 6.252 109.527 5.956 109.903 5.724C110.223 5.508 110.575 5.34 110.959 5.22C111.351 5.092 111.751 5.016 112.159 4.992C112.567 4.96 112.963 4.976 113.347 5.04V7.74C112.963 7.628 112.519 7.592 112.015 7.632C111.519 7.672 111.071 7.812 110.671 8.052C110.271 8.268 109.943 8.544 109.687 8.88C109.439 9.216 109.255 9.6 109.135 10.032C109.015 10.456 108.955 10.916 108.955 11.412V18H106.051ZM120.295 18.36C118.983 18.36 117.831 18.076 116.839 17.508C115.847 16.94 115.071 16.152 114.511 15.144C113.959 14.136 113.683 12.976 113.683 11.664C113.683 10.248 113.955 9.02 114.499 7.98C115.043 6.932 115.799 6.12 116.767 5.544C117.735 4.968 118.855 4.68 120.127 4.68C121.471 4.68 122.611 4.996 123.547 5.628C124.491 6.252 125.191 7.136 125.647 8.28C126.103 9.424 126.275 10.772 126.163 12.324H123.295V11.268C123.287 9.86 123.039 8.832 122.551 8.184C122.063 7.536 121.295 7.212 120.247 7.212C119.063 7.212 118.183 7.58 117.607 8.316C117.031 9.044 116.743 10.112 116.743 11.52C116.743 12.832 117.031 13.848 117.607 14.568C118.183 15.288 119.023 15.648 120.127 15.648C120.839 15.648 121.451 15.492 121.963 15.18C122.483 14.86 122.883 14.4 123.163 13.8L126.019 14.664C125.523 15.832 124.755 16.74 123.715 17.388C122.683 18.036 121.543 18.36 120.295 18.36ZM115.831 12.324V10.14H124.747V12.324H115.831ZM139.241 18C138.385 18.16 137.545 18.228 136.721 18.204C135.905 18.188 135.173 18.04 134.525 17.76C133.877 17.472 133.385 17.02 133.049 16.404C132.753 15.844 132.597 15.272 132.581 14.688C132.565 14.104 132.557 13.444 132.557 12.708V1.44H135.437V12.54C135.437 13.06 135.441 13.516 135.449 13.908C135.465 14.3 135.549 14.62 135.701 14.868C135.989 15.348 136.449 15.616 137.081 15.672C137.713 15.728 138.433 15.696 139.241 15.576V18ZM130.205 7.308V5.04H139.241V7.308H130.205ZM146.095 18.36C144.799 18.36 143.667 18.068 142.699 17.484C141.731 16.9 140.979 16.096 140.443 15.072C139.915 14.04 139.651 12.856 139.651 11.52C139.651 10.16 139.923 8.968 140.467 7.944C141.011 6.92 141.767 6.12 142.735 5.544C143.703 4.968 144.823 4.68 146.095 4.68C147.399 4.68 148.535 4.972 149.503 5.556C150.471 6.14 151.223 6.948 151.759 7.98C152.295 9.004 152.563 10.184 152.563 11.52C152.563 12.864 152.291 14.052 151.747 15.084C151.211 16.108 150.459 16.912 149.491 17.496C148.523 18.072 147.391 18.36 146.095 18.36ZM146.095 15.648C147.247 15.648 148.103 15.264 148.663 14.496C149.223 13.728 149.503 12.736 149.503 11.52C149.503 10.264 149.219 9.264 148.651 8.52C148.083 7.768 147.231 7.392 146.095 7.392C145.319 7.392 144.679 7.568 144.175 7.92C143.679 8.264 143.311 8.748 143.071 9.372C142.831 9.988 142.711 10.704 142.711 11.52C142.711 12.776 142.995 13.78 143.563 14.532C144.139 15.276 144.983 15.648 146.095 15.648ZM166.976 18V11.76C166.976 11.352 166.948 10.9 166.892 10.404C166.836 9.908 166.704 9.432 166.496 8.976C166.296 8.512 165.992 8.132 165.584 7.836C165.184 7.54 164.64 7.392 163.952 7.392C163.584 7.392 163.22 7.452 162.86 7.572C162.5 7.692 162.172 7.9 161.876 8.196C161.588 8.484 161.356 8.884 161.18 9.396C161.004 9.9 160.916 10.548 160.916 11.34L159.2 10.608C159.2 9.504 159.412 8.504 159.836 7.608C160.268 6.712 160.9 6 161.732 5.472C162.564 4.936 163.588 4.668 164.804 4.668C165.764 4.668 166.556 4.828 167.18 5.148C167.804 5.468 168.3 5.876 168.668 6.372C169.036 6.868 169.308 7.396 169.484 7.956C169.66 8.516 169.772 9.048 169.82 9.552C169.876 10.048 169.904 10.452 169.904 10.764V18H166.976ZM157.988 18V0.719999H160.568V9.816H160.916V18H157.988ZM177.927 18.36C176.615 18.36 175.463 18.076 174.471 17.508C173.479 16.94 172.703 16.152 172.143 15.144C171.591 14.136 171.315 12.976 171.315 11.664C171.315 10.248 171.587 9.02 172.131 7.98C172.675 6.932 173.431 6.12 174.399 5.544C175.367 4.968 176.487 4.68 177.759 4.68C179.103 4.68 180.243 4.996 181.179 5.628C182.123 6.252 182.823 7.136 183.279 8.28C183.735 9.424 183.907 10.772 183.795 12.324H180.927V11.268C180.919 9.86 180.671 8.832 180.183 8.184C179.695 7.536 178.927 7.212 177.879 7.212C176.695 7.212 175.815 7.58 175.239 8.316C174.663 9.044 174.375 10.112 174.375 11.52C174.375 12.832 174.663 13.848 175.239 14.568C175.815 15.288 176.655 15.648 177.759 15.648C178.471 15.648 179.083 15.492 179.595 15.18C180.115 14.86 180.515 14.4 180.795 13.8L183.651 14.664C183.155 15.832 182.387 16.74 181.347 17.388C180.315 18.036 179.175 18.36 177.927 18.36ZM173.463 12.324V10.14H182.379V12.324H173.463ZM185.713 18V0.36H188.605V18H185.713ZM197.428 18.36C196.164 18.36 195.104 18.06 194.248 17.46C193.392 16.86 192.748 16.044 192.316 15.012C191.884 13.972 191.668 12.808 191.668 11.52C191.668 10.216 191.884 9.048 192.316 8.016C192.748 6.984 193.38 6.172 194.212 5.58C195.052 4.98 196.088 4.68 197.32 4.68C198.544 4.68 199.604 4.98 200.5 5.58C201.404 6.172 202.104 6.984 202.6 8.016C203.096 9.04 203.344 10.208 203.344 11.52C203.344 12.816 203.1 13.98 202.612 15.012C202.124 16.044 201.436 16.86 200.548 17.46C199.66 18.06 198.62 18.36 197.428 18.36ZM191.176 23.76V5.04H193.732V14.136H194.092V23.76H191.176ZM196.984 15.768C197.736 15.768 198.356 15.58 198.844 15.204C199.332 14.828 199.692 14.32 199.924 13.68C200.164 13.032 200.284 12.312 200.284 11.52C200.284 10.736 200.164 10.024 199.924 9.384C199.684 8.736 199.312 8.224 198.808 7.848C198.304 7.464 197.664 7.272 196.888 7.272C196.152 7.272 195.552 7.452 195.088 7.812C194.624 8.164 194.28 8.66 194.056 9.3C193.84 9.932 193.732 10.672 193.732 11.52C193.732 12.36 193.84 13.1 194.056 13.74C194.28 14.38 194.628 14.88 195.1 15.24C195.58 15.592 196.208 15.768 196.984 15.768ZM210.497 23.76L212.993 16.908L213.041 18.924L207.389 5.04H210.401L214.409 15.312H213.641L217.541 5.04H220.433L213.209 23.76H210.497ZM226.478 18.36C225.182 18.36 224.05 18.068 223.082 17.484C222.114 16.9 221.362 16.096 220.826 15.072C220.298 14.04 220.034 12.856 220.034 11.52C220.034 10.16 220.306 8.968 220.85 7.944C221.394 6.92 222.15 6.12 223.118 5.544C224.086 4.968 225.206 4.68 226.478 4.68C227.782 4.68 228.918 4.972 229.886 5.556C230.854 6.14 231.606 6.948 232.142 7.98C232.678 9.004 232.946 10.184 232.946 11.52C232.946 12.864 232.674 14.052 232.13 15.084C231.594 16.108 230.842 16.912 229.874 17.496C228.906 18.072 227.774 18.36 226.478 18.36ZM226.478 15.648C227.63 15.648 228.486 15.264 229.046 14.496C229.606 13.728 229.886 12.736 229.886 11.52C229.886 10.264 229.602 9.264 229.034 8.52C228.466 7.768 227.614 7.392 226.478 7.392C225.702 7.392 225.062 7.568 224.558 7.92C224.062 8.264 223.694 8.748 223.454 9.372C223.214 9.988 223.094 10.704 223.094 11.52C223.094 12.776 223.378 13.78 223.946 14.532C224.522 15.276 225.366 15.648 226.478 15.648ZM239.45 18.372C238.49 18.372 237.698 18.212 237.074 17.892C236.45 17.572 235.954 17.164 235.586 16.668C235.218 16.172 234.946 15.644 234.77 15.084C234.594 14.524 234.478 13.996 234.422 13.5C234.374 12.996 234.35 12.588 234.35 12.276V5.04H237.278V11.28C237.278 11.68 237.306 12.132 237.362 12.636C237.418 13.132 237.546 13.612 237.746 14.076C237.954 14.532 238.258 14.908 238.658 15.204C239.066 15.5 239.614 15.648 240.302 15.648C240.67 15.648 241.034 15.588 241.394 15.468C241.754 15.348 242.078 15.144 242.366 14.856C242.662 14.56 242.898 14.156 243.074 13.644C243.25 13.132 243.338 12.484 243.338 11.7L245.054 12.432C245.054 13.536 244.838 14.536 244.406 15.432C243.982 16.328 243.354 17.044 242.522 17.58C241.69 18.108 240.666 18.372 239.45 18.372ZM243.686 18V13.98H243.338V5.04H246.242V18H243.686ZM72.6244 50V36.836C72.6244 36.508 72.6364 36.148 72.6604 35.756C72.6844 35.356 72.7524 34.96 72.8644 34.568C72.9764 34.176 73.1804 33.82 73.4764 33.5C73.8444 33.092 74.2404 32.812 74.6644 32.66C75.0964 32.5 75.5204 32.412 75.9364 32.396C76.3524 32.372 76.7164 32.36 77.0284 32.36H78.6484V34.712H77.1484C76.5964 34.712 76.1844 34.852 75.9124 35.132C75.6484 35.404 75.5164 35.764 75.5164 36.212V50H72.6244ZM70.5364 39.308V37.04H78.6484V39.308H70.5364ZM84.99 50.36C83.678 50.36 82.526 50.076 81.534 49.508C80.542 48.94 79.766 48.152 79.206 47.144C78.654 46.136 78.378 44.976 78.378 43.664C78.378 42.248 78.65 41.02 79.194 39.98C79.738 38.932 80.494 38.12 81.462 37.544C82.43 36.968 83.55 36.68 84.822 36.68C86.166 36.68 87.306 36.996 88.242 37.628C89.186 38.252 89.886 39.136 90.342 40.28C90.798 41.424 90.97 42.772 90.858 44.324H87.99V43.268C87.982 41.86 87.734 40.832 87.246 40.184C86.758 39.536 85.99 39.212 84.942 39.212C83.758 39.212 82.878 39.58 82.302 40.316C81.726 41.044 81.438 42.112 81.438 43.52C81.438 44.832 81.726 45.848 82.302 46.568C82.878 47.288 83.718 47.648 84.822 47.648C85.534 47.648 86.146 47.492 86.658 47.18C87.178 46.86 87.578 46.4 87.858 45.8L90.714 46.664C90.218 47.832 89.45 48.74 88.41 49.388C87.378 50.036 86.238 50.36 84.99 50.36ZM80.526 44.324V42.14H89.442V44.324H80.526ZM98.4275 50.36C97.1155 50.36 95.9635 50.076 94.9715 49.508C93.9795 48.94 93.2035 48.152 92.6435 47.144C92.0915 46.136 91.8155 44.976 91.8155 43.664C91.8155 42.248 92.0875 41.02 92.6315 39.98C93.1755 38.932 93.9315 38.12 94.8995 37.544C95.8675 36.968 96.9875 36.68 98.2595 36.68C99.6035 36.68 100.743 36.996 101.679 37.628C102.623 38.252 103.323 39.136 103.779 40.28C104.235 41.424 104.407 42.772 104.295 44.324H101.427V43.268C101.419 41.86 101.171 40.832 100.683 40.184C100.195 39.536 99.4275 39.212 98.3795 39.212C97.1955 39.212 96.3155 39.58 95.7395 40.316C95.1635 41.044 94.8755 42.112 94.8755 43.52C94.8755 44.832 95.1635 45.848 95.7395 46.568C96.3155 47.288 97.1555 47.648 98.2595 47.648C98.9715 47.648 99.5835 47.492 100.095 47.18C100.615 46.86 101.015 46.4 101.295 45.8L104.151 46.664C103.655 47.832 102.887 48.74 101.847 49.388C100.815 50.036 99.6755 50.36 98.4275 50.36ZM93.9635 44.324V42.14H102.879V44.324H93.9635ZM106.213 50V32.36H109.105V50H106.213Z" fill="#232020"/>
<path d="M121.732 50.36C120.468 50.36 119.408 50.06 118.552 49.46C117.696 48.86 117.052 48.044 116.62 47.012C116.188 45.972 115.972 44.808 115.972 43.52C115.972 42.216 116.188 41.048 116.62 40.016C117.052 38.984 117.684 38.172 118.516 37.58C119.356 36.98 120.392 36.68 121.624 36.68C122.848 36.68 123.908 36.98 124.804 37.58C125.708 38.172 126.408 38.984 126.904 40.016C127.4 41.04 127.648 42.208 127.648 43.52C127.648 44.816 127.404 45.98 126.916 47.012C126.428 48.044 125.74 48.86 124.852 49.46C123.964 50.06 122.924 50.36 121.732 50.36ZM115.48 50V32.72H118.396V40.904H118.036V50H115.48ZM121.288 47.768C122.04 47.768 122.66 47.58 123.148 47.204C123.636 46.828 123.996 46.32 124.228 45.68C124.468 45.032 124.588 44.312 124.588 43.52C124.588 42.736 124.468 42.024 124.228 41.384C123.988 40.736 123.616 40.224 123.112 39.848C122.608 39.464 121.968 39.272 121.192 39.272C120.456 39.272 119.856 39.452 119.392 39.812C118.928 40.164 118.584 40.66 118.36 41.3C118.144 41.932 118.036 42.672 118.036 43.52C118.036 44.36 118.144 45.1 118.36 45.74C118.584 46.38 118.932 46.88 119.404 47.24C119.884 47.592 120.512 47.768 121.288 47.768ZM135.185 50.36C133.873 50.36 132.721 50.076 131.729 49.508C130.737 48.94 129.961 48.152 129.401 47.144C128.849 46.136 128.573 44.976 128.573 43.664C128.573 42.248 128.845 41.02 129.389 39.98C129.933 38.932 130.689 38.12 131.657 37.544C132.625 36.968 133.745 36.68 135.017 36.68C136.361 36.68 137.501 36.996 138.437 37.628C139.381 38.252 140.081 39.136 140.537 40.28C140.993 41.424 141.165 42.772 141.053 44.324H138.185V43.268C138.177 41.86 137.929 40.832 137.441 40.184C136.953 39.536 136.185 39.212 135.137 39.212C133.953 39.212 133.073 39.58 132.497 40.316C131.921 41.044 131.633 42.112 131.633 43.52C131.633 44.832 131.921 45.848 132.497 46.568C133.073 47.288 133.913 47.648 135.017 47.648C135.729 47.648 136.341 47.492 136.853 47.18C137.373 46.86 137.773 46.4 138.053 45.8L140.909 46.664C140.413 47.832 139.645 48.74 138.605 49.388C137.573 50.036 136.433 50.36 135.185 50.36ZM130.721 44.324V42.14H139.637V44.324H130.721ZM150.327 50C149.471 50.16 148.631 50.228 147.807 50.204C146.991 50.188 146.259 50.04 145.611 49.76C144.963 49.472 144.471 49.02 144.135 48.404C143.839 47.844 143.683 47.272 143.667 46.688C143.651 46.104 143.643 45.444 143.643 44.708V33.44H146.523V44.54C146.523 45.06 146.527 45.516 146.535 45.908C146.551 46.3 146.635 46.62 146.787 46.868C147.075 47.348 147.535 47.616 148.167 47.672C148.799 47.728 149.519 47.696 150.327 47.576V50ZM141.291 39.308V37.04H150.327V39.308H141.291ZM159.71 50C158.854 50.16 158.014 50.228 157.19 50.204C156.374 50.188 155.642 50.04 154.994 49.76C154.346 49.472 153.854 49.02 153.518 48.404C153.222 47.844 153.066 47.272 153.05 46.688C153.034 46.104 153.026 45.444 153.026 44.708V33.44H155.906V44.54C155.906 45.06 155.91 45.516 155.918 45.908C155.934 46.3 156.018 46.62 156.17 46.868C156.458 47.348 156.918 47.616 157.55 47.672C158.182 47.728 158.902 47.696 159.71 47.576V50ZM150.674 39.308V37.04H159.71V39.308H150.674ZM166.732 50.36C165.42 50.36 164.268 50.076 163.276 49.508C162.284 48.94 161.508 48.152 160.948 47.144C160.396 46.136 160.12 44.976 160.12 43.664C160.12 42.248 160.392 41.02 160.936 39.98C161.48 38.932 162.236 38.12 163.204 37.544C164.172 36.968 165.292 36.68 166.564 36.68C167.908 36.68 169.048 36.996 169.984 37.628C170.928 38.252 171.628 39.136 172.084 40.28C172.54 41.424 172.712 42.772 172.6 44.324H169.732V43.268C169.724 41.86 169.476 40.832 168.988 40.184C168.5 39.536 167.732 39.212 166.684 39.212C165.5 39.212 164.62 39.58 164.044 40.316C163.468 41.044 163.18 42.112 163.18 43.52C163.18 44.832 163.468 45.848 164.044 46.568C164.62 47.288 165.46 47.648 166.564 47.648C167.276 47.648 167.888 47.492 168.4 47.18C168.92 46.86 169.32 46.4 169.6 45.8L172.456 46.664C171.96 47.832 171.192 48.74 170.152 49.388C169.12 50.036 167.98 50.36 166.732 50.36ZM162.268 44.324V42.14H171.184V44.324H162.268ZM174.278 50V37.04H176.834V40.196L176.522 39.788C176.682 39.356 176.894 38.964 177.158 38.612C177.43 38.252 177.754 37.956 178.13 37.724C178.45 37.508 178.802 37.34 179.186 37.22C179.578 37.092 179.978 37.016 180.386 36.992C180.794 36.96 181.19 36.976 181.574 37.04V39.74C181.19 39.628 180.746 39.592 180.242 39.632C179.746 39.672 179.298 39.812 178.898 40.052C178.498 40.268 178.17 40.544 177.914 40.88C177.666 41.216 177.482 41.6 177.362 42.032C177.242 42.456 177.182 42.916 177.182 43.412V50H174.278Z" fill="#2176F6"/>
</svg>
