<svg width="253" height="108" viewBox="0 0 253 108" fill="none" xmlns="http://www.w3.org/2000/svg">
<path d="M100.31 76.5361C100.355 75.8958 100.488 75.2048 100.71 74.4633C100.952 73.7231 101.259 72.9875 101.631 72.2566C102.006 71.5068 102.444 70.7898 102.946 70.1057C103.449 69.4028 104.003 68.798 104.606 68.2914C105.211 67.7659 105.854 67.3661 106.535 67.092C107.218 66.7991 107.927 66.6783 108.662 66.7297C109.264 66.7719 109.823 66.8961 110.339 67.1025C110.856 67.2901 111.291 67.5571 111.645 67.9037C112 68.2502 112.263 68.6756 112.436 69.1797C112.629 69.6664 112.703 70.2393 112.657 70.8985C112.242 70.8695 111.91 70.7422 111.661 70.5166C111.432 70.2735 111.214 70.0122 111.006 69.7327C110.818 69.4545 110.599 69.2026 110.35 68.977C110.119 68.7527 109.806 68.6267 109.411 68.599C108.827 68.5582 108.251 68.6694 107.684 68.9325C107.136 69.197 106.608 69.567 106.102 70.0426C105.614 70.5195 105.169 71.0656 104.766 71.6809C104.382 72.2976 104.036 72.9263 103.726 73.567C103.436 74.1903 103.194 74.8074 103 75.4184C102.825 76.0307 102.721 76.5628 102.689 77.0148C102.621 77.9942 102.698 78.927 102.919 79.8131C103.161 80.6817 103.533 81.4553 104.034 82.1339C104.537 82.7936 105.181 83.3307 105.966 83.7452C106.75 84.1597 107.661 84.4032 108.697 84.4756C109.356 84.5217 109.984 84.471 110.581 84.3235C111.198 84.1585 111.788 83.9821 112.35 83.7943C112.932 83.589 113.503 83.4018 114.064 83.2328C114.625 83.0639 115.178 82.9985 115.725 83.0367C115.8 83.042 115.903 83.0586 116.033 83.0867C116.184 83.0972 116.315 83.1253 116.425 83.1708C116.554 83.2177 116.662 83.2916 116.75 83.3923C116.839 83.4742 116.877 83.6 116.866 83.7695C116.818 84.4475 116.514 85.0035 115.954 85.4375C115.412 85.8727 114.773 86.216 114.036 86.4673C113.301 86.6998 112.543 86.8549 111.761 86.9327C110.98 87.0106 110.344 87.0323 109.854 86.9981C108.423 86.898 107.102 86.5784 105.89 86.0395C104.68 85.4817 103.643 84.7467 102.78 83.8346C101.916 82.9226 101.262 81.8548 100.818 80.6314C100.375 79.3891 100.206 78.024 100.31 76.5361ZM117.6 81.72C117.682 80.5523 118.031 79.4884 118.647 78.5284C119.264 77.5496 120.04 76.7333 120.976 76.0795C121.931 75.4082 122.979 74.9042 124.119 74.5676C125.278 74.2323 126.432 74.1048 127.581 74.1852C128.222 74.23 128.772 74.4767 129.233 74.9253C129.712 75.3752 130.1 75.9134 130.397 76.5398C130.695 77.1473 130.906 77.7866 131.03 78.4577C131.172 79.1301 131.226 79.7111 131.191 80.2008C131.118 81.2555 130.791 82.2642 130.213 83.2268C129.636 84.1706 128.915 85.0003 128.052 85.7158C127.189 86.4126 126.233 86.9608 125.183 87.3605C124.133 87.7602 123.099 87.9245 122.082 87.8534C121.178 87.7901 120.426 87.5861 119.825 87.2413C119.226 86.8776 118.756 86.4284 118.415 85.8935C118.075 85.3398 117.836 84.7079 117.696 83.9979C117.577 83.2703 117.545 82.511 117.6 81.72ZM119.982 82.1705C119.947 82.6602 119.955 83.096 120.004 83.4779C120.073 83.8424 120.202 84.1637 120.39 84.4418C120.598 84.7213 120.875 84.9489 121.223 85.1246C121.571 85.2815 122.009 85.3784 122.537 85.4153C123.233 85.464 123.943 85.3244 124.667 84.9965C125.391 84.6497 126.047 84.2035 126.634 83.6578C127.241 83.0947 127.74 82.4671 128.129 81.7751C128.518 81.0831 128.736 80.3981 128.784 79.7201C128.805 79.4187 128.799 79.0872 128.768 78.7254C128.737 78.3636 128.665 78.0274 128.555 77.7168C128.444 77.4062 128.273 77.1388 128.043 76.9145C127.813 76.6902 127.509 76.5649 127.133 76.5385C126.794 76.5148 126.381 76.5995 125.894 76.7926C125.426 76.987 124.926 77.2453 124.392 77.5676C123.877 77.8912 123.359 78.2619 122.838 78.6796C122.335 79.0987 121.87 79.5204 121.443 79.9448C121.016 80.3691 120.666 80.7799 120.392 81.1772C120.137 81.5757 120 81.9068 119.982 82.1705ZM131.33 76.5199C131.363 76.049 131.464 75.687 131.633 75.4339C131.821 75.182 132.179 75.0746 132.706 75.1115C132.763 75.1154 132.866 75.1321 133.015 75.1615C133.185 75.1733 133.288 75.1806 133.326 75.1832C133.417 75.7763 133.504 76.4259 133.587 77.1319C133.69 77.8205 133.812 78.5198 133.951 79.2298C134.091 79.9399 134.25 80.6418 134.428 81.3356C134.626 82.0308 134.875 82.6633 135.175 83.2332C135.54 82.8991 135.814 82.4925 135.999 82.0133C136.184 81.5342 136.331 81.0524 136.441 80.568C136.552 80.0647 136.651 79.589 136.74 79.141C136.848 78.6754 137.017 78.2898 137.246 77.9841C137.477 77.6595 137.796 77.4358 138.202 77.3128C138.627 77.1911 139.192 77.2306 139.897 77.4313C140.688 77.4867 141.308 77.6815 141.758 78.0157C142.209 78.3312 142.588 78.7268 142.896 79.2025C143.223 79.6607 143.529 80.1553 143.814 80.6862C144.119 81.1996 144.511 81.6719 144.992 82.1029C145.122 81.866 145.285 81.5745 145.479 81.2285C145.675 80.8637 145.909 80.4921 146.182 80.1137C146.475 79.7178 146.776 79.332 147.086 78.9562C147.417 78.5629 147.753 78.2174 148.096 77.9196C148.44 77.603 148.788 77.353 149.142 77.1695C149.497 76.9672 149.834 76.8773 150.154 76.8997C150.927 76.9537 151.578 77.2453 152.109 77.7745C152.641 78.2849 153.079 78.9211 153.423 79.6833C153.787 80.428 154.07 81.2616 154.27 82.1841C154.472 83.0877 154.619 83.9592 154.712 84.7984C154.804 85.6377 154.854 86.4077 154.862 87.1085C154.89 87.7918 154.893 88.2841 154.872 88.5855C154.855 88.8303 154.785 89.0147 154.663 89.1386C154.541 89.2626 154.392 89.3563 154.218 89.4197C154.044 89.4644 153.853 89.4889 153.645 89.4932C153.455 89.4989 153.275 89.4958 153.106 89.4839C153.068 89.4813 153.012 89.4773 152.936 89.4721C152.862 89.448 152.779 89.4232 152.686 89.3978C152.612 89.3737 152.511 89.3382 152.381 89.2913L151.136 80.7158C151.14 80.6593 151.072 80.5504 150.932 80.3892C150.793 80.2091 150.688 80.0977 150.615 80.0547C150.558 80.0508 150.512 80.0381 150.476 80.0166C150.438 80.0139 150.41 80.012 150.391 80.0107C150.373 79.9905 150.355 79.9798 150.336 79.9785C149.941 79.9508 149.553 80.0845 149.173 80.3797C148.811 80.6761 148.463 81.0587 148.127 81.5273C147.791 81.9959 147.471 82.5223 147.165 83.1066C146.859 83.6908 146.581 84.2771 146.332 84.8653C146.084 85.4346 145.857 85.9676 145.652 86.4643C145.467 86.9434 145.318 87.3116 145.206 87.5687C145.128 87.6011 144.975 87.6282 144.746 87.65C144.519 87.6531 144.367 87.652 144.292 87.6467C143.765 87.6098 143.372 87.4025 143.115 87.0249C142.858 86.6285 142.655 86.1506 142.505 85.5912C142.374 85.0332 142.265 84.4294 142.178 83.7798C142.111 83.1127 142.003 82.4995 141.852 81.9401C141.721 81.3821 141.508 80.9129 141.213 80.5327C140.938 80.1349 140.518 79.9163 139.953 79.8767C139.746 79.8623 139.533 80.0556 139.316 80.4568C139.099 80.858 138.892 81.3734 138.697 82.0033C138.503 82.6143 138.314 83.2824 138.131 84.0077C137.949 84.7142 137.788 85.3843 137.649 86.0181C137.53 86.6343 137.437 87.1577 137.369 87.5883C137.301 88.0188 137.267 88.2341 137.267 88.2341C137.225 88.288 137.145 88.3486 137.027 88.4161C136.91 88.4647 136.783 88.522 136.646 88.5881C136.528 88.6556 136.401 88.7035 136.267 88.732C136.151 88.7617 136.065 88.7746 136.009 88.7707C135.481 88.7338 134.989 88.4628 134.532 87.9577C134.077 87.4338 133.669 86.7806 133.307 85.9983C132.965 85.1984 132.658 84.3252 132.383 83.3786C132.128 82.4333 131.918 81.5102 131.754 80.6092C131.59 79.7082 131.467 78.8952 131.385 78.1703C131.322 77.4467 131.304 76.8965 131.33 76.5199ZM155.536 78.213C155.569 77.7421 155.67 77.3801 155.84 77.127C156.028 76.8752 156.385 76.7677 156.913 76.8046C156.969 76.8085 157.072 76.8252 157.221 76.8546C157.391 76.8664 157.494 76.8737 157.532 76.8763C157.623 77.4694 157.71 78.119 157.793 78.825C157.896 79.5136 158.018 80.2129 158.157 80.9229C158.297 81.633 158.456 82.3349 158.634 83.0287C158.832 83.7239 159.081 84.3564 159.382 84.9263C159.746 84.5922 160.02 84.1856 160.205 83.7064C160.39 83.2273 160.537 82.7455 160.647 82.2611C160.758 81.7578 160.857 81.2821 160.946 80.8341C161.054 80.3685 161.223 79.9829 161.452 79.6772C161.683 79.3527 162.002 79.1289 162.408 79.0059C162.833 78.8842 163.398 78.9237 164.103 79.1244C164.894 79.1798 165.514 79.3746 165.964 79.7089C166.415 80.0243 166.795 80.4199 167.102 80.8956C167.429 81.3538 167.735 81.8484 168.02 82.3793C168.325 82.8927 168.718 83.365 169.198 83.796C169.329 83.5591 169.491 83.2676 169.685 82.9216C169.881 82.5568 170.116 82.1852 170.388 81.8068C170.681 81.4109 170.982 81.0251 171.292 80.6493C171.623 80.2561 171.959 79.9105 172.302 79.6127C172.646 79.2961 172.994 79.0461 173.348 78.8626C173.703 78.6603 174.04 78.5704 174.361 78.5928C175.133 78.6468 175.784 78.9384 176.315 79.4676C176.847 79.978 177.285 80.6143 177.629 81.3764C177.993 82.1211 178.276 82.9547 178.476 83.8772C178.678 84.7808 178.825 85.6523 178.918 86.4915C179.01 87.3308 179.06 88.1008 179.068 88.8016C179.096 89.4849 179.099 89.9772 179.078 90.2786C179.061 90.5234 178.992 90.7078 178.869 90.8317C178.747 90.9557 178.599 91.0494 178.424 91.1129C178.25 91.1575 178.059 91.182 177.851 91.1863C177.661 91.192 177.482 91.1889 177.312 91.177C177.274 91.1744 177.218 91.1705 177.143 91.1652C177.069 91.1411 176.985 91.1163 176.892 91.0909C176.818 91.0668 176.717 91.0313 176.587 90.9844L175.342 82.4089C175.346 82.3524 175.278 82.2435 175.138 82.0823C174.999 81.9022 174.894 81.7908 174.821 81.7478C174.764 81.7439 174.718 81.7312 174.682 81.7097C174.644 81.7071 174.616 81.7051 174.597 81.7038C174.579 81.6836 174.561 81.6729 174.542 81.6716C174.147 81.6439 173.759 81.7776 173.379 82.0728C173.017 82.3693 172.669 82.7518 172.333 83.2204C171.998 83.689 171.677 84.2154 171.371 84.7997C171.065 85.3839 170.787 85.9702 170.538 86.5584C170.29 87.1277 170.063 87.6607 169.858 88.1574C169.673 88.6366 169.525 89.0047 169.412 89.2618C169.334 89.2942 169.181 89.3213 168.952 89.3432C168.725 89.3462 168.573 89.3451 168.498 89.3398C167.971 89.3029 167.578 89.0957 167.321 88.718C167.065 88.3216 166.861 87.8437 166.711 87.2843C166.58 86.7263 166.471 86.1225 166.384 85.4729C166.317 84.8058 166.209 84.1926 166.059 83.6332C165.927 83.0752 165.714 82.606 165.419 82.2258C165.144 81.828 164.724 81.6094 164.159 81.5698C163.952 81.5554 163.739 81.7487 163.522 82.1499C163.305 82.5511 163.098 83.0666 162.903 83.6964C162.709 84.3074 162.52 84.9755 162.337 85.7008C162.155 86.4073 161.994 87.0774 161.855 87.7112C161.736 88.3274 161.643 88.8508 161.575 89.2814C161.507 89.7119 161.473 89.9272 161.473 89.9272C161.431 89.9811 161.351 90.0417 161.233 90.1092C161.116 90.1578 160.989 90.2151 160.852 90.2812C160.734 90.3487 160.607 90.3966 160.473 90.4251C160.357 90.4548 160.271 90.4677 160.215 90.4638C159.687 90.4269 159.195 90.1559 158.739 89.6508C158.283 89.1269 157.875 88.4737 157.513 87.6914C157.172 86.8915 156.864 86.0183 156.589 85.0717C156.334 84.1264 156.124 83.2033 155.96 82.3023C155.796 81.4013 155.673 80.5883 155.591 79.8634C155.528 79.1398 155.51 78.5896 155.536 78.213ZM180.34 80.2886C180.348 80.1755 180.362 79.9778 180.382 79.6953C180.422 79.3952 180.453 79.0851 180.475 78.765C180.498 78.4448 180.518 78.1529 180.537 77.8892C180.575 77.608 180.599 77.4109 180.606 77.2979C180.754 77.0811 180.92 76.875 181.104 76.6797C181.308 76.4669 181.507 76.3294 181.701 76.2672C181.914 76.1875 182.132 76.1839 182.354 76.2562C182.595 76.3298 182.827 76.5353 183.049 76.8726L183.034 77.0986L183.008 77.4658C182.982 77.5587 182.929 77.7821 182.847 78.136C182.767 78.471 182.675 78.8431 182.57 79.2522C182.466 79.6613 182.364 80.0421 182.263 80.3947C182.183 80.7297 182.14 80.9443 182.133 81.0385C182.108 81.3964 182.114 81.851 182.151 82.4025C182.19 82.9351 182.254 83.498 182.345 84.091C182.455 84.6854 182.593 85.2818 182.759 85.8802C182.945 86.4798 183.171 87.0256 183.44 87.5175C183.709 87.9906 184.013 88.3904 184.349 88.7168C184.705 89.0444 185.128 89.2254 185.617 89.2597C186.22 89.3018 186.759 89.1786 187.233 88.8901C187.726 88.6028 188.16 88.2168 188.535 87.732C188.909 87.2472 189.223 86.6918 189.475 86.066C189.746 85.4414 189.969 84.8136 190.146 84.1824C190.324 83.5325 190.462 82.9081 190.561 82.3094C190.66 81.7106 190.725 81.1852 190.757 80.7332C190.788 80.2812 190.78 79.8548 190.733 79.454C190.705 79.0357 190.658 78.6255 190.592 78.2234C190.525 77.8213 190.467 77.4293 190.418 77.0473C190.39 76.6479 190.389 76.2504 190.417 75.8548C190.442 75.497 190.582 75.2513 190.837 75.1178C191.112 74.9855 191.409 74.9306 191.729 74.953C192.125 74.9807 192.436 75.1255 192.664 75.3875C192.893 75.6306 193.061 75.9357 193.168 76.3028C193.293 76.6711 193.358 77.0921 193.363 77.5656C193.388 78.0215 193.385 78.4755 193.353 78.9276C193.321 79.3796 193.281 79.8121 193.234 80.2251C193.187 80.6193 193.155 80.9389 193.138 81.1837C193.093 81.8241 192.995 82.5459 192.845 83.3492C192.694 84.1524 192.466 84.9787 192.16 85.8279C191.875 86.6597 191.524 87.4774 191.108 88.281C190.711 89.086 190.235 89.8003 189.681 90.424C189.146 91.0301 188.535 91.5078 187.849 91.8572C187.18 92.208 186.441 92.355 185.632 92.2984C184.784 92.2391 184.054 91.9893 183.441 91.549C182.83 91.0898 182.321 90.5149 181.915 89.824C181.53 89.1157 181.216 88.3272 180.974 87.4586C180.732 86.59 180.556 85.726 180.446 84.8666C180.354 84.0086 180.299 83.1814 180.279 82.3851C180.279 81.5712 180.299 80.8724 180.34 80.2886ZM194.122 83.2682C194.157 82.7785 194.304 82.4387 194.563 82.2486C194.824 82.0397 195.227 81.9544 195.773 81.9926L196.056 82.0123C196.091 82.3176 196.133 82.6707 196.18 83.0715C196.228 83.4723 196.313 83.8851 196.434 84.31C196.556 84.7349 196.708 85.1335 196.89 85.5058C197.073 85.8593 197.309 86.1502 197.595 86.3785C197.66 85.7206 197.865 85.1008 198.208 84.5192C198.572 83.9201 198.996 83.4009 199.481 82.9617C199.986 82.5049 200.523 82.1356 201.092 81.8536C201.681 81.5541 202.252 81.3669 202.806 81.2921L203.428 81.3356C204.332 81.3988 205.089 81.66 205.701 82.1192C206.313 82.5595 206.804 83.1237 207.172 83.8119C207.56 84.4826 207.839 85.2401 208.007 86.0847C208.175 86.9292 208.285 87.7886 208.337 88.6628C208.41 89.5196 208.427 90.3536 208.389 91.1647C208.371 91.9584 208.343 92.6377 208.303 93.2028L206.241 93.0585C206.207 91.9206 206.141 90.8277 206.044 89.78C206.017 89.3617 205.972 88.9232 205.909 88.4646C205.848 87.9872 205.775 87.5468 205.69 87.1433C205.606 86.7211 205.51 86.3358 205.402 85.9876C205.295 85.6205 205.165 85.3087 205.013 85.052C204.943 84.9713 204.846 84.8605 204.724 84.7195C204.62 84.5797 204.507 84.4393 204.384 84.2982C204.262 84.1572 204.147 84.0356 204.041 83.9335C203.934 83.8315 203.872 83.7798 203.853 83.7785C203.298 83.5883 202.801 83.667 202.36 84.0147C201.921 84.3436 201.519 84.8076 201.155 85.4067C200.792 86.0058 200.479 86.6937 200.216 87.4702C199.972 88.2481 199.759 88.9997 199.575 89.725C199.394 90.4314 199.255 91.0558 199.16 91.598C199.067 92.1214 199.007 92.439 198.98 92.5507C198.486 92.8568 198.036 92.9294 197.631 92.7686C197.227 92.5889 196.852 92.2599 196.507 91.7815C196.181 91.3045 195.891 90.7164 195.637 90.0173C195.402 89.3195 195.189 88.5854 194.997 87.8149C194.806 87.0256 194.634 86.2376 194.481 85.4509C194.346 84.6655 194.227 83.9379 194.122 83.2682ZM211.143 83.3799C211.151 83.2669 211.164 83.088 211.181 82.8431C211.218 82.5808 211.247 82.3084 211.266 82.0258C211.305 81.7446 211.334 81.4722 211.352 81.2085C211.389 80.9462 211.412 80.7585 211.42 80.6455C211.648 80.3586 211.929 80.1322 212.262 79.9663C212.614 79.8017 212.964 79.6747 213.311 79.5854C213.296 80.6064 213.38 81.7006 213.564 82.8679C213.747 84.0352 213.948 85.2133 214.168 86.4021C214.389 87.572 214.573 88.7299 214.72 89.8758C214.885 91.0229 214.934 92.0862 214.865 93.0656C214.806 93.9131 214.343 94.3066 213.477 94.246C212.95 94.2091 212.522 93.9616 212.195 93.5033C211.867 93.0451 211.613 92.4785 211.433 91.8035C211.274 91.111 211.156 90.3552 211.081 89.5361C211.007 88.6982 210.97 87.8817 210.969 87.0868C210.987 86.2931 211.009 85.566 211.036 84.9055C211.083 84.2463 211.118 83.7378 211.143 83.3799ZM212.28 72.8134C212.628 72.9891 212.912 73.255 213.133 73.6112C213.354 73.9673 213.436 74.2853 213.379 74.5652C213.341 74.8275 213.121 75.0014 212.717 75.0867C212.315 75.1532 211.664 74.9941 210.764 74.6094C210.799 74.1009 210.924 73.6649 211.139 73.3014C211.373 72.9392 211.753 72.7765 212.28 72.8134ZM215.659 80.0335C215.663 79.977 215.676 79.9306 215.697 79.8943C215.7 79.8566 215.712 79.8102 215.735 79.755C215.817 79.6661 215.939 79.5516 216.1 79.4114C216.261 79.2713 216.361 79.2025 216.398 79.2052L222.077 79.6024C222.091 79.3952 222.086 79.0636 222.061 78.6076C222.036 78.1517 222.015 77.6486 221.997 77.0985C221.997 76.5496 222.027 75.984 222.087 75.4014C222.148 74.8001 222.261 74.2686 222.426 73.8069C222.611 73.3278 222.864 72.9481 223.187 72.6678C223.53 72.37 223.983 72.2409 224.548 72.2804C224.415 74.1826 224.44 75.7174 224.623 76.8848C224.807 78.0521 225.093 78.9617 225.483 79.6135C225.891 80.2666 226.372 80.7071 226.923 80.935C227.475 81.1628 228.044 81.2878 228.629 81.3098C229.234 81.3143 229.825 81.2609 230.4 81.1498C230.976 81.0386 231.482 80.97 231.919 80.9438C232.375 80.9189 232.73 80.991 232.983 81.1601C233.237 81.3104 233.346 81.6492 233.309 82.1766C233.282 82.5721 233.168 82.848 232.967 83.0043C232.786 83.162 232.438 83.2701 231.923 83.3287C231.771 83.337 231.514 83.3569 231.152 83.3884C230.81 83.4023 230.422 83.413 229.986 83.4203C229.55 83.4277 229.085 83.4425 228.592 83.4648C228.099 83.4682 227.635 83.4736 227.199 83.481C226.764 83.4883 226.366 83.4889 226.007 83.4827C225.649 83.4577 225.385 83.4392 225.216 83.4274C225.209 83.5216 225.189 83.681 225.154 83.9057C225.119 84.1304 225.099 84.2804 225.094 84.3557C225.036 85.1844 225.111 86.0035 225.319 86.813C225.529 87.6036 225.758 88.3956 226.005 89.1889C226.271 89.9835 226.509 90.7761 226.718 91.5667C226.928 92.3574 227.004 93.167 226.946 93.9957C226.935 94.1464 226.905 94.3052 226.856 94.472C226.826 94.6214 226.76 94.7587 226.657 94.884C226.573 94.9917 226.445 95.0679 226.271 95.1125C226.115 95.1773 225.9 95.1528 225.624 95.0388C224.921 94.8004 224.413 94.358 224.098 93.7114C223.803 93.0662 223.6 92.3138 223.49 91.4545C223.381 90.5762 223.332 89.6549 223.343 88.6904C223.353 87.7259 223.322 86.8247 223.248 85.9868C223.194 85.1313 223.056 84.4024 222.833 83.8001C222.612 83.179 222.214 82.7821 221.639 82.6094L216.274 80.985C216.198 80.9797 216.091 80.8965 215.951 80.7353C215.812 80.5552 215.726 80.4262 215.694 80.3483C215.678 80.3093 215.671 80.2615 215.675 80.205C215.659 80.166 215.654 80.1089 215.659 80.0335ZM233.393 80.9049C233.405 80.7354 233.417 80.5659 233.429 80.3964C233.461 80.2093 233.51 80.0425 233.577 79.8957C233.664 79.7315 233.767 79.6157 233.885 79.5482C234.024 79.4633 234.216 79.4294 234.46 79.4465C234.479 79.4478 234.498 79.4491 234.517 79.4505C234.555 79.4531 234.592 79.4557 234.63 79.4584C234.685 79.4811 234.731 79.4939 234.769 79.4965C235.093 80.0112 235.359 80.6639 235.569 81.4545C235.78 82.2263 235.977 83.054 236.162 83.9375C236.347 84.8021 236.55 85.687 236.771 86.5919C236.993 87.4781 237.305 88.2854 237.708 89.0138C238.112 89.7423 238.628 90.3368 239.258 90.7972C239.889 91.2577 240.695 91.4939 241.679 91.5059C242.112 91.5362 242.411 91.3206 242.576 90.8589C242.741 90.3973 242.849 89.7992 242.9 89.0647C242.97 88.3315 243.008 87.5203 243.014 86.6311C243.038 85.7433 243.097 84.9052 243.19 84.1168C243.303 83.3109 243.494 82.6145 243.762 82.0276C244.049 81.442 244.492 81.0661 245.09 80.8997C245.3 81.4065 245.444 82.1926 245.521 83.2578C245.618 84.3056 245.656 85.5195 245.635 86.8997C245.615 88.261 245.55 89.7421 245.438 91.343C245.327 92.9251 245.178 94.5045 244.992 96.0813C244.807 97.6393 244.589 99.1381 244.337 100.578C244.085 102.017 243.826 103.277 243.561 104.356C243.296 105.435 243.01 106.276 242.703 106.88C242.414 107.503 242.131 107.757 241.855 107.643C241.486 107.239 241.209 106.728 241.025 106.109C240.86 105.492 240.757 104.813 240.714 104.072C240.69 103.332 240.716 102.548 240.793 101.721C240.869 100.912 240.954 100.095 241.05 99.2691C241.165 98.4443 241.278 97.6384 241.39 96.8513C241.52 96.0656 241.609 95.3431 241.655 94.6839C240.973 94.693 240.283 94.5406 239.586 94.2269C238.908 93.9145 238.249 93.4615 237.609 92.8678C236.97 92.2554 236.368 91.5319 235.802 90.6974C235.255 89.8642 234.78 88.9321 234.379 87.9009C233.997 86.8711 233.715 85.7725 233.531 84.6052C233.349 83.419 233.303 82.1856 233.393 80.9049Z" fill="#37B6FF"/>
<path d="M1.8005 15.6772C1.80544 15.6208 1.81896 15.5746 1.84106 15.5386C1.84435 15.501 1.85787 15.4548 1.88161 15.4C1.96508 15.3125 2.08863 15.2002 2.25226 15.0628C2.4159 14.9255 2.51653 14.8585 2.55414 14.8618L8.22488 15.3578C8.24299 15.1509 8.24358 14.8193 8.22666 14.3629C8.20974 13.9066 8.19694 13.4033 8.18825 12.8529C8.19837 12.3041 8.23834 11.7391 8.30818 11.1577C8.37966 10.5574 8.50181 10.028 8.67462 9.56929C8.86788 9.09343 9.12815 8.7182 9.45542 8.44358C9.80315 8.15181 10.2591 8.03059 10.8234 8.07994C10.6571 9.97958 10.6555 11.5146 10.8184 12.6849C10.9813 13.8552 11.2519 14.7697 11.6301 15.4282C12.0272 16.0883 12.4997 16.5371 13.0475 16.7746C13.5953 17.012 14.1615 17.1468 14.7462 17.179C15.3514 17.194 15.9427 17.151 16.5201 17.0498C17.0975 16.9487 17.605 16.8889 18.0425 16.8703C18.4989 16.8533 18.8521 16.9316 19.1022 17.1051C19.354 17.2598 19.4569 17.6005 19.4108 18.1271C19.3762 18.5221 19.2575 18.796 19.0546 18.9488C18.8705 19.1033 18.5204 19.2053 18.0044 19.2549C17.8523 19.2606 17.5951 19.276 17.2328 19.3012C16.8909 19.3092 16.5021 19.3131 16.0662 19.3128C15.6303 19.3126 15.1654 19.3193 14.6714 19.333C14.1791 19.3279 13.715 19.3252 13.2791 19.3249C12.8432 19.3247 12.4458 19.3184 12.0868 19.306C11.7294 19.2747 11.4661 19.2517 11.2968 19.2369C11.2886 19.3309 11.2652 19.49 11.2266 19.714C11.1881 19.9381 11.1655 20.0877 11.1589 20.1629C11.0865 20.9905 11.1474 21.8108 11.3416 22.6238C11.5374 23.4179 11.752 24.2137 11.9855 25.0112C12.2377 25.8103 12.4618 26.607 12.6576 27.4011C12.8534 28.1953 12.9151 29.0062 12.8427 29.8337C12.8295 29.9842 12.7967 30.1424 12.7443 30.3084C12.7123 30.4572 12.6435 30.5934 12.538 30.7168C12.4529 30.8231 12.3232 30.897 12.149 30.9386C11.9919 31.0007 11.7765 30.9724 11.5026 30.8537C10.8043 30.6031 10.3037 30.1518 10.0006 29.4999C9.7164 28.8496 9.52668 28.0939 9.43148 27.2327C9.33792 26.3527 9.3049 25.4306 9.33243 24.4665C9.35995 23.5023 9.3441 22.6007 9.28486 21.7616C9.24609 20.9054 9.12055 20.1742 8.90826 19.5681C8.69762 18.9432 8.30653 18.5394 7.73499 18.3568L2.39859 16.6392C2.32336 16.6326 2.21709 16.5475 2.07979 16.3839C1.94414 16.2015 1.8608 16.071 1.82976 15.9925C1.81425 15.9532 1.80896 15.9054 1.8139 15.8489C1.79838 15.8097 1.79391 15.7524 1.8005 15.6772ZM21.1428 13.2183C21.1609 13.0114 21.202 12.7592 21.2659 12.4615C21.3503 12.1467 21.4613 11.8532 21.5988 11.5809C21.7552 11.3103 21.9356 11.0892 22.1402 10.9176C22.3464 10.7271 22.5999 10.645 22.9009 10.6714C22.9197 10.673 22.9659 10.6865 23.0395 10.7119C23.1131 10.7373 23.1593 10.7508 23.1781 10.7525C23.3957 11.9465 23.4826 13.1197 23.4386 14.272C23.3946 15.4242 23.2779 16.5416 23.0884 17.6243C22.9005 18.6882 22.6681 19.7197 22.3911 20.7189C22.1158 21.6993 21.8753 22.6069 21.6695 23.4418C21.4826 24.2783 21.3407 25.0334 21.2438 25.7072C21.1658 26.3827 21.219 26.9654 21.4036 27.4553C21.3923 27.1511 21.3953 26.7913 21.4127 26.3759C21.4506 25.9433 21.5269 25.5046 21.6416 25.0597C21.7752 24.6166 21.9558 24.1775 22.1833 23.7425C22.4297 23.3092 22.7567 22.9304 23.1641 22.6059C23.5716 22.2814 24.0759 22.0413 24.677 21.8854C25.297 21.7311 26.049 21.6926 26.933 21.77C27.8546 21.8506 28.6306 22.0795 29.2609 22.4568C29.91 22.8358 30.4262 23.3263 30.8094 23.9284C31.1942 24.5117 31.4572 25.1885 31.5982 25.959C31.7597 26.7122 31.8034 27.512 31.7294 28.3584C31.6948 28.7534 31.6459 29.204 31.5826 29.7102C31.5398 30.1992 31.4337 30.6542 31.2642 31.0753C31.1151 31.4792 30.8675 31.8176 30.5215 32.0906C30.1958 32.3464 29.7321 32.448 29.1302 32.3954C29.1566 32.0944 29.2108 31.6917 29.2928 31.1872C29.3765 30.6638 29.4439 30.1106 29.4949 29.5276C29.5647 28.9461 29.5978 28.352 29.594 27.7452C29.6091 27.1401 29.5338 26.5934 29.368 26.1051C29.2039 25.5979 28.947 25.1775 28.5971 24.8436C28.2677 24.4926 27.7833 24.2892 27.1438 24.2332C26.9181 24.2135 26.6344 24.2076 26.2925 24.2156C25.9711 24.2065 25.6346 24.2623 25.2828 24.3832C24.9311 24.5041 24.5814 24.7104 24.2337 25.0022C23.8876 25.2751 23.5966 25.6761 23.3608 26.2051C23.1267 26.7153 22.9545 27.3825 22.8445 28.2068C22.7549 29.0139 22.7711 30.0198 22.8931 31.2244C22.7318 31.5515 22.5453 31.7342 22.3334 31.7725C22.1404 31.8125 21.8934 31.8193 21.5925 31.793C20.9906 31.7403 20.5103 31.4899 20.1516 31.0415C19.8132 30.576 19.5719 29.9769 19.4276 29.2441C19.2832 28.5113 19.2146 27.6714 19.2217 26.7244C19.2475 25.779 19.3143 24.7993 19.422 23.7853C19.5314 22.7525 19.6697 21.7128 19.8372 20.6661C20.025 19.6022 20.1977 18.6034 20.3553 17.6696C20.5333 16.7186 20.6936 15.8608 20.8363 15.0962C20.9995 14.3145 21.1017 13.6885 21.1428 13.2183ZM32.5762 24.7936C32.6651 23.778 32.8762 22.773 33.2096 21.7788C33.543 20.7845 34.0084 19.906 34.6059 19.1433C35.2221 18.3823 35.9756 17.7849 36.8664 17.351C37.7761 16.9189 38.8421 16.7563 40.0647 16.8632C40.7606 16.9241 41.3604 17.1092 41.8639 17.4186C42.3692 17.7091 42.7824 18.0769 43.1035 18.522C43.4247 18.967 43.6452 19.4791 43.7651 20.0581C43.9054 20.62 43.9493 21.2019 43.8966 21.8037C43.8126 22.763 43.5055 23.6742 42.975 24.5376C42.4634 25.4025 41.801 26.1501 40.9878 26.7802C40.195 27.3931 39.3033 27.8363 38.3128 28.1098C37.324 28.3644 36.3394 28.3541 35.359 28.0789C35.3301 28.626 35.47 29.0836 35.779 29.4517C36.1083 29.8027 36.5101 30.0843 36.9843 30.2963C37.4585 30.5083 37.9565 30.6656 38.4782 30.7681C39.0015 30.8518 39.4701 30.9117 39.8839 30.9479C40.3165 30.9857 40.7242 30.9835 41.1069 30.9411C41.4897 30.8988 41.8732 30.8471 42.2576 30.7859C42.642 30.7248 43.0256 30.673 43.4084 30.6307C43.8099 30.59 44.227 30.5886 44.6596 30.6264C44.8289 30.6412 44.9973 30.6654 45.165 30.6991C45.3326 30.7327 45.4883 30.7937 45.6322 30.8821C45.7777 30.9517 45.891 31.0658 45.9718 31.2245C46.0543 31.3644 46.0866 31.5378 46.0684 31.7446C46.0372 32.102 45.8792 32.3914 45.5945 32.6129C45.3114 32.8156 44.9556 32.9834 44.527 33.1165C44.1172 33.2513 43.6636 33.3443 43.1664 33.3955C42.6708 33.428 42.1854 33.4519 41.7103 33.4672C41.2556 33.4653 40.8307 33.4471 40.4358 33.4126C40.0579 33.3985 39.775 33.3832 39.5869 33.3668C38.3832 33.2615 37.3181 32.9788 36.3918 32.5188C35.4672 32.0399 34.7053 31.4331 34.1063 30.6984C33.5089 29.945 33.0735 29.073 32.8001 28.0825C32.5471 27.0749 32.4725 25.9786 32.5762 24.7936ZM35.7272 23.2214C35.6696 23.8797 35.7123 24.3667 35.8552 24.6824C36.017 24.9998 36.4458 25.1889 37.1417 25.2498C37.6307 25.2926 38.1178 25.2499 38.6028 25.1217C39.0894 24.9748 39.5349 24.7579 39.939 24.471C40.362 24.1858 40.7052 23.8368 40.9688 23.424C41.2324 23.0111 41.3864 22.5508 41.4308 22.0429C41.4555 21.7608 41.4528 21.4668 41.4227 21.161C41.4114 20.8567 41.3412 20.5758 41.2122 20.3181C41.0848 20.0416 40.9054 19.8175 40.674 19.6456C40.4631 19.4566 40.1696 19.3457 39.7935 19.3128C39.2292 19.2634 38.7004 19.3498 38.2072 19.572C37.7344 19.777 37.32 20.0725 36.9641 20.4583C36.6097 20.8253 36.3257 21.2553 36.112 21.7483C35.8999 22.2225 35.7717 22.7136 35.7272 23.2214Z" fill="#37B6FF"/>
<path d="M44.0542 63.3183C42.5083 63.3183 40.8725 63.157 39.1468 62.8342C37.421 62.5115 35.8751 61.9557 34.5089 61.1668C33.9337 60.8083 33.5202 60.3959 33.2686 59.9297C33.0528 59.4277 32.963 58.9437 32.9989 58.4775C33.0708 57.9755 33.2506 57.5452 33.5382 57.1866C33.8618 56.828 34.2572 56.595 34.7246 56.4874C35.228 56.3798 35.7672 56.4694 36.3425 56.7563C37.7806 57.4376 39.1288 57.9217 40.3871 58.2086C41.6454 58.4596 42.8858 58.5851 44.1082 58.5851C45.8339 58.5851 47.1102 58.2982 47.9371 57.7245C48.7999 57.1149 49.2314 56.326 49.2314 55.3578C49.2314 54.5331 48.9438 53.9056 48.3685 53.4753C47.8292 53.0091 47.0023 52.6685 45.8878 52.4533L40.495 51.4314C38.2659 51.0011 36.5582 50.1943 35.3718 49.011C34.2213 47.7918 33.6461 46.232 33.6461 44.3315C33.6461 42.6103 34.1134 41.1222 35.0482 39.8672C36.0189 38.6121 37.3491 37.644 39.0389 36.9627C40.7287 36.2814 42.6701 35.9407 44.8632 35.9407C46.4451 35.9407 47.9191 36.12 49.2853 36.4786C50.6874 36.8013 52.0357 37.3213 53.3299 38.0384C53.8692 38.3253 54.2287 38.7018 54.4085 39.1679C54.6242 39.6341 54.6781 40.1182 54.5703 40.6202C54.4624 41.0864 54.2467 41.5166 53.9231 41.9111C53.5996 42.2697 53.1861 42.5027 52.6828 42.6103C52.2154 42.682 51.6761 42.5745 51.0649 42.2876C49.9504 41.7139 48.8718 41.3015 47.8292 41.0505C46.8226 40.7995 45.8519 40.674 44.9171 40.674C43.1554 40.674 41.8432 40.9788 40.9803 41.5884C40.1534 42.198 39.74 43.0048 39.74 44.0088C39.74 44.7618 39.9916 45.3893 40.495 45.8913C40.9983 46.3933 41.7713 46.734 42.8139 46.9133L48.2067 47.9352C50.5436 48.3655 52.3053 49.1544 53.4917 50.3019C54.7141 51.4493 55.3253 52.9912 55.3253 54.9276C55.3253 57.5452 54.3006 59.607 52.2514 61.1131C50.2021 62.5832 47.4697 63.3183 44.0542 63.3183Z" fill="#37B6FF"/>
<path d="M63.1138 63.157C62.0353 63.157 61.2084 62.8342 60.6331 62.1888C60.0579 61.5434 59.7703 60.6469 59.7703 59.4994V39.7596C59.7703 38.5763 60.0579 37.6798 60.6331 37.0703C61.2084 36.4248 62.0353 36.1021 63.1138 36.1021C64.1924 36.1021 65.0193 36.4248 65.5946 37.0703C66.2057 37.6798 66.5113 38.5763 66.5113 39.7596V59.4994C66.5113 60.6469 66.2237 61.5434 65.6485 62.1888C65.0732 62.8342 64.2284 63.157 63.1138 63.157ZM63.1138 31.0999C61.8555 31.0999 60.8668 30.7951 60.1478 30.1855C59.4647 29.5401 59.1231 28.6615 59.1231 27.5499C59.1231 26.4025 59.4647 25.524 60.1478 24.9144C60.8668 24.3048 61.8555 24 63.1138 24C64.4081 24 65.3968 24.3048 66.0799 24.9144C66.763 25.524 67.1046 26.4025 67.1046 27.5499C67.1046 28.6615 66.763 29.5401 66.0799 30.1855C65.3968 30.7951 64.4081 31.0999 63.1138 31.0999Z" fill="#37B6FF"/>
<path d="M87.7605 63.3183C85.5315 63.3183 83.5721 62.7625 81.8823 61.6509C80.2285 60.5393 79.132 59.0512 78.5927 57.1866L79.1859 55.8419V59.7684C79.1859 60.88 78.8983 61.7406 78.323 62.3502C77.7478 62.9239 76.9389 63.2108 75.8963 63.2108C74.8177 63.2108 73.9908 62.9239 73.4156 62.3502C72.8403 61.7406 72.5527 60.88 72.5527 59.7684V27.8189C72.5527 26.7073 72.8403 25.8646 73.4156 25.2909C73.9908 24.7172 74.8177 24.4303 75.8963 24.4303C76.9748 24.4303 77.8017 24.7172 78.377 25.2909C78.9882 25.8646 79.2938 26.7073 79.2938 27.8189V41.8035H78.6466C79.2219 40.0465 80.3364 38.6301 81.9902 37.5543C83.644 36.4786 85.5674 35.9407 87.7605 35.9407C90.0974 35.9407 92.1287 36.4965 93.8544 37.6081C95.5801 38.7197 96.9284 40.2975 97.8991 42.3414C98.8698 44.3494 99.3551 46.7698 99.3551 49.6026C99.3551 52.3996 98.8698 54.8379 97.8991 56.9177C96.9284 58.9616 95.5622 60.5393 93.8005 61.6509C92.0748 62.7625 90.0615 63.3183 87.7605 63.3183ZM85.873 58.2086C87.2033 58.2086 88.3717 57.8858 89.3784 57.2404C90.385 56.595 91.158 55.6447 91.6973 54.3897C92.2725 53.0988 92.5602 51.5031 92.5602 49.6026C92.5602 46.734 91.949 44.6004 90.7266 43.202C89.5042 41.7677 87.8864 41.0505 85.873 41.0505C84.5428 41.0505 83.3743 41.3732 82.3677 42.0187C81.361 42.6282 80.5701 43.5785 79.9948 44.8694C79.4555 46.1244 79.1859 47.7022 79.1859 49.6026C79.1859 52.4354 79.7971 54.5869 81.0195 56.0571C82.2418 57.4914 83.8597 58.2086 85.873 58.2086Z" fill="#37B6FF"/>
<path d="M106.951 63.332C104.712 63.332 103.106 61.9663 103.106 59.34V28.3231C103.106 25.6968 104.712 24.3049 106.951 24.3049C109.215 24.3049 110.795 25.6968 110.795 28.3231V59.34C110.795 61.9663 109.215 63.332 106.951 63.332Z" fill="#37B6FF"/>
<path d="M119.367 63.157C118.288 63.157 117.462 62.8342 116.886 62.1888C116.311 61.5434 116.023 60.6469 116.023 59.4994V39.7596C116.023 38.5763 116.311 37.6798 116.886 37.0703C117.462 36.4248 118.288 36.1021 119.367 36.1021C120.446 36.1021 121.273 36.4248 121.848 37.0703C122.459 37.6798 122.765 38.5763 122.765 39.7596V59.4994C122.765 60.6469 122.477 61.5434 121.902 62.1888C121.326 62.8342 120.482 63.157 119.367 63.157ZM119.367 31.0999C118.109 31.0999 117.12 30.7951 116.401 30.1855C115.718 29.5401 115.376 28.6615 115.376 27.5499C115.376 26.4025 115.718 25.524 116.401 24.9144C117.12 24.3048 118.109 24 119.367 24C120.661 24 121.65 24.3048 122.333 24.9144C123.016 25.524 123.358 26.4025 123.358 27.5499C123.358 28.6615 123.016 29.5401 122.333 30.1855C121.65 30.7951 120.661 31.0999 119.367 31.0999Z" fill="#37B6FF"/>
<path d="M132.149 63.2108C131.071 63.2108 130.244 62.9239 129.669 62.3502C129.094 61.7406 128.806 60.88 128.806 59.7684V39.4369C128.806 38.3253 129.094 37.4826 129.669 36.9089C130.244 36.3352 131.053 36.0483 132.096 36.0483C133.138 36.0483 133.947 36.3352 134.522 36.9089C135.098 37.4826 135.385 38.3253 135.385 39.4369V43.0944L134.792 41.7497C135.583 39.8492 136.805 38.4149 138.459 37.4468C140.149 36.4427 142.054 35.9407 144.175 35.9407C146.297 35.9407 148.04 36.3352 149.407 37.124C150.773 37.9129 151.797 39.1142 152.48 40.7278C153.164 42.3055 153.505 44.3136 153.505 46.7519V59.7684C153.505 60.88 153.217 61.7406 152.642 62.3502C152.067 62.9239 151.24 63.2108 150.162 63.2108C149.083 63.2108 148.238 62.9239 147.627 62.3502C147.052 61.7406 146.764 60.88 146.764 59.7684V47.0746C146.764 45.0307 146.369 43.5426 145.578 42.6103C144.823 41.678 143.636 41.2119 142.018 41.2119C140.041 41.2119 138.459 41.8394 137.273 43.0944C136.122 44.3136 135.547 45.9451 135.547 47.989V59.7684C135.547 62.0633 134.414 63.2108 132.149 63.2108Z" fill="#37B6FF"/>
<path d="M171.685 73C169.743 73 167.856 72.8207 166.022 72.4621C164.224 72.1035 162.589 71.5477 161.115 70.7947C160.432 70.4362 159.964 70.0059 159.712 69.5038C159.497 69.0018 159.425 68.4819 159.497 67.944C159.605 67.442 159.82 66.9938 160.144 66.5993C160.503 66.2049 160.935 65.936 161.438 65.7925C161.942 65.6491 162.463 65.7208 163.002 66.0077C164.584 66.7966 166.076 67.2986 167.478 67.5137C168.916 67.7647 170.139 67.8902 171.145 67.8902C173.554 67.8902 175.352 67.2986 176.538 66.1153C177.761 64.9678 178.372 63.2466 178.372 60.9517V56.1109H178.857C178.318 57.9396 177.185 59.4098 175.46 60.5214C173.77 61.5971 171.846 62.135 169.689 62.135C167.316 62.135 165.249 61.5971 163.487 60.5214C161.726 59.4098 160.36 57.8679 159.389 55.8957C158.418 53.9235 157.933 51.6286 157.933 49.011C157.933 47.0388 158.202 45.2638 158.742 43.6861C159.317 42.0724 160.108 40.6919 161.115 39.5445C162.157 38.397 163.398 37.5185 164.836 36.9089C166.31 36.2634 167.928 35.9407 169.689 35.9407C171.918 35.9407 173.86 36.4965 175.514 37.6081C177.203 38.6839 178.3 40.1182 178.803 41.9111L178.264 43.2558V39.4369C178.264 38.3253 178.551 37.4826 179.127 36.9089C179.738 36.3352 180.565 36.0483 181.607 36.0483C182.686 36.0483 183.513 36.3352 184.088 36.9089C184.663 37.4826 184.951 38.3253 184.951 39.4369V60.1449C184.951 64.412 183.818 67.6213 181.553 69.7728C179.288 71.9243 175.999 73 171.685 73ZM171.523 57.0252C172.925 57.0252 174.129 56.7025 175.136 56.0571C176.143 55.4116 176.916 54.4973 177.455 53.3139C178.03 52.0948 178.318 50.6604 178.318 49.011C178.318 46.5368 177.707 44.6004 176.484 43.202C175.262 41.7677 173.608 41.0505 171.523 41.0505C170.121 41.0505 168.916 41.3732 167.91 42.0187C166.903 42.6641 166.112 43.5785 165.537 44.7618C164.997 45.9451 164.728 47.3615 164.728 49.011C164.728 51.4852 165.339 53.4394 166.561 54.8738C167.784 56.3081 169.438 57.0252 171.523 57.0252Z" fill="#37B6FF"/>
</svg>
