<svg width="255" height="106" viewBox="0 0 255 106" fill="none" xmlns="http://www.w3.org/2000/svg">
<path d="M100.631 88.8674C100.577 88.5608 100.503 88.1203 100.411 87.5461C100.338 86.9732 100.249 86.3424 100.146 85.6539C100.062 84.9666 99.9793 84.2511 99.8988 83.5074C99.8197 82.7448 99.7481 82.0111 99.6839 81.3063C99.621 80.5827 99.5723 79.9264 99.5378 79.3372C99.5235 78.7306 99.5296 78.2389 99.5559 77.8623C99.5678 77.6927 99.6071 77.4021 99.6738 76.9904C99.7404 76.5787 99.8273 76.1495 99.9342 75.7027C100.041 75.256 100.137 74.8368 100.221 74.4453C100.324 74.055 100.409 73.7865 100.476 73.6398C100.534 73.6249 100.629 73.6221 100.761 73.6313C100.911 73.6418 101.063 73.643 101.215 73.6347C101.385 73.6277 101.537 73.6288 101.669 73.638C101.821 73.6297 101.925 73.6276 101.981 73.6315C102.885 73.6948 103.73 73.9336 104.515 74.3481C105.299 74.7626 106.04 75.2686 106.736 75.8662C107.433 76.4638 108.105 77.1259 108.755 77.8527C109.404 78.5795 110.055 79.2874 110.707 79.9765C111.378 80.6669 112.062 81.3015 112.76 81.8803C113.459 82.4401 114.213 82.8809 115.023 83.2026C115.03 83.1084 115.04 82.9671 115.053 82.7788C115.086 82.5729 115.111 82.357 115.127 82.131C115.143 81.905 115.157 81.6978 115.17 81.5095C115.204 81.3036 115.224 81.1536 115.23 81.0594C115.313 79.8729 115.319 78.7093 115.248 77.5687C115.176 76.4281 115.086 75.2862 114.976 74.143C114.867 72.9998 114.777 71.8579 114.705 70.7173C114.635 69.5579 114.642 68.3755 114.726 67.1701C114.858 67.1793 115.018 67.1999 115.205 67.2319C115.412 67.2464 115.617 67.2892 115.82 67.3602C116.025 67.4123 116.208 67.5008 116.37 67.6257C116.532 67.7317 116.635 67.8903 116.677 68.1014C116.657 69.4628 116.731 70.8401 116.899 72.2334C117.067 73.6079 117.245 74.9925 117.431 76.3871C117.619 77.763 117.768 79.1456 117.879 80.5349C118.01 81.9068 118.029 83.2613 117.935 84.5986C117.918 84.8434 117.89 85.1064 117.851 85.3876C117.832 85.6701 117.775 85.9406 117.681 86.199C117.607 86.4399 117.489 86.6398 117.327 86.7988C117.164 86.9578 116.932 87.0267 116.631 87.0056C115.652 86.9371 114.763 86.6573 113.964 86.1662C113.167 85.6562 112.396 85.0439 111.651 84.3294C110.925 83.6162 110.213 82.8377 109.515 81.994C108.836 81.1516 108.124 80.3731 107.379 79.6586C106.653 78.9454 105.882 78.3331 105.066 77.8218C104.269 77.3119 103.39 77.0233 102.43 76.9561C102.356 78.0108 102.36 79.0331 102.442 80.023C102.526 80.9941 102.619 81.9658 102.721 82.9382C102.842 83.9119 102.944 84.8843 103.028 85.8554C103.112 86.8077 103.12 87.7735 103.052 88.7528C103.027 89.1107 102.878 89.3463 102.605 89.4597C102.351 89.5744 102.073 89.6212 101.772 89.6002C101.527 89.583 101.293 89.5477 101.07 89.4943C100.866 89.4233 100.72 89.2143 100.631 88.8674ZM118.606 83.4532C118.677 82.4361 118.871 81.4276 119.187 80.4277C119.503 79.4278 119.953 78.5413 120.537 77.7684C121.14 76.9967 121.883 76.3863 122.766 75.937C123.668 75.4891 124.731 75.3079 125.956 75.3936C126.652 75.4423 127.255 75.617 127.764 75.9175C128.274 76.1993 128.694 76.5598 129.023 76.9992C129.352 77.4386 129.581 77.9467 129.711 78.5236C129.861 79.083 129.915 79.664 129.873 80.2667C129.806 81.2272 129.514 82.1437 128.999 83.0161C128.502 83.8898 127.853 84.6488 127.051 85.293C126.269 85.9196 125.385 86.3783 124.4 86.6689C123.415 86.9408 122.431 86.9476 121.446 86.6894C121.426 87.2369 121.574 87.6921 121.889 88.0548C122.225 88.4 122.632 88.6745 123.109 88.8782C123.587 89.082 124.088 89.2306 124.611 89.324C125.136 89.3985 125.605 89.4503 126.02 89.4793C126.453 89.5096 126.861 89.5002 127.242 89.4512C127.624 89.4022 128.007 89.3438 128.39 89.276C128.774 89.2082 129.156 89.1498 129.538 89.1008C129.939 89.0531 130.356 89.0444 130.789 89.0747C130.959 89.0866 131.128 89.1079 131.296 89.1386C131.464 89.1692 131.621 89.2275 131.766 89.3134C131.913 89.3804 132.028 89.4926 132.112 89.6499C132.197 89.7883 132.232 89.9611 132.217 90.1683C132.192 90.5261 132.039 90.8182 131.758 91.0446C131.479 91.2522 131.126 91.4262 130.7 91.5668C130.292 91.7086 129.841 91.8095 129.344 91.8694C128.849 91.9105 128.365 91.9428 127.89 91.9664C127.435 91.9724 127.01 91.9616 126.614 91.934C126.236 91.9265 125.953 91.9161 125.765 91.9029C124.56 91.8186 123.49 91.5545 122.556 91.1107C121.623 90.648 120.85 90.0545 120.239 89.3304C119.628 88.5874 119.178 87.7232 118.887 86.7376C118.617 85.7345 118.523 84.6397 118.606 83.4532ZM121.729 81.8263C121.683 82.4855 121.734 82.9717 121.883 83.2849C122.05 83.5994 122.482 83.781 123.179 83.8298C123.669 83.864 124.155 83.8129 124.637 83.6763C125.122 83.5209 125.563 83.2963 125.962 83.0024C126.38 82.7099 126.717 82.355 126.974 81.9376C127.23 81.5202 127.376 81.0573 127.412 80.5487C127.431 80.2662 127.423 79.9723 127.388 79.667C127.372 79.3631 127.296 79.0834 127.163 78.828C127.031 78.5538 126.847 78.3328 126.613 78.165C126.399 77.9797 126.104 77.8738 125.727 77.8475C125.162 77.808 124.635 77.9036 124.145 78.1343C123.676 78.3475 123.267 78.6501 122.918 79.0421C122.57 79.4152 122.294 79.8501 122.088 80.3468C121.885 80.8246 121.765 81.3178 121.729 81.8263ZM133.447 80.2328C133.469 79.9126 133.556 79.6253 133.706 79.3708C133.875 79.1177 134.139 79.0036 134.497 79.0287C134.515 79.03 134.543 79.0414 134.579 79.0628C134.617 79.0655 134.655 79.0681 134.692 79.0707C134.73 79.0734 134.768 79.076 134.805 79.0786C134.859 79.1203 134.956 79.2217 135.096 79.3829C135.255 79.5454 135.351 79.6657 135.383 79.7436C135.432 79.8606 135.528 80.1133 135.671 80.5019C135.833 80.8917 136.018 81.3495 136.228 81.8751C136.457 82.3833 136.684 82.9291 136.908 83.5125C137.152 84.0785 137.379 84.6243 137.588 85.1499C137.816 85.6769 138.002 86.1346 138.145 86.5232C138.308 86.8942 138.424 87.1389 138.491 87.2571C138.506 87.3149 138.583 87.4339 138.722 87.6139C138.881 87.7765 138.996 87.8792 139.069 87.9221C139.238 87.669 139.417 87.284 139.604 86.7672C139.792 86.2504 139.983 85.6865 140.177 85.0755C140.391 84.447 140.606 83.8091 140.822 83.1617C141.039 82.4956 141.269 81.906 141.514 81.3932C141.778 80.8628 142.054 80.4373 142.341 80.1167C142.63 79.7773 142.944 79.6195 143.283 79.6432C143.772 79.6775 144.221 79.8981 144.627 80.3051C145.053 80.7134 145.443 81.2327 145.796 81.863C146.168 82.4947 146.507 83.1997 146.812 83.9781C147.137 84.739 147.434 85.4979 147.703 86.2548C147.992 86.9943 148.256 87.6846 148.495 88.3259C148.754 88.9497 149.012 89.4503 149.27 89.828C149.501 89.7684 149.702 89.5933 149.874 89.3025C150.046 89.0116 150.181 88.7088 150.278 88.3939C150.396 88.0614 150.484 87.7553 150.541 87.4754C150.6 87.1767 150.642 86.9809 150.668 86.8881C150.701 86.6822 150.752 86.364 150.82 85.9335C150.889 85.4841 150.962 84.9782 151.04 84.4158C151.136 83.8547 151.224 83.2742 151.303 82.6741C151.383 82.0741 151.462 81.4928 151.539 80.9304C151.635 80.3694 151.708 79.8729 151.757 79.441C151.826 78.9917 151.868 78.6728 151.881 78.4844C151.918 78.4871 152.013 78.4843 152.165 78.476C152.319 78.4488 152.423 78.4372 152.48 78.4412C152.744 78.4596 152.977 78.5044 153.18 78.5753C153.383 78.6463 153.53 78.8553 153.619 79.2022C153.61 79.3341 153.593 79.5695 153.57 79.9085C153.565 80.2488 153.548 80.6167 153.521 81.0123C153.513 81.3903 153.497 81.7582 153.472 82.116C153.467 82.4564 153.46 82.6925 153.451 82.8243C153.429 83.1256 153.397 83.5965 153.352 84.2368C153.327 84.8597 153.269 85.5559 153.177 86.3255C153.104 87.0963 152.992 87.8834 152.841 88.6867C152.692 89.4711 152.49 90.1951 152.235 90.8587C152.001 91.5047 151.699 92.0324 151.329 92.4419C150.961 92.8326 150.523 93.0101 150.015 92.9745C149.431 92.9337 148.894 92.7542 148.406 92.4361C147.917 92.1181 147.463 91.7078 147.044 91.2053C146.644 90.7042 146.266 90.1572 145.91 89.5646C145.555 88.953 145.229 88.3435 144.93 87.7359C144.652 87.1108 144.391 86.5247 144.145 85.9776C143.92 85.413 143.717 84.9351 143.536 84.5439C143.361 84.8724 143.19 85.2863 143.023 85.7856C142.874 86.2862 142.704 86.8326 142.511 87.4247C142.319 87.998 142.108 88.5795 141.878 89.169C141.648 89.7397 141.394 90.2613 141.115 90.7338C140.856 91.1889 140.556 91.5559 140.215 91.8348C139.892 92.1151 139.533 92.2414 139.138 92.2137C138.949 92.2006 138.779 92.1981 138.627 92.2064C138.477 92.1959 138.336 92.1766 138.205 92.1485C138.076 92.1016 137.958 92.0272 137.852 91.9251C137.746 91.823 137.653 91.6651 137.573 91.4513L133.464 80.8017C133.465 80.7829 133.461 80.7069 133.451 80.5738C133.443 80.4218 133.442 80.3081 133.447 80.2328ZM159.353 92.918C159.669 92.7319 160.046 92.4932 160.482 92.202C160.939 91.8933 161.397 91.5658 161.857 91.2194C162.317 90.873 162.749 90.5058 163.155 90.1178C163.561 89.7298 163.88 89.3547 164.114 88.9925C164.367 88.6128 164.506 88.2535 164.53 87.9144C164.554 87.5754 164.404 87.2811 164.081 87.0313C163.478 86.9892 162.817 86.9713 162.097 86.9778C161.379 86.9654 160.662 86.9342 159.946 86.8841C159.232 86.8152 158.54 86.7005 157.869 86.5401C157.218 86.381 156.639 86.1323 156.133 85.7941C155.627 85.4559 155.233 85.0025 154.951 84.4339C154.689 83.8478 154.588 83.1215 154.649 82.2552C154.72 81.2381 154.973 80.3378 155.406 79.5543C155.86 78.7533 156.428 78.0644 157.112 77.4877C157.797 76.8921 158.552 76.3865 159.376 75.971C160.22 75.538 161.059 75.1803 161.893 74.8979C162.373 75.064 162.809 75.331 163.199 75.699C163.59 76.067 163.921 76.4688 164.194 76.9042C164.033 77.3093 163.747 77.611 163.335 77.8094C162.943 78.0091 162.486 78.1759 161.966 78.3098C161.464 78.445 160.934 78.5877 160.375 78.7379C159.815 78.888 159.298 79.1074 158.824 79.3959C158.37 79.667 157.974 80.0462 157.637 80.5337C157.301 81.0023 157.105 81.6415 157.048 82.4514C157.006 83.0541 157.126 83.5072 157.408 83.8108C157.689 84.1144 158.071 84.3398 158.553 84.4871C159.036 84.6155 159.589 84.692 160.211 84.7167C160.836 84.7225 161.47 84.7195 162.114 84.7078C162.777 84.6974 163.42 84.7139 164.041 84.7574C164.664 84.7821 165.214 84.8963 165.692 85.1C166.171 85.2849 166.54 85.5662 166.797 85.9438C167.073 86.3227 167.187 86.8606 167.138 87.5575C167.117 87.8588 166.987 88.2377 166.747 88.6941C166.525 89.1517 166.226 89.6418 165.849 90.1643C165.492 90.6692 165.069 91.1696 164.58 91.6653C164.11 92.1624 163.614 92.6104 163.094 93.0093C162.595 93.3907 162.09 93.7056 161.58 93.9538C161.091 94.1846 160.639 94.2855 160.225 94.2565C159.829 94.2288 159.576 94.0691 159.464 93.7774C159.37 93.487 159.334 93.2005 159.353 92.918ZM168.967 78.7995C169.005 78.2533 169.005 77.7233 168.965 77.2095C168.926 76.6769 168.94 76.2141 169.005 75.8213C169.072 75.4095 169.236 75.0898 169.498 74.8621C169.779 74.6357 170.258 74.5462 170.936 74.5936C171.113 75.0413 171.265 75.7143 171.391 76.6127C171.536 77.5124 171.663 78.5433 171.771 79.7053C171.879 80.8674 171.97 82.1324 172.045 83.5003C172.121 84.8494 172.177 86.2065 172.214 87.5718C172.27 88.9384 172.298 90.2842 172.3 91.6092C172.322 92.9166 172.324 94.1091 172.305 95.1866C171.655 95.5575 171.154 95.5508 170.802 95.1666C170.45 94.7824 170.182 94.158 169.996 93.2933C169.812 92.4099 169.697 91.3514 169.651 90.1179C169.606 88.8657 169.564 87.5757 169.524 86.2481C169.505 84.903 169.455 83.5841 169.375 82.2916C169.297 80.9802 169.161 79.8161 168.967 78.7995ZM173.732 87.3089C173.803 86.2919 173.996 85.2834 174.313 84.2835C174.629 83.2836 175.079 82.3971 175.663 81.6241C176.266 80.8525 177.009 80.242 177.892 79.7928C178.794 79.3449 179.857 79.1637 181.081 79.2493C181.778 79.2981 182.381 79.4727 182.89 79.7733C183.4 80.055 183.819 80.4156 184.148 80.855C184.477 81.2943 184.706 81.8025 184.836 82.3794C184.987 82.9387 185.04 83.5197 184.998 84.1224C184.931 85.083 184.64 85.9995 184.124 86.8719C183.628 87.7456 182.979 88.5046 182.176 89.1487C181.394 89.7754 180.511 90.234 179.525 90.5247C178.541 90.7965 177.556 90.8034 176.571 90.5452C176.552 91.0927 176.7 91.5478 177.015 91.9106C177.35 92.2558 177.757 92.5303 178.235 92.734C178.713 92.9378 179.213 93.0863 179.737 93.1797C180.261 93.2543 180.731 93.3061 181.145 93.335C181.578 93.3653 181.986 93.356 182.368 93.307C182.75 93.258 183.133 93.1996 183.516 93.1318C183.899 93.064 184.282 93.0056 184.664 92.9566C185.064 92.9089 185.481 92.9002 185.915 92.9305C186.084 92.9424 186.253 92.9636 186.421 92.9943C186.589 93.025 186.746 93.0833 186.892 93.1692C187.038 93.2362 187.153 93.3484 187.237 93.5056C187.322 93.6441 187.357 93.8169 187.343 94.024C187.318 94.3819 187.165 94.674 186.884 94.9004C186.604 95.108 186.252 95.282 185.825 95.4225C185.418 95.5644 184.966 95.6653 184.47 95.7252C183.975 95.7663 183.49 95.7986 183.015 95.8222C182.561 95.8282 182.135 95.8174 181.74 95.7897C181.362 95.7822 181.079 95.7719 180.89 95.7587C179.685 95.6744 178.615 95.4103 177.681 94.9664C176.748 94.5037 175.976 93.9103 175.364 93.1862C174.754 92.4432 174.303 91.5789 174.013 90.5934C173.742 89.5903 173.649 88.4955 173.732 87.3089ZM176.855 85.6821C176.809 86.3413 176.86 86.8274 177.008 87.1407C177.175 87.4552 177.608 87.6368 178.304 87.6855C178.794 87.7198 179.28 87.6686 179.763 87.5321C180.247 87.3767 180.689 87.152 181.088 86.8582C181.506 86.5657 181.843 86.2107 182.099 85.7934C182.355 85.376 182.501 84.913 182.537 84.4045C182.557 84.122 182.549 83.8281 182.514 83.5228C182.497 83.2188 182.422 82.9391 182.288 82.6838C182.156 82.4095 181.973 82.1885 181.739 82.0207C181.525 81.8354 181.229 81.7296 180.852 81.7032C180.287 81.6637 179.76 81.7593 179.271 81.9901C178.802 82.2033 178.393 82.5059 178.043 82.8979C177.696 83.271 177.419 83.7059 177.214 84.2025C177.01 84.6804 176.89 85.1735 176.855 85.6821ZM188.723 81.9415C188.727 81.885 188.739 81.8385 188.761 81.8022C188.764 81.7645 188.776 81.7181 188.799 81.6629C188.881 81.574 189.003 81.4595 189.164 81.3193C189.325 81.1792 189.424 81.1105 189.462 81.1131L195.141 81.5103C195.155 81.3031 195.15 80.9715 195.125 80.5156C195.1 80.0596 195.079 79.5565 195.06 79.0064C195.061 78.4576 195.091 77.8919 195.151 77.3093C195.212 76.708 195.325 76.1765 195.49 75.7148C195.675 75.2357 195.928 74.856 196.251 74.5757C196.593 74.2779 197.047 74.1488 197.612 74.1883C197.479 76.0906 197.504 77.6253 197.687 78.7927C197.87 79.96 198.157 80.8696 198.547 81.5214C198.955 82.1745 199.435 82.615 199.987 82.8429C200.539 83.0708 201.107 83.1957 201.693 83.2177C202.298 83.2222 202.888 83.1689 203.464 83.0577C204.04 82.9466 204.546 82.8779 204.983 82.8517C205.439 82.8268 205.794 82.8989 206.047 83.068C206.301 83.2183 206.41 83.5571 206.373 84.0845C206.345 84.48 206.231 84.7559 206.031 84.9122C205.85 85.0699 205.502 85.178 204.986 85.2366C204.834 85.2449 204.578 85.2648 204.216 85.2963C203.874 85.3102 203.485 85.3209 203.05 85.3283C202.614 85.3356 202.149 85.3504 201.655 85.3727C201.163 85.3761 200.699 85.3815 200.263 85.3889C199.827 85.3962 199.43 85.3968 199.071 85.3906C198.713 85.3656 198.449 85.3472 198.28 85.3353C198.273 85.4295 198.252 85.5889 198.218 85.8136C198.183 86.0383 198.163 86.1883 198.158 86.2636C198.1 87.0923 198.175 87.9114 198.383 88.7209C198.593 89.5115 198.821 90.3035 199.069 91.0968C199.335 91.8914 199.573 92.684 199.782 93.4746C199.992 94.2653 200.068 95.0749 200.01 95.9036C199.999 96.0543 199.969 96.2131 199.919 96.38C199.89 96.5293 199.824 96.6666 199.72 96.7919C199.637 96.8996 199.509 96.9758 199.335 97.0204C199.179 97.0852 198.963 97.0607 198.687 96.9467C197.985 96.7083 197.476 96.2659 197.162 95.6193C196.867 94.9741 196.664 94.2218 196.554 93.3624C196.445 92.4841 196.396 91.5628 196.406 90.5983C196.417 89.6338 196.386 88.7326 196.312 87.8947C196.258 87.0392 196.12 86.3104 195.897 85.7081C195.676 85.0869 195.278 84.69 194.703 84.5173L189.338 82.8929C189.262 82.8876 189.154 82.8044 189.014 82.6432C188.876 82.4631 188.79 82.3341 188.758 82.2562C188.741 82.2172 188.735 82.1694 188.739 82.1129C188.723 82.074 188.718 82.0168 188.723 81.9415ZM206.29 83.1702C206.294 83.1137 206.307 83.0673 206.328 83.0309C206.331 82.9932 206.343 82.9468 206.366 82.8916C206.448 82.8027 206.57 82.6882 206.731 82.5481C206.892 82.4079 206.992 82.3392 207.029 82.3418L212.708 82.739C212.722 82.5318 212.717 82.2003 212.692 81.7443C212.667 81.2883 212.646 80.7853 212.627 80.2351C212.628 79.6863 212.658 79.1206 212.718 78.5381C212.779 77.9367 212.892 77.4052 213.057 76.9436C213.242 76.4644 213.495 76.0847 213.818 75.8044C214.16 75.5067 214.614 75.3775 215.179 75.4171C215.046 77.3193 215.071 78.8541 215.254 80.0214C215.438 81.1887 215.724 82.0983 216.114 82.7501C216.522 83.4033 217.002 83.8438 217.554 84.0716C218.106 84.2995 218.675 84.4244 219.26 84.4464C219.865 84.4509 220.456 84.3976 221.031 84.2864C221.607 84.1753 222.113 84.1066 222.55 84.0804C223.006 84.0555 223.361 84.1276 223.614 84.2968C223.868 84.447 223.977 84.7859 223.94 85.3132C223.912 85.7087 223.798 85.9846 223.598 86.141C223.417 86.2986 223.069 86.4068 222.554 86.4654C222.402 86.4737 222.145 86.4935 221.783 86.525C221.441 86.539 221.052 86.5496 220.617 86.557C220.181 86.5644 219.716 86.5792 219.222 86.6014C218.73 86.6048 218.266 86.6102 217.83 86.6176C217.394 86.625 216.997 86.6256 216.638 86.6194C216.28 86.5943 216.016 86.5759 215.847 86.564C215.84 86.6582 215.819 86.8176 215.785 87.0423C215.75 87.267 215.73 87.417 215.725 87.4924C215.667 88.3211 215.742 89.1402 215.95 89.9496C216.16 90.7403 216.388 91.5322 216.636 92.3255C216.902 93.1201 217.14 93.9127 217.349 94.7034C217.559 95.494 217.635 96.3037 217.577 97.1324C217.566 97.2831 217.536 97.4418 217.487 97.6087C217.457 97.7581 217.391 97.8954 217.287 98.0206C217.204 98.1283 217.076 98.2045 216.902 98.2492C216.746 98.314 216.53 98.2894 216.254 98.1755C215.552 97.9371 215.044 97.4946 214.729 96.848C214.434 96.2028 214.231 95.4505 214.121 94.5911C214.012 93.7129 213.963 92.7915 213.974 91.827C213.984 90.8625 213.953 89.9613 213.879 89.1234C213.825 88.268 213.687 87.5391 213.464 86.9368C213.243 86.3157 212.845 85.9188 212.27 85.7461L206.905 84.1216C206.829 84.1164 206.722 84.0331 206.581 83.8719C206.443 83.6919 206.357 83.5629 206.325 83.4849C206.308 83.4459 206.302 83.3982 206.306 83.3417C206.29 83.3027 206.285 83.2455 206.29 83.1702ZM224.031 90.8272C224.103 89.8101 224.296 88.8016 224.612 87.8017C224.928 86.8018 225.378 85.9154 225.962 85.1424C226.565 84.3707 227.308 83.7603 228.191 83.311C229.093 82.8631 230.157 82.682 231.381 82.7676C232.078 82.8163 232.681 82.991 233.189 83.2915C233.7 83.5733 234.119 83.9338 234.448 84.3732C234.777 84.8126 235.006 85.3207 235.136 85.8976C235.286 86.457 235.34 87.038 235.298 87.6407C235.231 88.6012 234.94 89.5177 234.424 90.3901C233.928 91.2639 233.278 92.0228 232.476 92.667C231.694 93.2936 230.81 93.7523 229.825 94.0429C228.841 94.3148 227.856 94.3216 226.871 94.0634C226.851 94.611 226.999 95.0661 227.315 95.4288C227.65 95.774 228.057 96.0485 228.535 96.2522C229.012 96.456 229.513 96.6046 230.036 96.698C230.561 96.7725 231.031 96.8243 231.445 96.8533C231.878 96.8836 232.286 96.8742 232.668 96.8252C233.05 96.7762 233.432 96.7178 233.816 96.65C234.199 96.5822 234.582 96.5238 234.963 96.4748C235.364 96.4271 235.781 96.4184 236.214 96.4487C236.384 96.4606 236.553 96.4819 236.721 96.5126C236.889 96.5433 237.046 96.6015 237.191 96.6874C237.338 96.7545 237.453 96.8666 237.537 97.0239C237.622 97.1623 237.657 97.3351 237.643 97.5423C237.617 97.9001 237.465 98.1922 237.184 98.4186C236.904 98.6262 236.551 98.8002 236.125 98.9408C235.718 99.0826 235.266 99.1835 234.77 99.2434C234.275 99.2845 233.79 99.3168 233.315 99.3404C232.86 99.3464 232.435 99.3356 232.04 99.308C231.662 99.3005 231.379 99.2901 231.19 99.2769C229.985 99.1926 228.915 98.9285 227.981 98.4847C227.048 98.022 226.276 97.4286 225.664 96.7044C225.054 95.9614 224.603 95.0972 224.312 94.1116C224.042 93.1085 223.948 92.0137 224.031 90.8272ZM227.155 89.2003C227.108 89.8595 227.16 90.3457 227.308 90.6589C227.475 90.9734 227.907 91.155 228.604 91.2038C229.094 91.238 229.58 91.1869 230.063 91.0503C230.547 90.8949 230.988 90.6703 231.387 90.3764C231.805 90.0839 232.143 89.729 232.399 89.3116C232.655 88.8942 232.801 88.4313 232.837 87.9228C232.857 87.6402 232.849 87.3463 232.813 87.041C232.797 86.7371 232.722 86.4574 232.588 86.202C232.456 85.9278 232.273 85.7068 232.038 85.539C231.824 85.3537 231.529 85.2478 231.152 85.2215C230.587 85.182 230.06 85.2776 229.571 85.5083C229.102 85.7215 228.692 86.0241 228.343 86.4161C227.995 86.7892 227.719 87.2241 227.514 87.7208C227.31 88.1986 227.19 88.6918 227.155 89.2003ZM239.478 87.8763C239.49 87.7068 239.511 87.5379 239.542 87.3697C239.574 87.1827 239.623 87.0252 239.688 86.8973C239.755 86.7506 239.849 86.6341 239.968 86.5479C240.107 86.4629 240.289 86.4283 240.515 86.4442C240.703 86.4573 240.9 86.6225 241.105 86.9396C241.33 87.2393 241.549 87.6237 241.762 88.0928C241.977 88.5431 242.179 89.0399 242.368 89.583C242.576 90.1275 242.749 90.6317 242.886 91.0956C243.044 91.5419 243.169 91.9291 243.259 92.2572C243.35 92.5853 243.404 92.7594 243.421 92.7796C243.712 92.1375 244.036 91.4409 244.391 90.6898C244.747 89.9387 245.164 89.2487 245.643 88.6198C246.143 87.9734 246.71 87.4452 247.344 87.0354C247.997 86.6268 248.766 86.4535 249.652 86.5154C250.104 86.547 250.522 86.652 250.907 86.8304C251.312 86.9912 251.656 87.2234 251.937 87.527C252.239 87.813 252.471 88.151 252.633 88.5409C252.795 88.9307 252.858 89.3705 252.824 89.8602C252.795 90.2745 252.605 90.5546 252.254 90.7004C251.922 90.8475 251.549 90.9066 251.135 90.8776L250.852 90.8578L249.722 89.5581C249.685 89.5554 249.657 89.544 249.64 89.5239C249.602 89.5212 249.564 89.5186 249.527 89.516C249.509 89.4958 249.482 89.4844 249.444 89.4818C248.785 89.4357 248.254 89.5878 247.85 89.9381C247.468 90.271 247.163 90.7039 246.936 91.2369C246.711 91.7511 246.549 92.3075 246.45 92.9063C246.372 93.4875 246.315 94.0229 246.281 94.5126C246.255 94.8893 246.265 95.278 246.313 95.6788C246.362 96.0608 246.42 96.4434 246.488 96.8267C246.557 97.1911 246.616 97.5737 246.663 97.9745C246.712 98.3564 246.722 98.7546 246.693 99.1689C246.638 99.96 246.186 100.326 245.339 100.267C244.868 100.234 244.395 99.9545 243.921 99.4293C243.448 98.8852 242.985 98.2093 242.53 97.4015C242.094 96.5951 241.683 95.7146 241.296 94.7601C240.909 93.7868 240.578 92.8457 240.301 91.9367C240.024 91.0278 239.807 90.2083 239.65 89.4781C239.511 88.7492 239.454 88.2153 239.478 87.8763Z" fill="#37B6FF"/>
<path d="M1.80056 15.6772C1.8055 15.6208 1.81902 15.5746 1.84112 15.5386C1.84441 15.501 1.85793 15.4548 1.88168 15.4C1.96514 15.3125 2.08869 15.2002 2.25233 15.0628C2.41596 14.9255 2.51659 14.8585 2.5542 14.8618L8.22494 15.3578C8.24305 15.1509 8.24364 14.8193 8.22672 14.3629C8.2098 13.9066 8.197 13.4033 8.18831 12.8529C8.19843 12.3041 8.2384 11.7391 8.30824 11.1577C8.37972 10.5574 8.50187 10.028 8.67468 9.56929C8.86794 9.09343 9.12821 8.7182 9.45548 8.44358C9.80321 8.15181 10.2592 8.03059 10.8235 8.07994C10.6572 9.97958 10.6555 11.5146 10.8184 12.6849C10.9813 13.8552 11.2519 14.7697 11.6302 15.4282C12.0273 16.0883 12.4997 16.5371 13.0475 16.7746C13.5953 17.012 14.1616 17.1468 14.7463 17.179C15.3514 17.194 15.9427 17.151 16.5201 17.0498C17.0976 16.9487 17.605 16.8889 18.0426 16.8703C18.4989 16.8533 18.8522 16.9316 19.1023 17.1051C19.3541 17.2598 19.457 17.6005 19.4109 18.1271C19.3763 18.5221 19.2576 18.796 19.0547 18.9488C18.8706 19.1033 18.5205 19.2053 18.0044 19.2549C17.8523 19.2606 17.5951 19.276 17.2328 19.3012C16.891 19.3092 16.5021 19.3131 16.0662 19.3128C15.6303 19.3126 15.1654 19.3193 14.6715 19.333C14.1792 19.3279 13.7151 19.3252 13.2792 19.3249C12.8433 19.3247 12.4458 19.3184 12.0868 19.306C11.7295 19.2747 11.4662 19.2517 11.2969 19.2369C11.2887 19.3309 11.2653 19.49 11.2267 19.714C11.1881 19.9381 11.1656 20.0877 11.159 20.1629C11.0866 20.9905 11.1474 21.8108 11.3416 22.6238C11.5374 23.4179 11.7521 24.2137 11.9855 25.0112C12.2378 25.8103 12.4618 26.607 12.6577 27.4011C12.8535 28.1953 12.9152 29.0062 12.8428 29.8337C12.8296 29.9842 12.7968 30.1424 12.7444 30.3084C12.7124 30.4572 12.6436 30.5934 12.538 30.7168C12.4529 30.8231 12.3233 30.897 12.1491 30.9386C11.992 31.0007 11.7765 30.9724 11.5026 30.8537C10.8044 30.6031 10.3037 30.1518 10.0007 29.4999C9.71646 28.8496 9.52674 28.0939 9.43154 27.2327C9.33798 26.3527 9.30496 25.4306 9.33249 24.4665C9.36001 23.5023 9.34416 22.6007 9.28492 21.7616C9.24615 20.9054 9.12061 20.1742 8.90832 19.5681C8.69768 18.9432 8.30659 18.5394 7.73505 18.3568L2.39865 16.6392C2.32342 16.6326 2.21715 16.5475 2.07985 16.3839C1.9442 16.2015 1.86086 16.071 1.82982 15.9925C1.81431 15.9532 1.80902 15.9054 1.81396 15.8489C1.79844 15.8097 1.79398 15.7524 1.80056 15.6772ZM21.1429 13.2183C21.161 13.0114 21.202 12.7592 21.266 12.4615C21.3504 12.1467 21.4614 11.8532 21.5989 11.5809C21.7553 11.3103 21.9357 11.0892 22.1402 10.9176C22.3464 10.7271 22.6 10.645 22.9009 10.6714C22.9197 10.673 22.9659 10.6865 23.0395 10.7119C23.1131 10.7373 23.1593 10.7508 23.1781 10.7525C23.3958 11.9465 23.4827 13.1197 23.4387 14.272C23.3947 15.4242 23.2779 16.5416 23.0884 17.6243C22.9006 18.6882 22.6681 19.7197 22.3912 20.7189C22.1158 21.6993 21.8753 22.6069 21.6696 23.4418C21.4827 24.2783 21.3408 25.0334 21.2439 25.7072C21.1658 26.3827 21.2191 26.9654 21.4036 27.4553C21.3923 27.1511 21.3954 26.7913 21.4128 26.3759C21.4507 25.9433 21.527 25.5046 21.6417 25.0597C21.7752 24.6166 21.9558 24.1775 22.1834 23.7425C22.4298 23.3092 22.7567 22.9304 23.1642 22.6059C23.5716 22.2814 24.0759 22.0413 24.6771 21.8854C25.2971 21.7311 26.049 21.6926 26.933 21.77C27.8547 21.8506 28.6306 22.0795 29.2609 22.4568C29.91 22.8358 30.4262 23.3263 30.8094 23.9284C31.1943 24.5117 31.4572 25.1885 31.5983 25.959C31.7598 26.7122 31.8035 27.512 31.7294 28.3584C31.6949 28.7534 31.646 29.204 31.5827 29.7102C31.5399 30.1992 31.4338 30.6542 31.2642 31.0753C31.1152 31.4792 30.8676 31.8176 30.5215 32.0906C30.1959 32.3464 29.7321 32.448 29.1303 32.3954C29.1566 32.0944 29.2108 31.6917 29.2929 31.1872C29.3766 30.6638 29.4439 30.1106 29.495 29.5276C29.5648 28.9461 29.5979 28.352 29.5941 27.7452C29.6092 27.1401 29.5338 26.5934 29.3681 26.1051C29.204 25.5979 28.947 25.1775 28.5972 24.8436C28.2678 24.4926 27.7834 24.2892 27.1439 24.2332C26.9182 24.2135 26.6344 24.2076 26.2926 24.2156C25.9712 24.2065 25.6346 24.2623 25.2829 24.3832C24.9312 24.5041 24.5815 24.7104 24.2337 25.0022C23.8877 25.2751 23.5967 25.6761 23.3609 26.2051C23.1267 26.7153 22.9546 27.3825 22.8446 28.2068C22.755 29.0139 22.7712 30.0198 22.8932 31.2244C22.7319 31.5515 22.5453 31.7342 22.3335 31.7725C22.1405 31.8125 21.8935 31.8193 21.5926 31.793C20.9907 31.7403 20.5104 31.4899 20.1516 31.0415C19.8133 30.576 19.572 29.9769 19.4276 29.2441C19.2833 28.5113 19.2147 27.6714 19.2217 26.7244C19.2476 25.779 19.3144 24.7993 19.4221 23.7853C19.5314 22.7525 19.6698 21.7128 19.8372 20.6661C20.0251 19.6022 20.1978 18.6034 20.3553 17.6696C20.5333 16.7186 20.6937 15.8608 20.8364 15.0962C20.9996 14.3145 21.1017 13.6885 21.1429 13.2183ZM32.5763 24.7936C32.6652 23.778 32.8763 22.773 33.2097 21.7788C33.5431 20.7845 34.0085 19.906 34.6059 19.1433C35.2221 18.3823 35.9757 17.7849 36.8665 17.351C37.7761 16.9189 38.8422 16.7563 40.0647 16.8632C40.7607 16.9241 41.3604 17.1092 41.864 17.4186C42.3692 17.7091 42.7824 18.0769 43.1036 18.522C43.4247 18.967 43.6452 19.4791 43.7651 20.0581C43.9055 20.62 43.9493 21.2019 43.8967 21.8037C43.8127 22.763 43.5055 23.6742 42.9751 24.5376C42.4635 25.4025 41.8011 26.1501 40.9878 26.7802C40.1951 27.3931 39.3034 27.8363 38.3129 28.1098C37.324 28.3644 36.3394 28.3541 35.359 28.0789C35.3301 28.626 35.4701 29.0836 35.779 29.4517C36.1084 29.8027 36.5102 30.0843 36.9844 30.2963C37.4586 30.5083 37.9566 30.6656 38.4783 30.7681C39.0016 30.8518 39.4702 30.9117 39.8839 30.9479C40.3165 30.9857 40.7242 30.9835 41.107 30.9411C41.4897 30.8988 41.8733 30.8471 42.2577 30.7859C42.6421 30.7248 43.0257 30.673 43.4084 30.6307C43.81 30.59 44.2271 30.5886 44.6597 30.6264C44.8289 30.6412 44.9974 30.6654 45.165 30.6991C45.3326 30.7327 45.4884 30.7937 45.6323 30.8821C45.7778 30.9517 45.891 31.0658 45.9719 31.2245C46.0544 31.3644 46.0866 31.5378 46.0685 31.7446C46.0372 32.102 45.8792 32.3914 45.5945 32.6129C45.3114 32.8156 44.9556 32.9834 44.527 33.1165C44.1172 33.2513 43.6637 33.3443 43.1665 33.3955C42.6708 33.428 42.1855 33.4519 41.7103 33.4672C41.2556 33.4653 40.8308 33.4471 40.4358 33.4126C40.058 33.3985 39.7751 33.3832 39.587 33.3668C38.3832 33.2615 37.3182 32.9788 36.3919 32.5188C35.4672 32.0399 34.7054 31.4331 34.1064 30.6984C33.509 29.945 33.0736 29.073 32.8001 28.0825C32.5472 27.0749 32.4726 25.9786 32.5763 24.7936ZM35.7273 23.2214C35.6697 23.8797 35.7123 24.3667 35.8553 24.6824C36.017 24.9998 36.4459 25.1889 37.1418 25.2498C37.6308 25.2926 38.1178 25.2499 38.6028 25.1217C39.0895 24.9748 39.5349 24.7579 39.9391 24.471C40.362 24.1858 40.7053 23.8368 40.9689 23.424C41.2324 23.0111 41.3864 22.5508 41.4309 22.0429C41.4556 21.7608 41.4529 21.4668 41.4228 21.161C41.4115 20.8567 41.3413 20.5758 41.2122 20.3181C41.0848 20.0416 40.9054 19.8175 40.6741 19.6456C40.4632 19.4566 40.1697 19.3457 39.7935 19.3128C39.2293 19.2634 38.7005 19.3498 38.2073 19.572C37.7345 19.777 37.3201 20.0725 36.9641 20.4583C36.6098 20.8253 36.3258 21.2553 36.1121 21.7483C35.9 22.2225 35.7717 22.7136 35.7273 23.2214Z" fill="#37B6FF"/>
<path d="M44.0543 63.3183C42.5084 63.3183 40.8725 63.157 39.1468 62.8342C37.4211 62.5115 35.8752 61.9557 34.509 61.1668C33.9337 60.8083 33.5203 60.3959 33.2686 59.9297C33.0529 59.4277 32.963 58.9436 32.999 58.4775C33.0709 57.9755 33.2506 57.5452 33.5383 57.1866C33.8618 56.828 34.2573 56.595 34.7247 56.4874C35.228 56.3798 35.7673 56.4694 36.3425 56.7563C37.7806 57.4376 39.1288 57.9217 40.3872 58.2086C41.6455 58.4596 42.8859 58.5851 44.1082 58.5851C45.8339 58.5851 47.1102 58.2982 47.9372 57.7245C48.8 57.1149 49.2314 56.326 49.2314 55.3578C49.2314 54.5331 48.9438 53.9056 48.3686 53.4753C47.8293 53.0091 47.0024 52.6685 45.8879 52.4533L40.495 51.4314C38.266 51.0011 36.5583 50.1943 35.3718 49.011C34.2214 47.7918 33.6461 46.232 33.6461 44.3315C33.6461 42.6103 34.1135 41.1222 35.0483 39.8672C36.019 38.6121 37.3492 37.644 39.039 36.9627C40.7287 36.2814 42.6701 35.9407 44.8632 35.9407C46.4451 35.9407 47.9192 36.12 49.2854 36.4786C50.6875 36.8013 52.0357 37.3213 53.33 38.0384C53.8693 38.3253 54.2288 38.7018 54.4086 39.1679C54.6243 39.6341 54.6782 40.1182 54.5703 40.6202C54.4625 41.0864 54.2468 41.5166 53.9232 41.9111C53.5996 42.2697 53.1862 42.5027 52.6828 42.6103C52.2155 42.682 51.6762 42.5745 51.065 42.2876C49.9505 41.7139 48.8719 41.3015 47.8293 41.0505C46.8226 40.7995 45.8519 40.674 44.9172 40.674C43.1555 40.674 41.8432 40.9788 40.9804 41.5884C40.1535 42.198 39.74 43.0048 39.74 44.0088C39.74 44.7618 39.9917 45.3893 40.495 45.8913C40.9984 46.3933 41.7713 46.734 42.8139 46.9133L48.2068 47.9352C50.5437 48.3655 52.3054 49.1544 53.4918 50.3019C54.7142 51.4493 55.3253 52.9912 55.3253 54.9276C55.3253 57.5452 54.3007 59.607 52.2514 61.1131C50.2021 62.5832 47.4698 63.3183 44.0543 63.3183Z" fill="#37B6FF"/>
<path d="M63.1139 63.157C62.0353 63.157 61.2084 62.8342 60.6332 62.1888C60.058 61.5434 59.7703 60.6469 59.7703 59.4995V39.7596C59.7703 38.5763 60.058 37.6798 60.6332 37.0703C61.2084 36.4248 62.0353 36.1021 63.1139 36.1021C64.1925 36.1021 65.0194 36.4248 65.5946 37.0703C66.2058 37.6798 66.5114 38.5763 66.5114 39.7596V59.4995C66.5114 60.6469 66.2238 61.5434 65.6485 62.1888C65.0733 62.8342 64.2284 63.157 63.1139 63.157ZM63.1139 31.0999C61.8556 31.0999 60.8669 30.7951 60.1478 30.1855C59.4648 29.5401 59.1232 28.6615 59.1232 27.5499C59.1232 26.4025 59.4648 25.524 60.1478 24.9144C60.8669 24.3048 61.8556 24 63.1139 24C64.4082 24 65.3969 24.3048 66.08 24.9144C66.7631 25.524 67.1046 26.4025 67.1046 27.5499C67.1046 28.6615 66.7631 29.5401 66.08 30.1855C65.3969 30.7951 64.4082 31.0999 63.1139 31.0999Z" fill="#37B6FF"/>
<path d="M87.7606 63.3183C85.5315 63.3183 83.5721 62.7625 81.8824 61.6509C80.2286 60.5393 79.132 59.0512 78.5928 57.1866L79.186 55.8419V59.7684C79.186 60.88 78.8983 61.7406 78.3231 62.3502C77.7479 62.9239 76.9389 63.2108 75.8963 63.2108C74.8178 63.2108 73.9909 62.9239 73.4156 62.3502C72.8404 61.7406 72.5528 60.88 72.5528 59.7684V27.8189C72.5528 26.7073 72.8404 25.8646 73.4156 25.2909C73.9909 24.7172 74.8178 24.4303 75.8963 24.4303C76.9749 24.4303 77.8018 24.7172 78.377 25.2909C78.9882 25.8646 79.2938 26.7073 79.2938 27.8189V41.8035H78.6467C79.2219 40.0465 80.3364 38.6301 81.9902 37.5543C83.644 36.4786 85.5675 35.9407 87.7606 35.9407C90.0975 35.9407 92.1288 36.4965 93.8545 37.6081C95.5802 38.7197 96.9284 40.2975 97.8991 42.3414C98.8698 44.3494 99.3552 46.7698 99.3552 49.6026C99.3552 52.3996 98.8698 54.8379 97.8991 56.9177C96.9284 58.9616 95.5622 60.5393 93.8006 61.6509C92.0749 62.7625 90.0615 63.3183 87.7606 63.3183ZM85.8731 58.2086C87.2033 58.2086 88.3718 57.8858 89.3784 57.2404C90.3851 56.595 91.1581 55.6447 91.6974 54.3897C92.2726 53.0988 92.5602 51.5031 92.5602 49.6026C92.5602 46.734 91.949 44.6004 90.7266 43.202C89.5043 41.7677 87.8864 41.0505 85.8731 41.0505C84.5429 41.0505 83.3744 41.3732 82.3677 42.0187C81.3611 42.6282 80.5701 43.5785 79.9949 44.8694C79.4556 46.1244 79.186 47.7022 79.186 49.6026C79.186 52.4354 79.7971 54.5869 81.0195 56.0571C82.2419 57.4914 83.8598 58.2086 85.8731 58.2086Z" fill="#37B6FF"/>
<path d="M106.951 63.332C104.713 63.332 103.106 61.9663 103.106 59.34V28.3231C103.106 25.6968 104.713 24.3049 106.951 24.3049C109.215 24.3049 110.795 25.6968 110.795 28.3231V59.34C110.795 61.9663 109.215 63.332 106.951 63.332Z" fill="#37B6FF"/>
<path d="M119.367 63.157C118.289 63.157 117.462 62.8342 116.886 62.1888C116.311 61.5434 116.024 60.6469 116.024 59.4995V39.7596C116.024 38.5763 116.311 37.6798 116.886 37.0703C117.462 36.4248 118.289 36.1021 119.367 36.1021C120.446 36.1021 121.273 36.4248 121.848 37.0703C122.459 37.6798 122.765 38.5763 122.765 39.7596V59.4995C122.765 60.6469 122.477 61.5434 121.902 62.1888C121.326 62.8342 120.482 63.157 119.367 63.157ZM119.367 31.0999C118.109 31.0999 117.12 30.7951 116.401 30.1855C115.718 29.5401 115.376 28.6615 115.376 27.5499C115.376 26.4025 115.718 25.524 116.401 24.9144C117.12 24.3048 118.109 24 119.367 24C120.661 24 121.65 24.3048 122.333 24.9144C123.016 25.524 123.358 26.4025 123.358 27.5499C123.358 28.6615 123.016 29.5401 122.333 30.1855C121.65 30.7951 120.661 31.0999 119.367 31.0999Z" fill="#37B6FF"/>
<path d="M132.15 63.2108C131.071 63.2108 130.244 62.9239 129.669 62.3502C129.094 61.7406 128.806 60.88 128.806 59.7684V39.4369C128.806 38.3253 129.094 37.4826 129.669 36.9089C130.244 36.3352 131.053 36.0483 132.096 36.0483C133.138 36.0483 133.947 36.3352 134.522 36.9089C135.098 37.4826 135.385 38.3253 135.385 39.4369V43.0944L134.792 41.7497C135.583 39.8492 136.805 38.4149 138.459 37.4468C140.149 36.4427 142.054 35.9407 144.176 35.9407C146.297 35.9407 148.04 36.3352 149.407 37.124C150.773 37.9129 151.797 39.1142 152.481 40.7278C153.164 42.3055 153.505 44.3136 153.505 46.7519V59.7684C153.505 60.88 153.218 61.7406 152.642 62.3502C152.067 62.9239 151.24 63.2108 150.162 63.2108C149.083 63.2108 148.238 62.9239 147.627 62.3502C147.052 61.7406 146.764 60.88 146.764 59.7684V47.0746C146.764 45.0307 146.369 43.5426 145.578 42.6103C144.823 41.678 143.636 41.2119 142.018 41.2119C140.041 41.2119 138.459 41.8394 137.273 43.0944C136.122 44.3136 135.547 45.9451 135.547 47.989V59.7684C135.547 62.0633 134.415 63.2108 132.15 63.2108Z" fill="#37B6FF"/>
<path d="M171.685 73C169.743 73 167.856 72.8207 166.022 72.4621C164.225 72.1035 162.589 71.5477 161.115 70.7947C160.432 70.4361 159.964 70.0059 159.713 69.5038C159.497 69.0018 159.425 68.4819 159.497 67.944C159.605 67.442 159.82 66.9938 160.144 66.5993C160.503 66.2049 160.935 65.936 161.438 65.7925C161.942 65.6491 162.463 65.7208 163.002 66.0077C164.584 66.7966 166.076 67.2986 167.478 67.5137C168.916 67.7647 170.139 67.8902 171.145 67.8902C173.554 67.8902 175.352 67.2986 176.538 66.1153C177.761 64.9678 178.372 63.2466 178.372 60.9517V56.1109H178.857C178.318 57.9396 177.185 59.4098 175.46 60.5214C173.77 61.5971 171.846 62.135 169.689 62.135C167.316 62.135 165.249 61.5971 163.488 60.5214C161.726 59.4098 160.36 57.8679 159.389 55.8957C158.418 53.9235 157.933 51.6286 157.933 49.011C157.933 47.0388 158.203 45.2638 158.742 43.6861C159.317 42.0724 160.108 40.6919 161.115 39.5445C162.157 38.397 163.398 37.5185 164.836 36.9089C166.31 36.2634 167.928 35.9407 169.689 35.9407C171.918 35.9407 173.86 36.4965 175.514 37.6081C177.203 38.6839 178.3 40.1182 178.803 41.9111L178.264 43.2558V39.4369C178.264 38.3253 178.552 37.4826 179.127 36.9089C179.738 36.3352 180.565 36.0483 181.607 36.0483C182.686 36.0483 183.513 36.3352 184.088 36.9089C184.663 37.4826 184.951 38.3253 184.951 39.4369V60.1449C184.951 64.412 183.819 67.6213 181.554 69.7728C179.289 71.9243 175.999 73 171.685 73ZM171.523 57.0252C172.925 57.0252 174.129 56.7025 175.136 56.0571C176.143 55.4116 176.916 54.4973 177.455 53.3139C178.03 52.0948 178.318 50.6604 178.318 49.011C178.318 46.5368 177.707 44.6004 176.484 43.202C175.262 41.7677 173.608 41.0505 171.523 41.0505C170.121 41.0505 168.916 41.3732 167.91 42.0187C166.903 42.6641 166.112 43.5785 165.537 44.7618C164.998 45.9451 164.728 47.3615 164.728 49.011C164.728 51.4852 165.339 53.4394 166.561 54.8738C167.784 56.3081 169.438 57.0252 171.523 57.0252Z" fill="#37B6FF"/>
</svg>
