<svg width="154" height="72" viewBox="0 0 154 72" fill="none" xmlns="http://www.w3.org/2000/svg">
<path d="M23.9917 49.1964C22.6185 49.1964 21.1652 49.0523 19.6323 48.7646C18.0989 48.4783 16.7258 47.9839 15.5132 47.2815C15.0013 46.9612 14.6414 46.586 14.4338 46.1552C14.227 45.7235 14.1474 45.2926 14.1952 44.8618C14.2427 44.4301 14.4024 44.0549 14.674 43.7355C14.9456 43.4165 15.2964 43.2094 15.7273 43.114C16.1591 43.0179 16.63 43.0975 17.141 43.3525C18.4189 43.9596 19.6166 44.3831 20.7343 44.6233C21.8521 44.8627 22.9532 44.9819 24.0387 44.9819C25.5716 44.9819 26.7133 44.7186 27.4632 44.1916C28.214 43.665 28.5896 42.9704 28.5896 42.1079C28.5896 41.3733 28.3415 40.8066 27.8462 40.4071C27.3518 40.008 26.6093 39.7125 25.6195 39.5211L20.8301 38.6106C18.8497 38.2277 17.3403 37.5013 16.3018 36.4312C15.2642 35.3614 14.7454 33.9801 14.7454 32.2881C14.7454 30.7553 15.1685 29.4297 16.0146 28.3121C16.8615 27.1945 18.0358 26.3328 19.5366 25.7271C21.0373 25.1204 22.7617 24.8166 24.7107 24.8166C26.1148 24.8166 27.4319 24.9681 28.661 25.271C29.891 25.5739 31.0814 26.0452 32.2317 26.6845C32.7096 26.9399 33.0365 27.2755 33.2119 27.6907C33.3882 28.105 33.4282 28.528 33.332 28.9597C33.2367 29.3905 33.0452 29.7735 32.7575 30.1086C32.4707 30.4442 32.1116 30.6517 31.6799 30.7318C31.249 30.8119 30.7624 30.724 30.2192 30.4672C29.229 29.9567 28.2789 29.5899 27.3692 29.367C26.4591 29.1433 25.5886 29.0311 24.7577 29.0311C23.193 29.0311 22.0353 29.3026 21.2845 29.8458C20.5346 30.388 20.1598 31.1061 20.1598 32.0009C20.1598 32.6719 20.3831 33.2307 20.8301 33.6772C21.2767 34.1242 21.9635 34.4275 22.8897 34.5877L27.6808 35.4981C29.7561 35.8811 31.3286 36.5839 32.3989 37.6062C33.4687 38.6276 34.0041 40.0006 34.0041 41.7249C34.0041 44.0554 33.0935 45.8832 31.2725 47.2084C29.4523 48.534 27.0254 49.1964 23.9917 49.1964Z" fill="#37B6FF"/>
<path d="M39.0343 49.0536C38.0755 49.0536 37.3408 48.7664 36.8303 48.1919C36.3193 47.6166 36.0642 46.818 36.0642 45.7966V28.2164C36.0642 27.1628 36.3193 26.3568 36.8303 25.7984C37.3408 25.2392 38.0755 24.9594 39.0343 24.9594C39.9919 24.9594 40.734 25.2392 41.2611 25.7984C41.7877 26.3568 42.0515 27.1628 42.0515 28.2164V45.7966C42.0515 46.818 41.796 47.6166 41.2854 48.1919C40.7745 48.7664 40.0241 49.0536 39.0343 49.0536ZM39.0343 20.5047C37.9153 20.5047 37.0444 20.2257 36.4211 19.6674C35.7987 19.1081 35.488 18.3335 35.488 17.3434C35.488 16.3224 35.7987 15.5399 36.4211 14.9968C37.0444 14.4537 37.9153 14.1821 39.0343 14.1821C40.1834 14.1821 41.0613 14.4537 41.6684 14.9968C42.2752 15.5399 42.579 16.3224 42.579 17.3434C42.579 18.3335 42.2752 19.1081 41.6684 19.6674C41.0613 20.2257 40.1834 20.5047 39.0343 20.5047Z" fill="#37B6FF"/>
<path d="M59.0575 49.1964C57.0772 49.1964 55.3445 48.7015 53.859 47.7115C52.3744 46.7218 51.3925 45.3962 50.9133 43.7355L51.4408 42.5378V46.0351C51.4408 47.0252 51.1848 47.7837 50.673 48.3103C50.162 48.8369 49.4443 49.1006 48.5194 49.1006C47.5606 49.1006 46.8259 48.8369 46.3153 48.3103C45.8044 47.7837 45.5493 47.0252 45.5493 46.0351V17.5836C45.5493 16.594 45.8044 15.8437 46.3153 15.3328C46.8259 14.821 47.5606 14.5651 48.5194 14.5651C49.4769 14.5651 50.219 14.821 50.7461 15.3328C51.2728 15.8437 51.5365 16.594 51.5365 17.5836V30.0372H50.962C51.4725 28.4718 52.4627 27.2102 53.9321 26.2528C55.4015 25.2953 57.1098 24.8166 59.0575 24.8166C61.1336 24.8166 62.9382 25.3119 64.4702 26.3015C66.0032 27.2916 67.2009 28.689 68.0636 30.4933C68.9258 32.2968 69.3571 34.4602 69.3571 36.983C69.3571 39.4736 68.9258 41.637 68.0636 43.4726C67.2009 45.3087 65.9953 46.7218 64.4459 47.7115C62.8973 48.7015 61.1014 49.1964 59.0575 49.1964ZM57.381 44.6459C58.5622 44.6459 59.5998 44.3587 60.4938 43.7843C61.3887 43.2098 62.0833 42.3559 62.5778 41.2218C63.0731 40.0881 63.3212 38.675 63.3212 36.983C63.3212 34.4275 62.778 32.5196 61.6916 31.2593C60.6061 29.9981 59.1694 29.367 57.381 29.367C56.1993 29.367 55.1612 29.6469 54.2664 30.2061C53.3724 30.7645 52.6777 31.6105 52.1824 32.7442C51.688 33.877 51.4408 35.2901 51.4408 36.983C51.4408 39.505 51.9831 41.4129 53.0686 42.7067C54.1549 43.9997 55.5921 44.6459 57.381 44.6459Z" fill="#37B6FF"/>
<path d="M75.2018 49.1006C74.2117 49.1006 73.453 48.8212 72.9264 48.2633C72.3993 47.7041 72.136 46.9294 72.136 45.9393V17.7264C72.136 16.7054 72.3993 15.9229 72.9264 15.3798C73.453 14.8367 74.2117 14.5651 75.2018 14.5651C76.1916 14.5651 76.9502 14.8367 77.4773 15.3798C78.0039 15.9229 78.2677 16.7054 78.2677 17.7264V45.9393C78.2677 46.9294 78.0118 47.7041 77.4999 48.2633C76.989 48.8212 76.2229 49.1006 75.2018 49.1006Z" fill="#37B6FF"/>
<path d="M85.3101 49.0536C84.3512 49.0536 83.6165 48.7664 83.106 48.1919C82.595 47.6166 82.34 46.818 82.34 45.7966V28.2164C82.34 27.1628 82.595 26.3568 83.106 25.7984C83.6165 25.2392 84.3512 24.9594 85.3101 24.9594C86.2676 24.9594 87.0097 25.2392 87.5368 25.7984C88.0634 26.3568 88.3272 27.1628 88.3272 28.2164V45.7966C88.3272 46.818 88.0717 47.6166 87.5611 48.1919C87.0502 48.7664 86.2998 49.0536 85.3101 49.0536ZM85.3101 20.5047C84.191 20.5047 83.3201 20.2257 82.6969 19.6674C82.0745 19.1081 81.7637 18.3335 81.7637 17.3434C81.7637 16.3224 82.0745 15.5399 82.6969 14.9968C83.3201 14.4537 84.191 14.1821 85.3101 14.1821C86.4591 14.1821 87.337 14.4537 87.9442 14.9968C88.5509 15.5399 88.8547 16.3224 88.8547 17.3434C88.8547 18.3335 88.5509 19.1081 87.9442 19.6674C87.337 20.2257 86.4591 20.5047 85.3101 20.5047Z" fill="#37B6FF"/>
<path d="M94.7951 49.1006C93.8363 49.1006 93.1016 48.8369 92.5911 48.3103C92.0801 47.7837 91.825 47.0252 91.825 46.0351V27.9291C91.825 26.9395 92.0801 26.1892 92.5911 25.6783C93.1016 25.1678 93.8202 24.9124 94.7464 24.9124C95.6726 24.9124 96.3907 25.1678 96.9017 25.6783C97.4122 26.1892 97.6677 26.9395 97.6677 27.9291V31.1862L97.142 29.9885C97.844 28.2965 98.9373 27.0118 100.422 26.1344C101.907 25.2562 103.593 24.8166 105.478 24.8166C107.361 24.8166 108.91 25.1678 110.123 25.8698C111.337 26.5722 112.247 27.6341 112.854 29.0554C113.461 30.4759 113.765 32.272 113.765 34.4432V46.0351C113.765 47.0252 113.509 47.7837 112.997 48.3103C112.486 48.8369 111.752 49.1006 110.795 49.1006C109.836 49.1006 109.093 48.8369 108.566 48.3103C108.039 47.7837 107.776 47.0252 107.776 46.0351V34.7304C107.776 32.9109 107.432 31.5861 106.745 30.7562C106.059 29.9254 104.998 29.5098 103.561 29.5098C101.805 29.5098 100.407 30.0612 99.3687 31.1635C98.331 32.265 97.8122 33.7255 97.8122 35.5451V46.0351C97.8122 48.0788 96.8064 49.1006 94.7951 49.1006Z" fill="#37B6FF"/>
<path d="M128.04 57.8185C126.315 57.8185 124.646 57.6588 123.033 57.3398C121.421 57.0203 119.96 56.5255 118.651 55.8549C118.044 55.5354 117.636 55.152 117.429 54.7042C117.222 54.2573 117.158 53.8025 117.237 53.3394C117.317 52.8764 117.509 52.469 117.812 52.1174C118.115 51.7666 118.491 51.5277 118.938 51.4002C119.385 51.2723 119.848 51.3362 120.327 51.5917C121.733 52.2937 123.066 52.7484 124.328 52.9565C125.589 53.1641 126.667 53.2681 127.561 53.2681C129.701 53.2681 131.306 52.7484 132.375 51.7101C133.445 50.6726 133.98 49.132 133.98 47.0883V42.7781H134.412C133.932 44.4066 132.934 45.7078 131.417 46.6827C129.9 47.6566 128.183 48.1432 126.267 48.1432C124.16 48.1432 122.323 47.6566 120.757 46.6827C119.193 45.7078 117.979 44.3426 117.117 42.5866C116.256 40.831 115.825 38.7873 115.825 36.4555C115.825 34.6999 116.072 33.1115 116.567 31.691C117.062 30.2696 117.765 29.048 118.675 28.0266C119.585 27.0044 120.686 26.214 121.979 25.6557C123.273 25.0965 124.703 24.8166 126.267 24.8166C128.247 24.8166 129.98 25.3036 131.464 26.2771C132.95 27.2511 133.916 28.5362 134.363 30.133L133.884 31.3306V27.9291C133.884 26.9395 134.148 26.1892 134.675 25.6783C135.201 25.1678 135.928 24.9124 136.854 24.9124C137.813 24.9124 138.547 25.1678 139.058 25.6783C139.569 26.1892 139.824 26.9395 139.824 27.9291V46.3711C139.824 50.1703 138.818 53.0283 136.806 54.9444C134.794 56.8602 131.872 57.8185 128.04 57.8185ZM127.897 43.5928C129.142 43.5928 130.212 43.3055 131.106 42.7311C132 42.1557 132.695 41.3332 133.19 40.2644C133.685 39.1947 133.933 37.9248 133.933 36.4555C133.933 34.2517 133.39 32.5196 132.303 31.2593C131.218 29.9981 129.749 29.367 127.897 29.367C126.651 29.367 125.582 29.6543 124.687 30.2287C123.793 30.8032 123.098 31.6174 122.603 32.6711C122.108 33.7251 121.861 34.9863 121.861 36.4555C121.861 38.6594 122.403 40.4002 123.489 41.6779C124.575 42.9548 126.045 43.5928 127.897 43.5928Z" fill="#37B6FF"/>
</svg>
