<svg width="16" height="16" viewBox="0 0 16 16" fill="none" xmlns="http://www.w3.org/2000/svg">
<rect width="16" height="16" fill="#37B6FF"/>
<path d="M1.80764 9.75708C1.64695 9.75708 1.47688 9.74022 1.2975 9.70656C1.11806 9.67305 0.957369 9.61519 0.81547 9.533C0.755573 9.49551 0.713452 9.45162 0.689157 9.4012C0.664964 9.35068 0.655643 9.30026 0.661246 9.24984C0.666797 9.19932 0.68549 9.15542 0.717272 9.11804C0.749054 9.08071 0.790106 9.05647 0.840529 9.04532C0.891054 9.03406 0.946164 9.04338 1.00596 9.07323C1.1555 9.14427 1.29566 9.19382 1.42646 9.22193C1.55725 9.24994 1.68611 9.2639 1.81314 9.2639C1.99253 9.2639 2.12612 9.23309 2.21388 9.17141C2.30174 9.10979 2.34569 9.02851 2.34569 8.92757C2.34569 8.84161 2.31666 8.7753 2.2587 8.72855C2.20084 8.68185 2.11395 8.64727 1.99813 8.62486L1.43766 8.51832C1.20592 8.47351 1.02929 8.38851 0.90776 8.26328C0.786337 8.1381 0.725625 7.97646 0.725625 7.77845C0.725625 7.59908 0.775131 7.44396 0.874145 7.31318C0.97326 7.1824 1.11068 7.08156 1.28629 7.01067C1.46191 6.93968 1.6637 6.90413 1.89178 6.90413C2.05609 6.90413 2.21021 6.92185 2.35405 6.9573C2.49798 6.99274 2.63728 7.0479 2.7719 7.12271C2.82782 7.1526 2.86607 7.19187 2.8866 7.24045C2.90723 7.28894 2.91191 7.33844 2.90066 7.38896C2.8895 7.43938 2.86709 7.48419 2.83343 7.52341C2.79986 7.56267 2.75784 7.58696 2.70732 7.59633C2.65689 7.6057 2.59995 7.59542 2.53639 7.56537C2.42051 7.50563 2.30933 7.4627 2.20288 7.43663C2.09638 7.41045 1.99451 7.39731 1.89728 7.39731C1.71418 7.39731 1.5787 7.42909 1.49084 7.49265C1.40308 7.5561 1.35923 7.64013 1.35923 7.74484C1.35923 7.82337 1.38536 7.88876 1.43766 7.94101C1.48992 7.99331 1.57029 8.02881 1.67868 8.04755L2.23935 8.15409C2.48219 8.19891 2.66621 8.28115 2.79146 8.40078C2.91665 8.52031 2.9793 8.68098 2.9793 8.88276C2.9793 9.15547 2.87275 9.36937 2.65964 9.52444C2.44664 9.67957 2.16264 9.75708 1.80764 9.75708Z" fill="white"/>
<path d="M3.56795 9.74037C3.45574 9.74037 3.36977 9.70676 3.31003 9.63954C3.25023 9.57221 3.22038 9.47876 3.22038 9.35923V7.30197C3.22038 7.17868 3.25023 7.08436 3.31003 7.01902C3.36977 6.95358 3.45574 6.92083 3.56795 6.92083C3.68 6.92083 3.76684 6.95358 3.82852 7.01902C3.89015 7.08436 3.92101 7.17868 3.92101 7.30197V9.35923C3.92101 9.47876 3.89112 9.57221 3.83137 9.63954C3.77158 9.70676 3.68377 9.74037 3.56795 9.74037ZM3.56795 6.39954C3.437 6.39954 3.33508 6.3669 3.26215 6.30156C3.18931 6.23611 3.15295 6.14546 3.15295 6.0296C3.15295 5.91013 3.18931 5.81856 3.26215 5.755C3.33508 5.69145 3.437 5.65967 3.56795 5.65967C3.70241 5.65967 3.80514 5.69145 3.87619 5.755C3.94719 5.81856 3.98275 5.91013 3.98275 6.0296C3.98275 6.14546 3.94719 6.23611 3.87619 6.30156C3.80514 6.3669 3.70241 6.39954 3.56795 6.39954Z" fill="white"/>
<path d="M5.91109 9.75708C5.67934 9.75708 5.47658 9.69917 5.30275 9.58331C5.12901 9.4675 5.01411 9.31238 4.95803 9.11804L5.01976 8.97789V9.38714C5.01976 9.503 4.98982 9.59177 4.92992 9.65339C4.87012 9.71501 4.78614 9.74587 4.6779 9.74587C4.5657 9.74587 4.47972 9.71501 4.41998 9.65339C4.36018 9.59177 4.33034 9.503 4.33034 9.38714V6.05772C4.33034 5.94191 4.36018 5.85411 4.41998 5.79432C4.47972 5.73443 4.5657 5.70449 4.6779 5.70449C4.78995 5.70449 4.8768 5.73443 4.93848 5.79432C5.0001 5.85411 5.03097 5.94191 5.03097 6.05772V7.51505H4.96374C5.02348 7.33187 5.13935 7.18423 5.3113 7.07219C5.48325 6.96015 5.68316 6.90413 5.91109 6.90413C6.15404 6.90413 6.3652 6.96208 6.54449 7.07789C6.72387 7.19375 6.86404 7.35728 6.96499 7.56843C7.06589 7.77947 7.11636 8.03263 7.11636 8.32785C7.11636 8.61931 7.06589 8.87247 6.96499 9.08728C6.86404 9.30214 6.72296 9.4675 6.54163 9.58331C6.36042 9.69917 6.15027 9.75708 5.91109 9.75708ZM5.71489 9.22458C5.85313 9.22458 5.97455 9.19097 6.07916 9.12375C6.18388 9.05652 6.26517 8.9566 6.32303 8.82389C6.38099 8.69122 6.41002 8.52586 6.41002 8.32785C6.41002 8.02881 6.34646 7.80554 6.21933 7.65806C6.09231 7.51047 5.92418 7.43663 5.71489 7.43663C5.57661 7.43663 5.45514 7.46937 5.35042 7.53481C5.2458 7.60015 5.16451 7.69916 5.10655 7.83182C5.04869 7.96439 5.01976 8.12975 5.01976 8.32785C5.01976 8.62298 5.08323 8.84624 5.21025 8.99765C5.33738 9.14895 5.50556 9.22458 5.71489 9.22458Z" fill="white"/>
<path d="M7.80031 9.74587C7.68444 9.74587 7.59567 9.71318 7.53404 9.64789C7.47236 9.58245 7.44154 9.4918 7.44154 9.37594V6.07442C7.44154 5.95495 7.47236 5.86338 7.53404 5.79982C7.59567 5.73626 7.68444 5.70449 7.80031 5.70449C7.91614 5.70449 8.00491 5.73626 8.06659 5.79982C8.12822 5.86338 8.15908 5.95495 8.15908 6.07442V9.37594C8.15908 9.4918 8.12914 9.58245 8.06924 9.64789C8.00944 9.71318 7.9198 9.74587 7.80031 9.74587Z" fill="white"/>
<path d="M8.98319 9.74037C8.87099 9.74037 8.78501 9.70676 8.72527 9.63954C8.66547 9.57221 8.63563 9.47876 8.63563 9.35923V7.30197C8.63563 7.17868 8.66547 7.08436 8.72527 7.01902C8.78501 6.95358 8.87099 6.92083 8.98319 6.92083C9.09524 6.92083 9.18208 6.95358 9.24376 7.01902C9.30539 7.08436 9.33626 7.17868 9.33626 7.30197V9.35923C9.33626 9.47876 9.30636 9.57221 9.24662 9.63954C9.18682 9.70676 9.09901 9.74037 8.98319 9.74037ZM8.98319 6.39954C8.85224 6.39954 8.75033 6.3669 8.67739 6.30156C8.60456 6.23611 8.56819 6.14546 8.56819 6.0296C8.56819 5.91013 8.60456 5.81856 8.67739 5.755C8.75033 5.69145 8.85224 5.65967 8.98319 5.65967C9.11765 5.65967 9.22038 5.69145 9.29144 5.755C9.36244 5.81856 9.39799 5.91013 9.39799 6.0296C9.39799 6.14546 9.36244 6.23611 9.29144 6.30156C9.22038 6.3669 9.11765 6.39954 8.98319 6.39954Z" fill="white"/>
<path d="M10.0931 9.74587C9.98094 9.74587 9.89497 9.71501 9.83522 9.65339C9.77543 9.59177 9.74558 9.503 9.74558 9.38714V7.26836C9.74558 7.15255 9.77543 7.06475 9.83522 7.00497C9.89497 6.94523 9.97906 6.91533 10.0874 6.91533C10.1958 6.91533 10.2799 6.94523 10.3397 7.00497C10.3994 7.06475 10.4293 7.15255 10.4293 7.26836V7.6495L10.3678 7.50935C10.4499 7.31134 10.5779 7.16101 10.7516 7.05834C10.9254 6.95557 11.1226 6.90413 11.3432 6.90413C11.5637 6.90413 11.7448 6.94523 11.8868 7.02737C12.0288 7.10957 12.1354 7.23383 12.2064 7.40016C12.2774 7.56639 12.313 7.77657 12.313 8.03064V9.38714C12.313 9.503 12.283 9.59177 12.2232 9.65339C12.1634 9.71501 12.0775 9.74587 11.9654 9.74587C11.8532 9.74587 11.7663 9.71501 11.7047 9.65339C11.643 9.59177 11.6122 9.503 11.6122 9.38714V8.06425C11.6122 7.85133 11.5719 7.6963 11.4916 7.59919C11.4113 7.50197 11.2871 7.45333 11.1189 7.45333C10.9134 7.45333 10.7499 7.51785 10.6283 7.64685C10.5069 7.77575 10.4462 7.94666 10.4462 8.15959V9.38714C10.4462 9.6263 10.3285 9.74587 10.0931 9.74587Z" fill="white"/>
<path d="M13.9835 10.766C13.7816 10.766 13.5863 10.7474 13.3975 10.71C13.2089 10.6726 13.038 10.6147 12.8848 10.5363C12.8137 10.4989 12.766 10.454 12.7417 10.4016C12.7175 10.3493 12.7101 10.2961 12.7193 10.2419C12.7287 10.1877 12.7511 10.1401 12.7866 10.0989C12.8221 10.0579 12.8661 10.0299 12.9184 10.015C12.9706 10 13.0248 10.0075 13.0809 10.0374C13.2454 10.1195 13.4015 10.1727 13.5491 10.1971C13.6967 10.2214 13.8228 10.2336 13.9274 10.2336C14.1779 10.2336 14.3657 10.1727 14.4908 10.0512C14.616 9.92982 14.6786 9.74954 14.6786 9.51039V9.006H14.7291C14.673 9.19657 14.5562 9.34884 14.3787 9.46292C14.2012 9.5769 14.0003 9.63383 13.7761 9.63383C13.5294 9.63383 13.3145 9.5769 13.1313 9.46292C12.9482 9.34884 12.8062 9.18909 12.7053 8.98359C12.6045 8.77815 12.5541 8.539 12.5541 8.26613C12.5541 8.06069 12.583 7.8748 12.6409 7.70858C12.6988 7.54225 12.7811 7.3993 12.8876 7.27977C12.9941 7.16014 13.123 7.06766 13.2743 7.00232C13.4257 6.93688 13.593 6.90413 13.7761 6.90413C14.0078 6.90413 14.2105 6.96112 14.3842 7.07504C14.558 7.18902 14.6711 7.33941 14.7234 7.52626L14.6674 7.66641V7.26836C14.6674 7.15255 14.6982 7.06475 14.7599 7.00497C14.8215 6.94523 14.9066 6.91533 15.015 6.91533C15.1271 6.91533 15.2131 6.94523 15.2729 7.00497C15.3326 7.06475 15.3625 7.15255 15.3625 7.26836V9.42646C15.3625 9.87105 15.2448 10.2055 15.0093 10.4297C14.7738 10.6539 14.4319 10.766 13.9835 10.766ZM13.9668 9.10134C14.1125 9.10134 14.2376 9.06773 14.3422 9.0005C14.447 8.93318 14.5283 8.83692 14.5861 8.71185C14.6441 8.58667 14.6731 8.43806 14.6731 8.26613C14.6731 8.00823 14.6095 7.80554 14.4824 7.65806C14.3554 7.51047 14.1835 7.43663 13.9668 7.43663C13.821 7.43663 13.6958 7.47024 13.5911 7.53746C13.4865 7.60469 13.4052 7.69997 13.3472 7.82327C13.2894 7.94661 13.2604 8.0942 13.2604 8.26613C13.2604 8.52403 13.3239 8.72773 13.4509 8.87726C13.578 9.02668 13.75 9.10134 13.9668 9.10134Z" fill="white"/>
</svg>
