<svg width="113" height="40" viewBox="0 0 113 40" fill="none" xmlns="http://www.w3.org/2000/svg">
<path d="M9.32591 31.7306C8.10529 31.7306 6.81349 31.6026 5.45089 31.3469C4.0879 31.0923 2.86728 30.6529 1.78942 30.0285C1.33445 29.7438 1.0145 29.4104 0.829954 29.0274C0.646185 28.6436 0.575385 28.2607 0.617942 27.8777C0.660113 27.4939 0.802099 27.1605 1.04351 26.8765C1.28493 26.593 1.59676 26.4089 1.97977 26.3241C2.36356 26.2386 2.78217 26.3094 3.23637 26.5361C4.37226 27.0758 5.43696 27.4522 6.43048 27.6657C7.42399 27.8785 8.40281 27.9845 9.36769 27.9845C10.7303 27.9845 11.7451 27.7504 12.4117 27.2819C13.0791 26.8139 13.4129 26.1965 13.4129 25.4298C13.4129 24.7768 13.1924 24.2731 12.7521 23.918C12.3126 23.5632 11.6526 23.3006 10.7729 23.1304L6.51559 22.3211C4.75527 21.9807 3.41356 21.335 2.49046 20.3838C1.56813 19.4329 1.10696 18.2051 1.10696 16.7011C1.10696 15.3386 1.48301 14.1603 2.23511 13.1669C2.98799 12.1735 4.0318 11.4075 5.36577 10.869C6.69975 10.3298 8.23258 10.0598 9.96504 10.0598C11.2131 10.0598 12.3838 10.1944 13.4764 10.4636C14.5697 10.7329 15.6278 11.1518 16.6504 11.7201C17.0752 11.9472 17.3657 12.2454 17.5216 12.6145C17.6783 12.9827 17.7139 13.3587 17.6284 13.7425C17.5437 14.1255 17.3735 14.4659 17.1177 14.7637C16.8628 15.062 16.5436 15.2465 16.1598 15.3177C15.7768 15.3889 15.3443 15.3107 14.8614 15.0825C13.9813 14.6287 13.1367 14.3026 12.3281 14.1046C11.5191 13.9057 10.7454 13.8059 10.0068 13.8059C8.61598 13.8059 7.58687 14.0473 6.9195 14.5301C6.2529 15.0121 5.91979 15.6504 5.91979 16.4457C5.91979 17.0422 6.11826 17.539 6.51559 17.9359C6.91253 18.3331 7.52303 18.6028 8.34632 18.7451L12.6051 19.5544C14.4498 19.8948 15.8476 20.5196 16.7989 21.4283C17.7499 22.3362 18.2258 23.5567 18.2258 25.0893C18.2258 27.1609 17.4164 28.7856 15.7977 29.9635C14.1797 31.1419 12.0225 31.7306 9.32591 31.7306Z" fill="#37B6FF"/>
<path d="M22.6971 31.6037C21.8448 31.6037 21.1918 31.3484 20.738 30.8378C20.2838 30.3264 20.0571 29.6165 20.0571 28.7086V13.0817C20.0571 12.1452 20.2838 11.4288 20.738 10.9325C21.1918 10.4354 21.8448 10.1866 22.6971 10.1866C23.5483 10.1866 24.2079 10.4354 24.6764 10.9325C25.1446 11.4288 25.379 12.1452 25.379 13.0817V28.7086C25.379 29.6165 25.1519 30.3264 24.6981 30.8378C24.2439 31.3484 23.5769 31.6037 22.6971 31.6037ZM22.6971 6.22691C21.7025 6.22691 20.9283 5.97895 20.3743 5.48263C19.8211 4.98554 19.5448 4.29696 19.5448 3.41689C19.5448 2.50936 19.8211 1.81382 20.3743 1.33104C20.9283 0.848262 21.7025 0.606873 22.6971 0.606873C23.7185 0.606873 24.4989 0.848262 25.0386 1.33104C25.5779 1.81382 25.8479 2.50936 25.8479 3.41689C25.8479 4.29696 25.5779 4.98554 25.0386 5.48263C24.4989 5.97895 23.7185 6.22691 22.6971 6.22691Z" fill="#37B6FF"/>
<path d="M40.4955 31.7306C38.7352 31.7306 37.195 31.2908 35.8746 30.4107C34.5549 29.531 33.6821 28.3527 33.2562 26.8765L33.7251 25.812V28.9206C33.7251 29.8007 33.4976 30.4749 33.0426 30.943C32.5884 31.4111 31.9504 31.6455 31.1283 31.6455C30.276 31.6455 29.623 31.4111 29.1691 30.943C28.7149 30.4749 28.4882 29.8007 28.4882 28.9206V3.63044C28.4882 2.75076 28.7149 2.08385 29.1691 1.62969C29.623 1.17477 30.276 0.947305 31.1283 0.947305C31.9795 0.947305 32.6391 1.17477 33.1076 1.62969C33.5757 2.08385 33.8102 2.75076 33.8102 3.63044V14.7003H33.2995C33.7533 13.3088 34.6335 12.1874 35.9396 11.3363C37.2457 10.4853 38.7642 10.0598 40.4955 10.0598C42.341 10.0598 43.945 10.5 45.3068 11.3797C46.6694 12.2597 47.7341 13.5019 48.5009 15.1057C49.2673 16.7088 49.6507 18.6318 49.6507 20.8743C49.6507 23.0882 49.2673 25.0112 48.5009 26.6429C47.7341 28.275 46.6624 29.531 45.2851 30.4107C43.9086 31.2908 42.3123 31.7306 40.4955 31.7306ZM39.0053 27.6858C40.0553 27.6858 40.9776 27.4305 41.7722 26.9199C42.5677 26.4092 43.1851 25.6503 43.6246 24.6421C44.0649 23.6344 44.2854 22.3783 44.2854 20.8743C44.2854 18.6028 43.8026 16.9069 42.8369 15.7866C41.8721 14.6655 40.595 14.1046 39.0053 14.1046C37.9549 14.1046 37.0322 14.3533 36.2367 14.8504C35.4421 15.3467 34.8246 16.0987 34.3843 17.1065C33.9448 18.1134 33.7251 19.3695 33.7251 20.8743C33.7251 23.1161 34.2071 24.812 35.172 25.962C36.1377 27.1114 37.4152 27.6858 39.0053 27.6858Z" fill="#37B6FF"/>
<path d="M54.846 31.6455C53.9659 31.6455 53.2915 31.3972 52.8234 30.9012C52.3549 30.4042 52.1208 29.7156 52.1208 28.8355V3.75732C52.1208 2.84979 52.3549 2.15425 52.8234 1.67147C53.2915 1.18869 53.9659 0.947305 54.846 0.947305C55.7258 0.947305 56.4001 1.18869 56.8687 1.67147C57.3368 2.15425 57.5712 2.84979 57.5712 3.75732V28.8355C57.5712 29.7156 57.3437 30.4042 56.8888 30.9012C56.4346 31.3972 55.7537 31.6455 54.846 31.6455Z" fill="#37B6FF"/>
<path d="M63.8311 31.6037C62.9788 31.6037 62.3257 31.3484 61.8719 30.8378C61.4177 30.3264 61.191 29.6165 61.191 28.7086V13.0817C61.191 12.1452 61.4177 11.4288 61.8719 10.9325C62.3257 10.4354 62.9788 10.1866 63.8311 10.1866C64.6823 10.1866 65.3419 10.4354 65.8104 10.9325C66.2785 11.4288 66.513 12.1452 66.513 13.0817V28.7086C66.513 29.6165 66.2859 30.3264 65.8321 30.8378C65.3779 31.3484 64.7109 31.6037 63.8311 31.6037ZM63.8311 6.22691C62.8364 6.22691 62.0623 5.97895 61.5083 5.48263C60.955 4.98554 60.6788 4.29696 60.6788 3.41689C60.6788 2.50936 60.955 1.81382 61.5083 1.33104C62.0623 0.848262 62.8364 0.606873 63.8311 0.606873C64.8525 0.606873 65.6328 0.848262 66.1725 1.33104C66.7118 1.81382 66.9819 2.50936 66.9819 3.41689C66.9819 4.29696 66.7118 4.98554 66.1725 5.48263C65.6328 5.97895 64.8525 6.22691 63.8311 6.22691Z" fill="#37B6FF"/>
<path d="M72.2623 31.6455C71.41 31.6455 70.7569 31.4111 70.3031 30.943C69.8489 30.4749 69.6222 29.8007 69.6222 28.9206V12.8264C69.6222 11.9468 69.8489 11.2799 70.3031 10.8257C70.7569 10.3719 71.3957 10.1449 72.2189 10.1449C73.0422 10.1449 73.6806 10.3719 74.1348 10.8257C74.5886 11.2799 74.8157 11.9468 74.8157 12.8264V15.7216L74.3484 14.657C74.9724 13.1529 75.9442 12.011 77.2639 11.2311C78.5843 10.4505 80.0823 10.0598 81.7579 10.0598C83.4324 10.0598 84.8085 10.3719 85.8868 10.9959C86.9658 11.6203 87.7751 12.5642 88.3148 13.8276C88.8541 15.0902 89.1242 16.6867 89.1242 18.6167V28.9206C89.1242 29.8007 88.8967 30.4749 88.4417 30.943C87.9875 31.4111 87.3352 31.6455 86.4841 31.6455C85.6318 31.6455 84.9714 31.4111 84.5033 30.943C84.0348 30.4749 83.8007 29.8007 83.8007 28.9206V18.872C83.8007 17.2546 83.495 16.0771 82.8845 15.3394C82.2748 14.6009 81.3312 14.2315 80.0541 14.2315C78.493 14.2315 77.2507 14.7216 76.3276 15.7015C75.4053 16.6805 74.9441 17.9788 74.9441 19.5962V28.9206C74.9441 30.7372 74.0501 31.6455 72.2623 31.6455Z" fill="#37B6FF"/>
<path d="M101.813 39.3947C100.28 39.3947 98.7962 39.2528 97.3624 38.9692C95.9293 38.6853 94.631 38.2454 93.4672 37.6493C92.9275 37.3654 92.5654 37.0246 92.3809 36.6265C92.1971 36.2292 92.1402 35.825 92.2106 35.4134C92.2818 35.0018 92.452 34.6397 92.7213 34.3271C92.9914 34.0153 93.3252 33.8029 93.7226 33.6896C94.1195 33.5759 94.5312 33.6327 94.9575 33.8598C96.2067 34.4838 97.3922 34.888 98.5137 35.0729C99.6349 35.2575 100.593 35.3499 101.387 35.3499C103.29 35.3499 104.716 34.888 105.666 33.965C106.617 33.0428 107.093 31.6734 107.093 29.8568V26.0255H107.477C107.051 27.4731 106.164 28.6297 104.815 29.4962C103.467 30.362 101.941 30.7945 100.238 30.7945C98.364 30.7945 96.7314 30.362 95.3397 29.4962C93.9489 28.6297 92.8703 27.4162 92.1039 25.8553C91.3382 24.2948 90.9556 22.4781 90.9556 20.4055C90.9556 18.8449 91.1753 17.433 91.6148 16.1703C92.0551 14.9069 92.6799 13.821 93.4889 12.9131C94.2975 12.0044 95.2767 11.3019 96.4261 10.8056C97.5763 10.3085 98.8468 10.0598 100.238 10.0598C101.998 10.0598 103.537 10.4926 104.857 11.358C106.177 12.2237 107.036 13.3661 107.434 14.7854L107.008 15.85V12.8264C107.008 11.9468 107.242 11.2799 107.711 10.8257C108.179 10.3719 108.825 10.1449 109.648 10.1449C110.5 10.1449 111.153 10.3719 111.607 10.8257C112.061 11.2799 112.288 11.9468 112.288 12.8264V29.2193C112.288 32.5964 111.394 35.1368 109.605 36.84C107.817 38.5429 105.22 39.3947 101.813 39.3947ZM101.686 26.7497C102.793 26.7497 103.744 26.4943 104.538 25.9837C105.334 25.4723 105.951 24.7412 106.391 23.7911C106.831 22.8402 107.051 21.7114 107.051 20.4055C107.051 18.4465 106.569 16.9069 105.603 15.7866C104.638 14.6655 103.333 14.1046 101.686 14.1046C100.579 14.1046 99.6279 14.3599 98.8325 14.8705C98.0379 15.3811 97.4204 16.1049 96.9801 17.0415C96.5406 17.9784 96.3209 19.0995 96.3209 20.4055C96.3209 22.3644 96.8029 23.9118 97.7678 25.0476C98.7335 26.1825 100.04 26.7497 101.686 26.7497Z" fill="#37B6FF"/>
</svg>
