<svg width="16" height="16" viewBox="0 0 16 16" fill="none" xmlns="http://www.w3.org/2000/svg">
<path d="M15.4709 14.2109C15.5334 14.2891 15.5842 14.3711 15.6233 14.457C15.6624 14.543 15.6819 14.6406 15.6819 14.75C15.6819 14.9531 15.6077 15.1289 15.4592 15.2773C15.3108 15.4258 15.135 15.5 14.9319 15.5C14.8225 15.5 14.7249 15.4805 14.6389 15.4414C14.553 15.4023 14.4709 15.3516 14.3928 15.2891L8.18188 9.05469L1.97095 15.2891C1.89282 15.3516 1.81079 15.4023 1.72485 15.4414C1.63892 15.4805 1.54126 15.5 1.43188 15.5C1.22876 15.5 1.05298 15.4258 0.904541 15.2773C0.756104 15.1289 0.681885 14.9531 0.681885 14.75C0.681885 14.6406 0.701416 14.543 0.740479 14.457C0.779541 14.3711 0.830322 14.2891 0.892822 14.2109L7.1272 8L0.892822 1.78906C0.830322 1.71094 0.779541 1.62891 0.740479 1.54297C0.701416 1.45703 0.681885 1.35938 0.681885 1.25C0.681885 1.04688 0.756104 0.871094 0.904541 0.722656C1.05298 0.574219 1.22876 0.5 1.43188 0.5C1.54126 0.5 1.63892 0.519531 1.72485 0.558594C1.81079 0.597656 1.89282 0.648438 1.97095 0.710938L8.18188 6.94531L14.3928 0.710938C14.4709 0.648438 14.553 0.597656 14.6389 0.558594C14.7249 0.519531 14.8225 0.5 14.9319 0.5C15.135 0.5 15.3108 0.574219 15.4592 0.722656C15.6077 0.871094 15.6819 1.04688 15.6819 1.25C15.6819 1.35938 15.6624 1.45703 15.6233 1.54297C15.5842 1.62891 15.5334 1.71094 15.4709 1.78906L9.23657 8L15.4709 14.2109Z" fill="#0F1A20"/>
</svg>
