<svg width="198" height="92" viewBox="0 0 198 92" fill="none" xmlns="http://www.w3.org/2000/svg">
<path d="M10.4002 51.5239C9.77418 51.657 9.2681 51.5846 8.88194 51.3068C8.49579 51.029 8.26447 50.7102 8.188 50.3502C8.09822 49.9276 8.10831 49.5902 8.21827 49.3378C8.32822 49.0854 8.59849 48.8562 9.02908 48.6502C9.59719 48.3986 10.1821 48.1107 10.7839 47.7865C11.4013 47.4589 11.9858 47.1302 12.5373 46.8004C13.1011 46.4515 13.5866 46.1193 13.9939 45.8037C14.3979 45.4725 14.68 45.1835 14.8403 44.9368C14.5599 44.8492 14.1259 44.7697 13.5383 44.6983C12.9473 44.6113 12.287 44.5063 11.5576 44.3832C10.8404 44.2412 10.1367 44.0473 9.44657 43.8014C8.7564 43.5555 8.16249 43.2238 7.66483 42.8061C7.16718 42.3885 6.85018 41.8588 6.71386 41.2171C6.52434 40.325 6.57338 39.4395 6.86099 38.5605C7.14861 37.6815 7.59653 36.8256 8.20478 35.993C8.81302 35.1603 9.4955 34.3691 10.2522 33.6194C11.0246 32.8664 11.8008 32.1698 12.5808 31.5296C13.3731 30.8705 14.0832 30.2861 14.7109 29.7764C14.9438 29.5634 15.1725 29.4084 15.3973 29.3116C15.6344 29.1957 15.8547 29.1162 16.0582 29.0729C16.7624 28.9233 17.2842 28.9923 17.6234 29.28C17.9626 29.5678 18.1704 29.8917 18.2469 30.2516C18.3001 30.5021 18.2459 30.8244 18.0843 31.2186C17.9194 31.5971 17.6086 31.9822 17.152 32.3737C16.711 32.7618 16.0891 33.1067 15.2862 33.4082C15.1487 33.4538 15.0268 33.496 14.9206 33.535C14.3611 33.981 13.7679 34.4997 13.1411 35.0909C12.5143 35.6822 11.9316 36.2886 11.393 36.9102C10.8667 37.5127 10.45 38.092 10.1428 38.6481C9.83568 39.2041 9.722 39.6699 9.8018 40.0455C9.89157 40.4681 10.1452 40.8149 10.5626 41.086C10.9768 41.3415 11.4798 41.5536 12.0718 41.7222C12.6761 41.8718 13.3022 42.0086 13.9501 42.1326C14.6137 42.2533 15.2398 42.3901 15.8284 42.5431C16.4294 42.6771 16.9352 42.864 17.346 43.1038C17.7569 43.3436 18.0038 43.6592 18.0869 44.0504C18.2 44.5826 18.1281 45.1295 17.8712 45.6911C17.6143 46.2528 17.2412 46.8065 16.7519 47.3522C16.2593 47.8822 15.7036 48.3847 15.0848 48.8597C14.466 49.3347 13.8451 49.7612 13.222 50.139C12.6179 50.5291 12.0631 50.8433 11.5576 51.0816C11.052 51.3199 10.6663 51.4674 10.4002 51.5239ZM26.0737 55.1116C25.6355 55.2047 25.258 55.1214 24.9411 54.8616C24.6431 54.6142 24.4277 54.1774 24.2947 53.5514C24.1118 52.6906 23.9723 51.6489 23.8761 50.4261C23.7799 49.2034 23.7235 47.8986 23.7069 46.5118C23.6904 45.1249 23.7023 43.7565 23.7426 42.4066C23.8057 40.8556 23.8892 39.4393 23.9931 38.1577C24.1127 36.8728 24.2838 35.8304 24.5065 35.0306C24.7415 34.2119 25.0546 33.7609 25.4459 33.6778C25.8058 33.6013 26.1471 33.6678 26.4697 33.8773C26.8046 34.0678 27.0252 34.4135 27.1316 34.9143C27.2081 35.2743 27.2239 35.8107 27.1791 36.5236C27.1309 37.2208 27.0707 38.0924 26.9985 39.1383C27.3444 38.1487 27.7093 37.1715 28.0932 36.2066C28.4927 35.2384 28.9167 34.3468 29.3651 33.5317C29.8135 32.7167 30.2762 32.0458 30.7531 31.5191C31.2301 30.9925 31.719 30.6759 32.2198 30.5695C32.8145 30.443 33.3754 30.5038 33.9024 30.7516C34.445 30.9961 34.9126 31.3875 35.305 31.9256C35.6974 32.4638 35.9734 33.1085 36.133 33.8598C36.4289 35.2527 36.4661 36.6597 36.2446 38.0808C36.0198 39.4863 35.571 40.8003 34.8984 42.0228C34.2414 43.2421 33.3909 44.2816 32.3468 45.1415C31.2994 45.9857 30.0949 46.5525 28.7333 46.8419C28.342 46.9251 27.9737 46.9625 27.6285 46.9541C27.3022 46.958 26.996 46.9413 26.71 46.904C26.735 47.9455 26.7728 49.0089 26.8234 50.0941C26.893 51.1916 26.9664 52.3456 27.0436 53.556C27.0387 54.4567 26.7154 54.9752 26.0737 55.1116ZM33.0431 33.2897C32.6988 33.3629 32.3104 33.6908 31.8781 34.2734C31.4614 34.8527 31.0293 35.5907 30.5818 36.4873C30.1311 37.3683 29.6874 38.3214 29.251 39.3465C28.8268 40.3527 28.4228 41.3382 28.0389 42.3031C27.6707 43.2647 27.3575 44.1001 27.0992 44.8093C28.262 44.4312 29.2441 43.8953 30.0454 43.2016C30.8434 42.4922 31.4851 41.7015 31.9705 40.8295C32.4559 39.9575 32.8078 39.073 33.0261 38.176C33.2568 37.2601 33.3829 36.3908 33.4045 35.5684C33.426 34.7459 33.3753 34.0452 33.2523 33.4661C33.2224 33.3252 33.1526 33.2664 33.0431 33.2897ZM43.9883 44.36C43.4875 44.4664 43.0038 44.4221 42.537 44.2268C42.0736 44.0473 41.6779 43.7633 41.3501 43.375C41.0189 42.971 40.7984 42.5108 40.6887 41.9943C40.4826 41.024 40.4927 40.0322 40.7191 39.019C40.9611 38.0025 41.3461 37.0046 41.8742 36.0254C42.4022 35.0462 43.0078 34.1242 43.691 33.2592C44.3865 32.3753 45.0958 31.5948 45.8189 30.9177C46.5576 30.2372 47.2413 29.6829 47.8701 29.2549C48.5145 28.8234 49.0323 28.5662 49.4236 28.483C49.8775 28.3865 50.2669 28.4101 50.5918 28.5537C50.929 28.6783 51.1409 28.944 51.2273 29.3509C51.2539 29.4761 51.2443 29.5845 51.1983 29.6761C51.4117 29.6798 51.601 29.7622 51.7661 29.9234C51.9312 30.0846 52.0536 30.353 52.1334 30.7287C52.1667 30.8852 52.214 31.3004 52.2754 31.9744C52.3368 32.6483 52.4203 33.4648 52.5259 34.4238C52.6471 35.3795 52.8158 36.366 53.0319 37.3833C53.0652 37.5398 53.1186 37.6756 53.1921 37.7909C53.2624 37.8904 53.3757 37.9236 53.5322 37.8903C54.1583 37.7573 54.7655 37.4973 55.354 37.1105C55.9547 36.7048 56.5204 36.2492 57.051 35.7438C57.5939 35.2195 58.0758 34.7163 58.4968 34.2342C58.9302 33.7332 59.2924 33.3209 59.5835 32.9973C59.8869 32.6547 60.0934 32.4718 60.203 32.4485C60.7351 32.3354 61.0577 32.5449 61.1707 33.077C61.2007 33.2179 61.0917 33.5518 60.8438 34.0789C60.6082 34.587 60.2624 35.1921 59.8064 35.8942C59.347 36.5807 58.8172 37.2822 58.217 37.9987C57.6291 38.6961 56.99 39.3064 56.2996 39.8293C55.6249 40.349 54.9354 40.6836 54.2311 40.8333C53.3703 41.0163 52.6698 40.9526 52.1295 40.6421C51.6048 40.3283 51.1754 39.8471 50.8413 39.1984C50.5195 38.5307 50.2577 37.7603 50.0559 36.8872C49.5004 38.1993 48.8871 39.3929 48.2158 40.468C47.5569 41.5241 46.8676 42.3985 46.1478 43.0913C45.4281 43.7841 44.7083 44.207 43.9883 44.36ZM49.8 30.8321C48.4225 31.8937 47.2248 33.0315 46.2069 34.2457C45.1857 35.4442 44.4248 36.6365 43.9244 37.8224C43.4396 39.0051 43.2986 40.0737 43.5014 41.0284C43.5579 41.2945 43.7114 41.4009 43.9618 41.3477C44.2591 41.2845 44.6138 41.0292 45.0258 40.5817C45.4535 40.131 45.897 39.5623 46.3564 38.8758C46.8124 38.1737 47.2552 37.4089 47.6846 36.5815C48.1107 35.7385 48.4944 34.8882 48.8356 34.0305C49.1768 33.1728 49.4229 32.368 49.574 31.6162C49.6303 31.3425 49.7057 31.0811 49.8 30.8321ZM66.2019 39.393C65.3255 39.5793 64.5232 39.5372 63.7951 39.2666C63.0703 39.0118 62.4693 38.6079 61.992 38.0551C61.5113 37.4866 61.1995 36.8658 61.0566 36.1928C60.8172 35.066 60.7682 33.9886 60.9097 32.9608C61.0478 31.9172 61.3155 30.9443 61.7127 30.042C62.1065 29.1241 62.5673 28.2901 63.0949 27.54C63.6382 26.7865 64.1796 26.1398 64.7192 25.5999C65.2711 25.0409 65.7758 24.6065 66.2334 24.2966C66.6877 23.971 67.0322 23.7833 67.2669 23.7334C67.6895 23.6435 68.0068 23.6742 68.2188 23.8255C68.4432 23.9577 68.5986 24.2273 68.6851 24.6342C68.735 24.869 68.6227 25.1873 68.3482 25.5891C68.0893 25.9876 67.7309 26.4564 67.2729 26.9954C66.8306 27.5311 66.3686 28.1282 65.8869 28.7867C65.4053 29.4452 64.9604 30.1614 64.5523 30.9352C64.1598 31.7056 63.8745 32.5187 63.6965 33.3744C63.5341 34.2268 63.551 35.1147 63.7471 36.0381C63.8203 36.3824 63.9394 36.6351 64.1045 36.7963C64.2853 36.9542 64.5321 36.9999 64.8451 36.9333C65.7372 36.7437 66.6586 36.3843 67.6094 35.855C68.5725 35.3068 69.5112 34.682 70.4254 33.9806C71.3519 33.2602 72.2125 32.5375 73.0072 31.8125C73.8175 31.0841 74.5064 30.4387 75.074 29.8764C75.3001 29.6321 75.4955 29.4352 75.66 29.2857C75.8245 29.1362 75.9459 29.0532 76.0242 29.0365C76.4937 28.9367 76.78 29.1294 76.883 29.6146C76.9362 29.865 76.8199 30.2414 76.5341 30.7438C76.2122 31.3847 75.7372 32.0746 75.109 32.8133C74.4965 33.5487 73.7929 34.279 72.9982 35.0041C72.2192 35.7258 71.4051 36.3977 70.5558 37.0199C69.7222 37.6387 68.9251 38.1599 68.1645 38.5833C67.4039 39.0067 66.7497 39.2766 66.2019 39.393ZM81.123 36.3686C80.1527 36.5749 79.2987 36.4047 78.561 35.8581C77.82 35.2959 77.2882 34.2558 76.9657 32.7376C76.7596 31.7673 76.663 30.7737 76.6759 29.7567C76.7012 28.7209 76.8242 27.7214 77.0449 26.7585C77.278 25.7766 77.5952 24.8831 77.9967 24.0781C78.4138 23.2697 78.9173 22.5983 79.5071 22.064C80.0936 21.514 80.7468 21.1626 81.4668 21.0095C82.6875 20.7501 83.712 20.8758 84.5402 21.3868C85.3685 21.8977 85.8907 22.6618 86.1068 23.6791C86.2731 24.4617 86.2053 25.2204 85.9034 25.9552C85.6138 26.671 85.1544 27.3575 84.5253 28.0147C83.8961 28.6719 83.1709 29.3004 82.3496 29.9003C81.5283 30.5001 80.6753 31.0658 79.7904 31.5974C79.8319 32.1775 79.8992 32.6866 79.9923 33.1248C80.0488 33.3909 80.2257 33.4923 80.5231 33.4291C81.2273 33.2794 81.9553 33.0102 82.7069 32.6214C83.4709 32.2137 84.2293 31.7417 84.9823 31.2054C85.732 30.6535 86.4487 30.1004 87.1324 29.5461C87.8129 28.9762 88.4278 28.4447 88.9774 27.9517C89.5392 27.4397 90.0004 27.0309 90.3607 26.7253C90.7334 26.4007 90.9823 26.2251 91.1075 26.1985C91.4519 26.1253 91.7239 26.1738 91.9236 26.344C92.1233 26.5142 92.2481 26.7167 92.298 26.9514C92.3213 27.061 92.1615 27.3485 91.8188 27.8139C91.4917 28.276 91.023 28.8418 90.4128 29.5113C89.815 30.1618 89.1282 30.8558 88.3525 31.5932C87.5891 32.3116 86.7816 33.0149 85.93 33.7029C85.0907 34.3721 84.255 34.9423 83.4228 35.4136C82.6095 35.8973 81.843 36.2156 81.123 36.3686ZM79.7456 29.4232C80.3075 28.9112 80.8582 28.3852 81.3978 27.8452C81.9497 27.2863 82.382 26.7037 82.6949 26.0974C83.0044 25.4754 83.0843 24.8123 82.9347 24.108C82.8915 23.9046 82.8084 23.7832 82.6856 23.7439C82.5594 23.6889 82.3946 23.683 82.1911 23.7263C81.6434 23.8427 81.1941 24.1918 80.8433 24.7734C80.5082 25.3517 80.2499 26.0609 80.0685 26.901C79.8995 27.7221 79.7918 28.5628 79.7456 29.4232ZM101.567 31.9249C101.032 32.0386 100.61 32.0398 100.3 31.9284C100.006 31.8274 99.7913 31.6822 99.6557 31.4929C99.5331 31.3009 99.4594 31.1462 99.4344 31.0288C99.3541 30.6506 99.4571 30.3015 99.7436 29.9816C100.04 29.6459 100.404 29.4324 100.834 29.3409C101.252 29.2522 101.754 29.084 102.342 28.8363C102.941 28.5728 103.56 28.2502 104.202 27.8685C104.856 27.4841 105.465 27.0479 106.03 26.5599C106.607 26.0691 107.088 25.5442 107.474 24.9852C107.86 24.4261 108.085 23.8533 108.152 23.2667C107.854 23.2756 107.558 23.2974 107.266 23.3323C106.971 23.3542 106.68 23.3956 106.393 23.4566C105.428 23.6617 104.452 23.9781 103.466 24.4058C102.48 24.8335 101.499 25.2533 100.524 25.6651C100.287 25.77 100.055 25.7715 99.8293 25.6696C99.8614 25.949 99.8894 26.2089 99.9132 26.4492C99.9472 26.6737 99.9855 26.9177 100.028 27.1813C100.138 27.8259 100.184 28.334 100.168 28.7056C100.161 29.0613 100.121 29.322 100.048 29.4876C99.9737 29.6533 99.8808 29.7616 99.769 29.8126C99.6572 29.8637 99.5491 29.9003 99.4447 29.9225C99.4056 29.9308 99.3795 29.9363 99.3665 29.9391C99.1317 29.989 98.8976 29.9774 98.6639 29.9044C98.4303 29.8314 98.2095 29.6261 98.0015 29.2887C97.7908 28.9382 97.605 28.3847 97.4443 27.6282C96.9345 25.2285 96.7631 23.1384 96.9301 21.3581C97.1074 19.562 97.5988 18.1217 98.4043 17.0372C99.2202 15.9369 100.326 15.2384 101.721 14.9418C102.817 14.7089 103.735 14.8273 104.475 15.297C105.213 15.7536 105.699 16.5362 105.935 17.6448C106.054 18.2056 106.062 18.79 105.96 19.3979C105.857 20.0059 105.662 20.6267 105.374 21.2604C105.611 21.1556 105.844 21.0651 106.073 20.9892C106.299 20.9001 106.517 20.8334 106.726 20.7891C107.952 20.5285 108.905 20.5576 109.586 20.8762C110.265 21.1819 110.681 21.6999 110.836 22.4303C110.992 23.1606 110.928 23.8897 110.647 24.6175C110.378 25.3425 109.962 26.0444 109.397 26.7233C108.843 27.3864 108.207 28.0191 107.49 28.6213C106.77 29.2106 106.038 29.7411 105.293 30.2129C104.545 30.6717 103.841 31.0463 103.18 31.3367C102.522 31.6402 101.985 31.8362 101.567 31.9249ZM99.636 23.6046C99.706 23.5489 99.7852 23.5048 99.8737 23.4723C101.006 23.0272 101.849 22.5686 102.403 22.0964C102.957 21.6242 103.297 21.1089 103.424 20.5503C103.551 19.9918 103.539 19.3604 103.39 18.6561C103.351 18.4735 103.283 18.2834 103.187 18.0858C103.09 17.8882 102.948 17.7343 102.761 17.6241C102.585 17.4981 102.346 17.467 102.046 17.5308C101.055 17.7414 100.375 18.3563 100.005 19.3755C99.6459 20.3788 99.5228 21.7885 99.636 23.6046ZM120.18 32.8554C119.45 33.0106 118.775 33.1064 118.156 33.1426C117.539 33.1918 116.925 33.1862 116.312 33.1256C115.699 33.0649 115.029 32.9553 114.3 32.7967C113.998 32.7245 113.741 32.6361 113.528 32.5314C113.315 32.4268 113.178 32.231 113.117 31.9441C113.028 31.5267 113.091 31.1795 113.304 30.9023C113.508 30.641 113.831 30.4632 114.275 30.3689C114.509 30.319 114.826 30.3335 115.224 30.4124C115.626 30.5043 116.083 30.6047 116.597 30.7136C117.127 30.8327 117.702 30.9082 118.322 30.94C118.945 30.9848 119.595 30.9351 120.273 30.7909C120.965 30.644 121.549 30.2199 122.027 29.5185C122.505 28.8171 122.816 27.9059 122.96 26.7849C123.119 25.6742 123.049 24.4145 122.75 23.006C122.68 22.6799 122.599 22.3292 122.506 21.9537C122.409 21.5652 122.309 21.1571 122.205 20.7295C121.924 21.7162 121.591 22.6525 121.207 23.5384C120.822 24.4243 120.388 25.171 119.904 25.7783C119.43 26.3698 118.899 26.7279 118.312 26.8526C117.595 27.0051 117.037 26.9464 116.639 26.6766C116.251 26.391 115.977 25.87 115.816 25.1136C115.68 24.4745 115.578 23.767 115.508 22.9912C115.449 22.1995 115.421 21.3944 115.425 20.5758C115.428 19.7572 115.466 18.9722 115.538 18.2208C115.62 17.4536 115.736 16.7814 115.886 16.2043C116.002 15.7845 116.261 15.5316 116.666 15.4457C116.927 15.3902 117.214 15.4587 117.527 15.6511C117.854 15.8406 118.061 16.1441 118.15 16.5615C118.2 16.7962 118.213 17.1478 118.19 17.6162C118.167 18.0846 118.13 18.6172 118.08 19.214C118.04 19.7951 118 20.4101 117.961 21.0591C117.918 21.6951 117.901 22.319 117.908 22.9309C117.913 23.5297 117.965 24.0639 118.065 24.5334C118.076 24.5856 118.121 24.6033 118.199 24.5867C118.355 24.5534 118.536 24.3786 118.742 24.0624C118.957 23.7303 119.183 23.3144 119.417 22.8147C119.662 22.2991 119.899 21.7445 120.127 21.1507C120.365 20.5412 120.592 19.9409 120.807 19.3499C121.023 18.7589 121.215 18.2205 121.384 17.7346C121.301 17.5343 121.236 17.3572 121.19 17.2035C121.154 17.0339 121.123 16.8905 121.098 16.7731C120.985 16.2384 120.982 15.7755 121.09 15.3846C121.21 14.9908 121.551 14.7344 122.112 14.6152C122.477 14.5376 122.787 14.6149 123.041 14.8472C123.292 15.0665 123.468 15.4174 123.571 15.8999C123.615 16.1086 123.634 16.3568 123.627 16.6446C123.617 16.9193 123.575 17.3644 123.502 17.9798L123.588 17.3276C123.955 18.4764 124.274 19.499 124.546 20.3954C124.832 21.2889 125.07 22.1856 125.261 23.0856C125.621 24.7811 125.646 26.3093 125.335 27.6703C125.041 29.0415 124.45 30.1758 123.564 31.073C122.691 31.9674 121.563 32.5615 120.18 32.8554Z" fill="#37B6FF"/>
<path d="M57.0779 81.4111C55.5316 81.4111 53.8955 81.2497 52.1695 80.927C50.4435 80.6043 48.8973 80.0485 47.5308 79.2596C46.9555 78.901 46.542 78.4887 46.2902 78.0225C46.0745 77.5205 45.9846 77.0364 46.0206 76.5703C46.0925 76.0683 46.2723 75.638 46.5599 75.2794C46.8836 74.9208 47.2791 74.6877 47.7466 74.5802C48.25 74.4726 48.7894 74.5622 49.3647 74.8491C50.8031 75.5304 52.1515 76.0145 53.4101 76.3013C54.6686 76.5523 55.9092 76.6778 57.1318 76.6778C58.8578 76.6778 60.1344 76.391 60.9614 75.8172C61.8244 75.2077 62.2559 74.4188 62.2559 73.4506C62.2559 72.6259 61.9683 71.9984 61.3929 71.5681C60.8535 71.1019 60.0265 70.7613 58.9118 70.5461L53.518 69.5242C51.2885 69.0939 49.5805 68.2871 48.3938 67.1038C47.2432 65.8846 46.6678 64.3248 46.6678 62.4243C46.6678 60.7031 47.1353 59.215 48.0702 57.96C49.0411 56.7049 50.3716 55.7368 52.0616 55.0555C53.7517 54.3741 55.6935 54.0335 57.8869 54.0335C59.4691 54.0335 60.9434 54.2128 62.3099 54.5714C63.7123 54.8941 65.0607 55.414 66.3552 56.1312C66.8946 56.4181 67.2542 56.7946 67.434 57.2607C67.6498 57.7269 67.7037 58.211 67.5958 58.713C67.4879 59.1791 67.2722 59.6094 66.9486 60.0039C66.6249 60.3624 66.2114 60.5955 65.708 60.7031C65.2405 60.7748 64.7011 60.6672 64.0898 60.3804C62.9751 59.8066 61.8964 59.3943 60.8535 59.1433C59.8467 58.8923 58.8758 58.7668 57.9409 58.7668C56.1789 58.7668 54.8664 59.0716 54.0034 59.6811C53.1763 60.2907 52.7628 61.0975 52.7628 62.1016C52.7628 62.8546 53.0145 63.4821 53.518 63.9841C54.0214 64.4861 54.7945 64.8268 55.8373 65.0061L61.2311 66.028C63.5684 66.4583 65.3304 67.2472 66.5171 68.3946C67.7397 69.5421 68.351 71.084 68.351 73.0203C68.351 75.638 67.3261 77.6998 65.2765 79.2058C63.2268 80.676 60.494 81.4111 57.0779 81.4111Z" fill="#37B6FF"/>
<path d="M76.1409 81.2497C75.0622 81.2497 74.2351 80.927 73.6598 80.2816C73.0844 79.6361 72.7968 78.7397 72.7968 77.5922V57.8524C72.7968 56.6691 73.0844 55.7726 73.6598 55.163C74.2351 54.5176 75.0622 54.1949 76.1409 54.1949C77.2197 54.1949 78.0467 54.5176 78.6221 55.163C79.2334 55.7726 79.539 56.6691 79.539 57.8524V77.5922C79.539 78.7397 79.2514 79.6361 78.676 80.2816C78.1007 80.927 77.2556 81.2497 76.1409 81.2497ZM76.1409 49.1927C74.8824 49.1927 73.8935 48.8879 73.1743 48.2783C72.4911 47.6328 72.1495 46.7543 72.1495 45.6427C72.1495 44.4953 72.4911 43.6167 73.1743 43.0072C73.8935 42.3976 74.8824 42.0928 76.1409 42.0928C77.4354 42.0928 78.4243 42.3976 79.1075 43.0072C79.7907 43.6167 80.1323 44.4953 80.1323 45.6427C80.1323 46.7543 79.7907 47.6328 79.1075 48.2783C78.4243 48.8879 77.4354 49.1927 76.1409 49.1927Z" fill="#37B6FF"/>
<path d="M100.792 81.4111C98.5626 81.4111 96.6028 80.8553 94.9128 79.7437C93.2587 78.6321 92.1619 77.144 91.6226 75.2794L92.2159 73.9347V77.8612C92.2159 78.9728 91.9282 79.8334 91.3529 80.4429C90.7775 81.0167 89.9685 81.3035 88.9256 81.3035C87.8469 81.3035 87.0198 81.0167 86.4445 80.4429C85.8692 79.8334 85.5815 78.9728 85.5815 77.8612V45.9117C85.5815 44.8001 85.8692 43.9574 86.4445 43.3837C87.0198 42.8099 87.8469 42.5231 88.9256 42.5231C90.0044 42.5231 90.8315 42.8099 91.4068 43.3837C92.0181 43.9574 92.3237 44.8001 92.3237 45.9117V59.8963H91.6765C92.2518 58.1392 93.3666 56.7228 95.0207 55.6471C96.6748 54.5714 98.5986 54.0335 100.792 54.0335C103.129 54.0335 105.161 54.5893 106.887 55.7009C108.613 56.8125 109.962 58.3902 110.932 60.4342C111.903 62.4422 112.389 64.8626 112.389 67.6954C112.389 70.4923 111.903 72.9307 110.932 75.0104C109.962 77.0544 108.595 78.6321 106.833 79.7437C105.107 80.8553 103.093 81.4111 100.792 81.4111ZM98.9042 76.3013C100.235 76.3013 101.403 75.9786 102.41 75.3332C103.417 74.6877 104.19 73.7375 104.73 72.4825C105.305 71.1916 105.593 69.5959 105.593 67.6954C105.593 64.8268 104.981 62.6932 103.759 61.2947C102.536 59.8604 100.918 59.1433 98.9042 59.1433C97.5737 59.1433 96.4051 59.466 95.3982 60.1114C94.3914 60.721 93.6003 61.6713 93.0249 62.9621C92.4856 64.2172 92.2159 65.7949 92.2159 67.6954C92.2159 70.5282 92.8272 72.6797 94.0498 74.1499C95.2724 75.5842 96.8905 76.3013 98.9042 76.3013Z" fill="#37B6FF"/>
<path d="M119.986 81.4248C117.747 81.4248 116.141 80.0591 116.141 77.4328V46.4159C116.141 43.7896 117.747 42.3976 119.986 42.3976C122.251 42.3976 123.831 43.7896 123.831 46.4159V77.4328C123.831 80.0591 122.251 81.4248 119.986 81.4248Z" fill="#37B6FF"/>
<path d="M132.404 81.2497C131.325 81.2497 130.498 80.927 129.923 80.2816C129.348 79.6361 129.06 78.7397 129.06 77.5922V57.8524C129.06 56.6691 129.348 55.7726 129.923 55.163C130.498 54.5176 131.325 54.1949 132.404 54.1949C133.483 54.1949 134.31 54.5176 134.885 55.163C135.497 55.7726 135.802 56.6691 135.802 57.8524V77.5922C135.802 78.7397 135.515 79.6361 134.939 80.2816C134.364 80.927 133.519 81.2497 132.404 81.2497ZM132.404 49.1927C131.146 49.1927 130.157 48.8879 129.438 48.2783C128.754 47.6328 128.413 46.7543 128.413 45.6427C128.413 44.4953 128.754 43.6167 129.438 43.0072C130.157 42.3976 131.146 42.0928 132.404 42.0928C133.699 42.0928 134.688 42.3976 135.371 43.0072C136.054 43.6167 136.396 44.4953 136.396 45.6427C136.396 46.7543 136.054 47.6328 135.371 48.2783C134.688 48.8879 133.699 49.1927 132.404 49.1927Z" fill="#37B6FF"/>
<path d="M145.189 81.3035C144.11 81.3035 143.283 81.0167 142.708 80.4429C142.132 79.8334 141.845 78.9728 141.845 77.8612V57.5297C141.845 56.4181 142.132 55.5754 142.708 55.0017C143.283 54.4279 144.092 54.1411 145.135 54.1411C146.178 54.1411 146.987 54.4279 147.562 55.0017C148.138 55.5754 148.425 56.4181 148.425 57.5297V61.1872L147.832 59.8425C148.623 57.942 149.846 56.5077 151.5 55.5395C153.19 54.5355 155.096 54.0335 157.217 54.0335C159.339 54.0335 161.083 54.4279 162.449 55.2168C163.816 56.0057 164.84 57.2069 165.524 58.8205C166.207 60.3983 166.548 62.4063 166.548 64.8447V77.8612C166.548 78.9728 166.261 79.8334 165.685 80.4429C165.11 81.0167 164.283 81.3035 163.204 81.3035C162.126 81.3035 161.281 81.0167 160.669 80.4429C160.094 79.8334 159.806 78.9728 159.806 77.8612V65.1674C159.806 63.1235 159.411 61.6354 158.62 60.7031C157.864 59.7708 156.678 59.3046 155.06 59.3046C153.082 59.3046 151.5 59.9321 150.313 61.1872C149.162 62.4063 148.587 64.0379 148.587 66.0818V77.8612C148.587 80.1561 147.454 81.3035 145.189 81.3035Z" fill="#37B6FF"/>
<path d="M184.731 91.0928C182.789 91.0928 180.902 90.9135 179.068 90.5549C177.27 90.1963 175.634 89.6405 174.159 88.8875C173.476 88.5289 173.009 88.0986 172.757 87.5966C172.541 87.0946 172.469 86.5747 172.541 86.0368C172.649 85.5348 172.865 85.0866 173.188 84.6921C173.548 84.2977 173.98 84.0287 174.483 83.8853C174.986 83.7419 175.508 83.8136 176.047 84.1005C177.629 84.8893 179.122 85.3913 180.524 85.6065C181.962 85.8575 183.185 85.983 184.192 85.983C186.601 85.983 188.399 85.3913 189.586 84.208C190.808 83.0606 191.42 81.3394 191.42 79.0445V74.2036H191.905C191.366 76.0324 190.233 77.5026 188.507 78.6142C186.817 79.6899 184.893 80.2278 182.736 80.2278C180.362 80.2278 178.295 79.6899 176.533 78.6142C174.771 77.5026 173.404 75.9607 172.433 73.9885C171.462 72.0163 170.977 69.7214 170.977 67.1038C170.977 65.1316 171.247 63.3566 171.786 61.7788C172.361 60.1652 173.153 58.7847 174.159 57.6372C175.202 56.4898 176.443 55.6112 177.881 55.0017C179.355 54.3562 180.974 54.0335 182.736 54.0335C184.965 54.0335 186.907 54.5893 188.561 55.7009C190.251 56.7766 191.348 58.211 191.851 60.0039L191.312 61.3485V57.5297C191.312 56.4181 191.599 55.5754 192.175 55.0017C192.786 54.4279 193.613 54.1411 194.656 54.1411C195.735 54.1411 196.562 54.4279 197.137 55.0017C197.712 55.5754 198 56.4181 198 57.5297V78.2377C198 82.5048 196.867 85.7141 194.602 87.8656C192.337 90.017 189.046 91.0928 184.731 91.0928ZM184.569 75.118C185.972 75.118 187.176 74.7953 188.183 74.1499C189.19 73.5044 189.963 72.59 190.503 71.4067C191.078 70.1875 191.366 68.7532 191.366 67.1038C191.366 64.6295 190.754 62.6932 189.532 61.2947C188.309 59.8604 186.655 59.1433 184.569 59.1433C183.167 59.1433 181.962 59.466 180.956 60.1114C179.949 60.7569 179.158 61.6713 178.582 62.8546C178.043 64.0379 177.773 65.4543 177.773 67.1038C177.773 69.578 178.385 71.5322 179.607 72.9665C180.83 74.4009 182.484 75.118 184.569 75.118Z" fill="#37B6FF"/>
</svg>
