<svg width="172" height="91" viewBox="0 0 172 91" fill="none" xmlns="http://www.w3.org/2000/svg">
<path d="M11.6115 39.3183C10.0652 39.3183 8.42889 39.157 6.70272 38.8342C4.97656 38.5115 3.4302 37.9557 2.06365 37.1668C1.48826 36.8083 1.0747 36.3959 0.822967 35.9297C0.607196 35.4277 0.517292 34.9436 0.553254 34.4775C0.625177 33.9755 0.804986 33.5452 1.09268 33.1866C1.41634 32.828 1.81192 32.595 2.27942 32.4874C2.78289 32.3798 3.32231 32.4694 3.8977 32.7563C5.33617 33.4376 6.68474 33.9217 7.9434 34.2086C9.20207 34.4596 10.4427 34.5851 11.6655 34.5851C13.3916 34.5851 14.6683 34.2982 15.4954 33.7245C16.3585 33.1149 16.79 32.326 16.79 31.3578C16.79 30.5331 16.5023 29.9056 15.9269 29.4753C15.3875 29.0091 14.5604 28.6685 13.4456 28.4533L8.05129 27.4314C5.82166 27.0011 4.11347 26.1943 2.92673 25.011C1.77595 23.7918 1.20057 22.232 1.20057 20.3315C1.20057 18.6103 1.66807 17.1222 2.60308 15.8672C3.57405 14.6121 4.90463 13.644 6.59484 12.9627C8.28504 12.2814 10.227 11.9407 12.4206 11.9407C14.003 11.9407 15.4774 12.12 16.844 12.4786C18.2465 12.8013 19.595 13.3213 20.8897 14.0384C21.4291 14.3253 21.7887 14.7018 21.9685 15.1679C22.1843 15.6341 22.2382 16.1182 22.1303 16.6202C22.0225 17.0864 21.8067 17.5166 21.483 17.9111C21.1594 18.2697 20.7458 18.5027 20.2423 18.6103C19.7748 18.682 19.2354 18.5745 18.6241 18.2876C17.5092 17.7139 16.4304 17.3015 15.3875 17.0505C14.3806 16.7995 13.4096 16.674 12.4746 16.674C10.7125 16.674 9.39986 16.9788 8.53677 17.5884C7.70965 18.198 7.29609 19.0048 7.29609 20.0088C7.29609 20.7618 7.54782 21.3893 8.05129 21.8913C8.55476 22.3933 9.32793 22.734 10.3708 22.9133L15.7651 23.9352C18.1026 24.3655 19.8647 25.1544 21.0515 26.3019C22.2742 27.4493 22.8855 28.9912 22.8855 30.9276C22.8855 33.5452 21.8606 35.607 19.8108 37.1131C17.761 38.5832 15.0279 39.3183 11.6115 39.3183Z" fill="#37B6FF"/>
<path d="M30.6762 39.157C29.5973 39.157 28.7702 38.8342 28.1948 38.1888C27.6194 37.5434 27.3317 36.6469 27.3317 35.4995V15.7596C27.3317 14.5763 27.6194 13.6798 28.1948 13.0703C28.7702 12.4248 29.5973 12.1021 30.6762 12.1021C31.755 12.1021 32.5821 12.4248 33.1575 13.0703C33.7689 13.6798 34.0746 14.5763 34.0746 15.7596V35.4995C34.0746 36.6469 33.7869 37.5434 33.2115 38.1888C32.6361 38.8342 31.791 39.157 30.6762 39.157ZM30.6762 7.09989C29.4175 7.09989 28.4285 6.7951 27.7093 6.18551C27.026 5.54007 26.6844 4.66154 26.6844 3.54994C26.6844 2.40249 27.026 1.52396 27.7093 0.914378C28.4285 0.304793 29.4175 0 30.6762 0C31.9708 0 32.9597 0.304793 33.643 0.914378C34.3263 1.52396 34.6679 2.40249 34.6679 3.54994C34.6679 4.66154 34.3263 5.54007 33.643 6.18551C32.9597 6.7951 31.9708 7.09989 30.6762 7.09989Z" fill="#37B6FF"/>
<path d="M55.3294 39.3183C53.0997 39.3183 51.1398 38.7625 49.4496 37.6509C47.7954 36.5393 46.6985 35.0512 46.1591 33.1866L46.7525 31.8419V35.7684C46.7525 36.88 46.4648 37.7406 45.8894 38.3502C45.314 38.9239 44.5049 39.2108 43.462 39.2108C42.3831 39.2108 41.556 38.9239 40.9806 38.3502C40.4052 37.7406 40.1175 36.88 40.1175 35.7684V3.81888C40.1175 2.70728 40.4052 1.86462 40.9806 1.29089C41.556 0.717159 42.3831 0.430294 43.462 0.430294C44.5408 0.430294 45.3679 0.717159 45.9433 1.29089C46.5547 1.86462 46.8604 2.70728 46.8604 3.81888V17.8035H46.213C46.7884 16.0465 47.9032 14.6301 49.5575 13.5543C51.2117 12.4786 53.1357 11.9407 55.3294 11.9407C57.6669 11.9407 59.6987 12.4965 61.4249 13.6081C63.1511 14.7197 64.4996 16.2975 65.4706 18.3414C66.4416 20.3494 66.927 22.7698 66.927 25.6026C66.927 28.3996 66.4416 30.8379 65.4706 32.9177C64.4996 34.9616 63.1331 36.5393 61.3709 37.6509C59.6448 38.7625 57.6309 39.3183 55.3294 39.3183ZM53.4414 34.2086C54.772 34.2086 55.9407 33.8858 56.9476 33.2404C57.9546 32.595 58.7278 31.6447 59.2672 30.3897C59.8426 29.0988 60.1303 27.5031 60.1303 25.6026C60.1303 22.734 59.5189 20.6004 58.2962 19.202C57.0735 17.7677 55.4552 17.0505 53.4414 17.0505C52.1108 17.0505 50.942 17.3732 49.9351 18.0187C48.9282 18.6282 48.137 19.5785 47.5616 20.8694C47.0222 22.1244 46.7525 23.7022 46.7525 25.6026C46.7525 28.4354 47.3638 30.5869 48.5865 32.0571C49.8092 33.4914 51.4275 34.2086 53.4414 34.2086Z" fill="#37B6FF"/>
<path d="M74.5247 39.332C72.2858 39.332 70.6791 37.9663 70.6791 35.34V4.32313C70.6791 1.69681 72.2858 0.304864 74.5247 0.304864C76.7898 0.304864 78.3702 1.69681 78.3702 4.32313V35.34C78.3702 37.9663 76.7898 39.332 74.5247 39.332Z" fill="#37B6FF"/>
<path d="M86.9442 39.157C85.8654 39.157 85.0383 38.8342 84.4629 38.1888C83.8875 37.5434 83.5998 36.6469 83.5998 35.4995V15.7596C83.5998 14.5763 83.8875 13.6798 84.4629 13.0703C85.0383 12.4248 85.8654 12.1021 86.9442 12.1021C88.0231 12.1021 88.8502 12.4248 89.4256 13.0703C90.037 13.6798 90.3426 14.5763 90.3426 15.7596V35.4995C90.3426 36.6469 90.0549 37.5434 89.4795 38.1888C88.9042 38.8342 88.0591 39.157 86.9442 39.157ZM86.9442 7.09989C85.6856 7.09989 84.6966 6.7951 83.9774 6.18551C83.2941 5.54007 82.9525 4.66154 82.9525 3.54994C82.9525 2.40249 83.2941 1.52396 83.9774 0.914378C84.6966 0.304793 85.6856 0 86.9442 0C88.2389 0 89.2278 0.304793 89.9111 0.914378C90.5944 1.52396 90.936 2.40249 90.936 3.54994C90.936 4.66154 90.5944 5.54007 89.9111 6.18551C89.2278 6.7951 88.2389 7.09989 86.9442 7.09989Z" fill="#37B6FF"/>
<path d="M99.73 39.2108C98.6512 39.2108 97.8241 38.9239 97.2487 38.3502C96.6733 37.7406 96.3856 36.88 96.3856 35.7684V15.4369C96.3856 14.3253 96.6733 13.4826 97.2487 12.9089C97.8241 12.3352 98.6332 12.0483 99.6761 12.0483C100.719 12.0483 101.528 12.3352 102.104 12.9089C102.679 13.4826 102.967 14.3253 102.967 15.4369V19.0944L102.373 17.7497C103.164 15.8492 104.387 14.4149 106.041 13.4468C107.732 12.4427 109.638 11.9407 111.759 11.9407C113.881 11.9407 115.625 12.3352 116.992 13.124C118.358 13.9129 119.383 15.1142 120.066 16.7278C120.75 18.3055 121.091 20.3136 121.091 22.7519V35.7684C121.091 36.88 120.804 37.7406 120.228 38.3502C119.653 38.9239 118.826 39.2108 117.747 39.2108C116.668 39.2108 115.823 38.9239 115.212 38.3502C114.636 37.7406 114.349 36.88 114.349 35.7684V23.0746C114.349 21.0307 113.953 19.5426 113.162 18.6103C112.407 17.678 111.22 17.2119 109.602 17.2119C107.624 17.2119 106.041 17.8394 104.855 19.0944C103.704 20.3136 103.128 21.9451 103.128 23.989V35.7684C103.128 38.0633 101.996 39.2108 99.73 39.2108Z" fill="#37B6FF"/>
<path d="M139.276 49C137.334 49 135.446 48.8207 133.612 48.4621C131.814 48.1035 130.177 47.5477 128.703 46.7947C128.02 46.4361 127.552 46.0059 127.3 45.5038C127.085 45.0018 127.013 44.4819 127.085 43.944C127.192 43.442 127.408 42.9938 127.732 42.5993C128.092 42.2049 128.523 41.936 129.027 41.7925C129.53 41.6491 130.051 41.7208 130.591 42.0077C132.173 42.7966 133.666 43.2986 135.068 43.5137C136.507 43.7647 137.729 43.8902 138.736 43.8902C141.146 43.8902 142.944 43.2986 144.13 42.1153C145.353 40.9678 145.965 39.2466 145.965 36.9517V32.1109H146.45C145.911 33.9396 144.778 35.4098 143.052 36.5214C141.361 37.5971 139.437 38.135 137.28 38.135C134.906 38.135 132.838 37.5971 131.076 36.5214C129.314 35.4098 127.948 33.8679 126.977 31.8957C126.006 29.9235 125.52 27.6286 125.52 25.011C125.52 23.0388 125.79 21.2638 126.329 19.6861C126.905 18.0724 127.696 16.6919 128.703 15.5445C129.746 14.397 130.986 13.5185 132.425 12.9089C133.899 12.2634 135.518 11.9407 137.28 11.9407C139.509 11.9407 141.451 12.4965 143.106 13.6081C144.796 14.6839 145.893 16.1182 146.396 17.9111L145.857 19.2558V15.4369C145.857 14.3253 146.144 13.4826 146.72 12.9089C147.331 12.3352 148.158 12.0483 149.201 12.0483C150.28 12.0483 151.107 12.3352 151.682 12.9089C152.258 13.4826 152.546 14.3253 152.546 15.4369V36.1449C152.546 40.412 151.413 43.6213 149.147 45.7728C146.882 47.9243 143.591 49 139.276 49ZM139.114 33.0252C140.516 33.0252 141.721 32.7025 142.728 32.0571C143.735 31.4116 144.508 30.4973 145.048 29.3139C145.623 28.0948 145.911 26.6604 145.911 25.011C145.911 22.5368 145.299 20.6004 144.077 19.202C142.854 17.7677 141.2 17.0505 139.114 17.0505C137.711 17.0505 136.507 17.3732 135.5 18.0187C134.493 18.6641 133.702 19.5785 133.126 20.7618C132.587 21.9451 132.317 23.3615 132.317 25.011C132.317 27.4852 132.928 29.4394 134.151 30.8738C135.374 32.3081 137.028 33.0252 139.114 33.0252Z" fill="#37B6FF"/>
<path fill-rule="evenodd" clip-rule="evenodd" d="M165.805 48.3345C165.64 48.3888 165.446 48.3769 165.374 48.3081C165.302 48.2393 165.231 48.2408 165.216 48.3114C165.179 48.4819 164.592 48.3979 164.525 48.2127C164.497 48.1331 164.323 48.0749 164.139 48.0835C163.918 48.0937 163.858 48.1491 163.962 48.2482C164.053 48.3355 163.868 48.3915 163.514 48.3829C163.125 48.3735 162.904 48.3059 162.891 48.1918C162.867 47.9778 162.453 47.8666 162.411 48.0629C162.395 48.1393 162.46 48.2546 162.555 48.3189C162.691 48.4107 162.686 48.4293 162.532 48.4064C162.423 48.3904 162.318 48.2744 162.298 48.149C162.278 48.0176 162.132 47.9267 161.954 47.935C161.784 47.9428 161.667 48.0098 161.694 48.0836C161.768 48.2914 161.402 48.2931 160.62 48.0882C160.047 47.9382 159.896 47.95 159.856 48.1482C159.817 48.3416 159.843 48.357 159.978 48.22C160.112 48.082 160.159 48.1079 160.196 48.3409C160.222 48.5038 160.204 48.5773 160.156 48.5041C160.109 48.431 159.908 48.4618 159.709 48.5727C159.511 48.6835 159.412 48.7047 159.489 48.6198C159.688 48.4005 159.586 47.9518 159.325 47.8963C159.204 47.8705 159.13 47.9186 159.16 48.0031C159.19 48.0879 159.101 48.1751 158.961 48.1973C158.803 48.2221 158.759 48.1831 158.845 48.0938C158.935 47.9995 158.853 47.9875 158.607 48.0588C158.202 48.1763 157.487 48.1609 156.825 48.0206C156.596 47.972 156.395 47.9896 156.38 48.0596C156.366 48.1298 156.224 48.1221 156.066 48.0427C155.908 47.9634 155.679 47.9441 155.559 47.9999C155.439 48.0555 155.019 48.0199 154.628 47.9201C154.181 47.8068 153.939 47.8037 153.977 47.9121C154.016 48.0211 153.855 48.0164 153.54 47.8996C153.033 47.711 151.38 47.6807 150.82 47.8499C150.651 47.9009 150.389 47.8726 150.238 47.7868C150.087 47.7011 149.949 47.6995 149.932 47.783C149.914 47.8666 149.735 47.8679 149.534 47.7855C149.302 47.6905 149.153 47.7061 149.126 47.8283C149.096 47.9604 149.052 47.9396 148.984 47.7615C148.921 47.5976 148.87 47.5701 148.843 47.687C148.82 47.7883 148.708 47.8104 148.592 47.7358C148.477 47.6609 148.369 47.6642 148.353 47.7426C148.336 47.8209 147.613 47.8654 146.745 47.8412C145.877 47.8169 145.158 47.8392 145.147 47.891C145.136 47.9426 145.005 47.9689 144.857 47.9493C144.708 47.9301 144.165 47.9321 143.65 47.9544C143.135 47.9763 142.626 47.9373 142.518 47.8672C142.41 47.7974 142.309 47.8024 142.292 47.8788C142.26 48.029 141.471 47.8479 141.255 47.6405C141.182 47.5708 141.076 47.5617 141.02 47.6202C140.964 47.6789 140.661 47.6898 140.347 47.6448C140.032 47.5998 139.653 47.5933 139.505 47.6306C139.357 47.6675 138.994 47.6601 138.698 47.614C138.402 47.5679 137.545 47.5689 136.793 47.6162C136.041 47.6638 135.142 47.6902 134.796 47.6752C134.137 47.6465 132.792 47.715 130.223 47.9078C129.824 47.9377 129.401 48.0066 129.285 48.0608C129.168 48.1151 129.014 48.1043 128.944 48.0366C128.873 47.969 128.749 47.9833 128.668 48.0681C128.568 48.1716 128.595 48.1957 128.747 48.1409C128.908 48.0835 128.935 48.1212 128.839 48.2683C128.76 48.3906 128.789 48.4954 128.91 48.5212C129.024 48.5453 129.101 48.5201 129.082 48.465C129.063 48.4101 129.316 48.4113 129.644 48.468C129.972 48.5246 130.237 48.5901 130.232 48.6134C130.227 48.6366 129.482 48.6975 128.576 48.7485C127.67 48.7994 126.887 48.8737 126.835 48.9133C126.602 49.0907 125.547 48.8199 125.427 48.5524C125.314 48.3016 125.201 48.2861 124.246 48.3924C123.29 48.4989 123.009 48.505 122.364 48.432C122.253 48.4197 122.189 48.4857 122.222 48.5792C122.257 48.6765 122.191 48.689 122.067 48.6085C121.779 48.4215 121.842 48.1827 122.161 48.2505C122.3 48.2801 122.382 48.2552 122.343 48.1954C122.305 48.1355 122.115 48.102 121.921 48.1209C121.661 48.1467 121.573 48.2442 121.583 48.5C121.595 48.8221 121.586 48.824 121.448 48.5258C121.35 48.3136 121.255 48.2561 121.161 48.3537C121.06 48.4596 120.973 48.4383 120.845 48.2764C120.718 48.1157 120.658 48.101 120.632 48.2235C120.612 48.3173 120.49 48.3714 120.359 48.3437C120.21 48.312 120.15 48.3726 120.196 48.5073C120.242 48.641 120.187 48.6184 120.048 48.4463C119.865 48.2195 119.796 48.202 119.658 48.3468C119.565 48.4434 119.389 48.4573 119.266 48.3777C119.144 48.2977 119.031 48.2907 119.016 48.3618C118.981 48.5274 117.572 48.5834 117.407 48.4252C117.338 48.3594 117.267 48.3757 117.249 48.4617C117.23 48.5476 117.129 48.5619 117.024 48.4935C116.919 48.4253 116.72 48.4386 116.581 48.5233C116.229 48.739 115.393 48.6444 115.608 48.4134C115.738 48.2746 115.716 48.268 115.496 48.3797C115.346 48.4564 115.188 48.4645 115.144 48.3978C115.101 48.3312 115.052 48.3393 115.036 48.4157C115.02 48.4925 114.783 48.5147 114.51 48.4655C114.012 48.3754 113.062 48.4192 108.859 48.7258C107.618 48.8162 106.293 48.9042 105.916 48.9212C105.539 48.9382 105.256 49.0248 105.288 49.1138C105.32 49.2032 105.247 49.2112 105.125 49.1318C105.001 49.0513 104.738 49.0839 104.529 49.2055C104.323 49.3249 104.131 49.4002 104.102 49.3721C104.074 49.3442 103.997 49.3183 103.933 49.3146C103.868 49.3107 103.704 49.2727 103.568 49.2294C103.432 49.1864 103.262 49.2128 103.19 49.288C103.11 49.3713 103.173 49.4136 103.351 49.3962C103.614 49.3707 103.615 49.3831 103.359 49.5187C103.203 49.6017 103.085 49.7544 103.097 49.8583C103.109 49.9618 103.033 50.0778 102.927 50.1157C102.818 50.1547 102.766 50.0983 102.806 49.9854C102.952 49.5807 102.951 49.2463 102.803 49.215C102.719 49.1972 102.629 49.2852 102.603 49.4104C102.576 49.5359 102.435 49.6119 102.289 49.5797C102.062 49.5293 102.061 49.5063 102.283 49.4218C102.774 49.2346 102.18 49.2323 101.142 49.4174C100.584 49.517 100.036 49.5792 99.9255 49.5557C99.8145 49.5321 99.7108 49.5749 99.6947 49.6504C99.6786 49.7262 99.5263 49.7184 99.3562 49.6329C99.1458 49.5272 99.0694 49.5407 99.1175 49.6746C99.1632 49.8025 99.1115 49.8218 98.9696 49.7297C98.8497 49.6519 98.632 49.6509 98.4857 49.7275C98.3396 49.8041 98.2306 49.8069 98.2435 49.7335C98.2563 49.6601 98.1382 49.7113 97.9811 49.8473C97.8241 49.9834 97.7047 50.0509 97.7161 49.9975C97.7275 49.944 97.4591 49.9527 97.1198 50.0166C96.7805 50.0806 96.0736 50.131 95.5485 50.1285C94.8217 50.1253 94.5866 50.1858 94.562 50.383C94.5387 50.5702 94.4876 50.5885 94.3776 50.4492C94.2734 50.3175 94.1564 50.3009 94.0085 50.3969C93.8894 50.4743 93.8039 50.4813 93.8185 50.4128C93.8331 50.3441 93.7244 50.3511 93.577 50.4283C93.4297 50.5058 93.3199 50.5183 93.3331 50.456C93.3463 50.3939 93.2401 50.4043 93.097 50.4795C92.9539 50.5543 92.7592 50.546 92.6644 50.4607C92.5696 50.3755 92.533 50.3758 92.5829 50.4611C92.6329 50.5469 92.5092 50.6646 92.3075 50.7232C92.0682 50.7923 91.993 50.8786 92.0909 50.9724C92.1731 51.051 92.2576 51.0357 92.2783 50.9384C92.2989 50.8411 92.4055 50.8193 92.5148 50.8906C92.6244 50.9617 92.8092 50.9445 92.9257 50.8526C93.0437 50.7593 93.2718 50.7527 93.4414 50.8379C93.6353 50.9352 93.7216 50.9242 93.6797 50.8075C93.6379 50.6905 93.7254 50.6806 93.9237 50.7801C94.1482 50.8928 94.2119 50.8762 94.1557 50.7193C94.0959 50.5528 94.1389 50.5545 94.3432 50.7267C94.5233 50.8787 94.668 50.9112 94.7958 50.8282C94.9236 50.7453 94.9964 50.7859 95.0231 50.9552C95.0515 51.1337 94.999 51.1629 94.8376 51.0582C94.6968 50.9667 94.6374 50.9814 94.6788 51.0972C94.7214 51.216 94.6289 51.2294 94.4192 51.1345C94.1529 51.0139 94.1283 51.0268 94.285 51.2051C94.435 51.3754 94.3855 51.38 94.0583 51.2267C93.7636 51.0885 93.6604 51.088 93.7097 51.2254C93.7546 51.351 93.7025 51.3702 93.563 51.2798C93.444 51.2023 93.331 51.2127 93.3119 51.3025C93.2929 51.3923 93.183 51.4047 93.0679 51.3301C92.9528 51.2553 92.8411 51.2772 92.8196 51.3786C92.7975 51.4827 92.6862 51.5017 92.5638 51.4224C92.4447 51.3451 92.3687 51.341 92.3945 51.4133C92.4204 51.4857 92.2195 51.6165 91.9478 51.7039C91.6066 51.8139 91.433 51.8049 91.3865 51.675C91.3432 51.5541 91.3807 51.5458 91.4917 51.6518C91.6068 51.7618 91.6402 51.75 91.5922 51.6157C91.5526 51.505 91.4469 51.4409 91.3575 51.473C91.268 51.5051 91.2182 51.5968 91.247 51.6773C91.2757 51.7575 91.0849 51.8245 90.8229 51.8265C90.5609 51.8282 90.2857 51.8931 90.2116 51.9707C90.1217 52.0645 90.2182 52.1064 90.5006 52.0963C90.9525 52.0798 91.0454 52.37 90.6101 52.4388C90.4746 52.4603 90.3443 52.5689 90.3206 52.6803C90.2969 52.7919 90.1883 52.915 90.0791 52.9539C89.9454 53.002 89.9365 52.9645 90.0517 52.8385C90.1457 52.736 90.0334 52.7546 89.802 52.88C89.5519 53.0157 89.4542 53.0272 89.5612 52.9081C89.7191 52.7322 89.7026 52.7277 89.4214 52.8715C89.246 52.9613 89.0061 53.0285 88.8885 53.0212C88.39 52.9894 85.9709 53.3162 85.8557 53.431C85.7788 53.5077 85.7033 53.4824 85.6617 53.3662C85.6242 53.2614 85.6832 53.1939 85.7928 53.2158C85.9393 53.245 85.9405 53.2004 85.7983 53.0478C85.6487 52.8874 85.6819 52.8809 85.9433 53.0189C86.1574 53.1318 86.2594 53.1335 86.22 53.0234C86.1828 52.9201 86.2676 52.9043 86.4284 52.9851C86.7581 53.1506 87.0611 52.8881 86.7635 52.6948C86.5966 52.5868 86.5995 52.5233 86.7768 52.3981C87.0215 52.2247 87.2785 52.3521 87.0873 52.552C87.0228 52.6195 87.0463 52.691 87.1397 52.7109C87.233 52.7307 87.2439 52.8156 87.1639 52.8993C87.0782 52.9887 87.0932 53.0247 87.2005 52.9864C87.3006 52.9504 87.3763 52.7849 87.3687 52.6189C87.357 52.3684 87.4983 52.3107 88.1936 52.2821C88.9099 52.2522 88.9823 52.221 88.6893 52.0677L88.3464 51.888L88.7296 51.9511C88.9406 51.9859 89.2308 51.9648 89.3745 51.9041C89.7263 51.7556 88.7338 51.7353 87.9675 51.8753C87.6585 51.9317 87.3792 51.9375 87.3472 51.888C87.315 51.8387 87.6395 51.7287 88.0684 51.6438C88.522 51.554 88.8208 51.4129 88.7826 51.3068C88.7383 51.1824 88.5985 51.1688 88.3452 51.2634C87.738 51.4912 86.5722 51.6469 86.6042 51.4962C86.6205 51.4196 86.7602 51.351 86.9143 51.3438C87.1016 51.3352 87.0696 51.2997 86.8181 51.2368C86.6108 51.1851 85.8163 51.227 85.0523 51.33C84.2883 51.4331 83.5016 51.5222 83.3038 51.5281C83.1061 51.5339 82.9317 51.5991 82.9161 51.6729C82.9004 51.7466 82.8389 51.7841 82.7792 51.7559C82.6062 51.6743 80.7178 52.1261 80.3313 52.3417C80.1191 52.46 80.0466 52.4645 80.1486 52.3528C80.2644 52.2262 80.1476 52.225 79.7801 52.3485C79.4843 52.4478 79.2308 52.5828 79.2168 52.6484C79.2029 52.7137 79.1227 52.7527 79.0387 52.7349C78.9548 52.7171 78.5098 52.7945 78.0498 52.9072C77.5336 53.0335 77.2268 53.0444 77.2486 52.9354C77.2679 52.8382 77.1611 52.9113 77.0112 53.0975C76.861 53.2839 76.6716 53.4234 76.5903 53.4073C76.5091 53.3915 76.3476 53.4138 76.2316 53.457C76.1156 53.5002 75.7598 53.514 75.4407 53.4877C75.1217 53.4616 74.7353 53.5069 74.5815 53.5889C74.3514 53.7119 72.8586 54.0051 72.5844 53.9812C72.3411 53.96 70.405 54.4791 68.6373 55.0396C66.4265 55.7405 65.0403 56.3888 65.0894 56.6992C65.1065 56.8074 65.005 56.9568 64.8635 57.0311C64.7218 57.1055 64.5787 57.2945 64.5454 57.4513C64.4864 57.7291 64.5732 57.7851 65.383 57.991C65.6595 58.0614 65.7415 58.1709 65.692 58.4039C65.6549 58.5783 65.6943 58.8546 65.7793 59.0176C65.9205 59.2877 65.8454 59.3644 65.5515 59.2518C65.4909 59.2285 65.4269 59.278 65.4092 59.3614C65.3704 59.5441 65.5266 59.5864 65.8268 59.4749C65.949 59.4295 66.0286 59.2694 66.0049 59.1182C65.9794 58.9586 66.0355 58.8596 66.1384 58.8815C66.2357 58.9022 66.2626 58.9744 66.1981 59.0421C66.1334 59.1096 66.1445 59.2258 66.2226 59.3006C66.3146 59.3886 66.2588 59.4837 66.0638 59.5713C65.85 59.6673 65.7603 59.8394 65.7543 60.165C65.7464 60.5982 65.674 60.6465 64.4418 61.0415C61.6095 61.9496 61.2874 62.0853 60.4634 62.716C59.994 63.0753 59.5603 63.3214 59.4994 63.2632C59.2841 63.0573 58.5069 63.9666 58.2786 64.6914C58.0868 65.2995 58.0913 65.4248 58.3064 65.4705C58.4471 65.5004 58.517 65.5725 58.4616 65.6305C58.406 65.6885 58.4731 65.8446 58.6107 65.9773C58.8251 66.1844 58.8545 66.1784 58.818 65.934C58.7821 65.6957 58.8063 65.6883 58.9675 65.8874C59.073 66.0184 59.2085 66.0934 59.2683 66.0545C59.5148 65.8943 59.6572 66.2562 59.4461 66.5063C59.3109 66.6666 59.279 66.8036 59.3593 66.8803C59.4288 66.9468 59.4259 67.0935 59.3528 67.206C59.2656 67.3405 59.3165 67.4321 59.5014 67.473C59.7137 67.5199 59.7262 67.5562 59.553 67.6207C59.3709 67.6882 59.373 67.7384 59.564 67.8624C59.8887 68.0732 59.9608 68.0061 60.2424 67.2312C60.2718 67.1502 60.3263 67.2603 60.3636 67.4759C60.4065 67.7246 60.3647 67.9206 60.2486 68.0122C60.1376 68.0999 60.1013 68.2559 60.1561 68.4087C60.2336 68.625 60.293 68.63 60.5759 68.4443C60.8868 68.2403 60.889 68.2305 60.6165 68.2721C60.3973 68.3058 60.3626 68.2624 60.4729 68.0925C60.5528 67.9693 60.6714 67.9192 60.7364 67.9816C60.8013 68.0435 60.8715 68.0402 60.8922 67.974C61.0031 67.6201 61.1696 67.3077 61.2836 67.2395C61.4143 67.1611 61.0624 68.1136 60.8261 68.4776C60.731 68.6242 60.8219 68.7037 61.1685 68.7773C61.4926 68.8462 61.6559 68.8042 61.6902 68.6431C61.7408 68.4049 62.1946 68.4831 62.3163 68.7509C62.3512 68.8281 62.4917 68.8027 62.6284 68.6945C62.8376 68.5293 62.837 68.5046 62.6243 68.5382C62.2986 68.5899 62.1634 68.2237 62.4413 68.0432C62.602 67.9389 62.6719 67.9553 62.7273 68.1101C62.7796 68.2562 63.1069 68.2124 63.864 67.9588C64.8543 67.6266 65.1882 67.4094 64.8259 67.3324C64.7424 67.3147 64.6583 67.3743 64.6391 67.4646C64.6199 67.5551 64.5251 67.581 64.4285 67.5219C64.2544 67.4157 63.3366 67.7243 63.0701 67.9788C62.994 68.0515 62.8995 68.0613 62.8599 68.0006C62.7626 67.8505 64.5695 66.9605 64.8506 67.0202C64.9767 67.047 65.0594 66.9708 65.0398 66.8457C65.0151 66.6915 65.1119 66.659 65.3556 66.7393C65.5486 66.8032 65.8183 66.7647 65.9549 66.6543C66.0993 66.5373 66.1213 66.4814 66.0071 66.5204C65.8993 66.5575 65.7926 66.4711 65.7701 66.3288C65.7109 65.9551 65.7626 65.8296 65.8636 66.1019C65.9885 66.438 66.6244 66.3385 66.7026 65.9708C66.7408 65.7911 66.933 65.6475 67.1884 65.608C67.4211 65.5721 67.7242 65.4774 67.8624 65.398C68.4129 65.0819 68.6278 64.9895 69.1383 64.8494C69.6897 64.6981 69.8408 64.5869 69.4969 64.5854C69.2819 64.5845 68.7412 64.6706 68.4703 64.7489C68.3772 64.7758 68.5107 64.6515 68.7669 64.4729C69.0233 64.2941 69.3225 64.1658 69.4322 64.1875C69.5454 64.21 69.6004 64.1402 69.5595 64.0261C69.5106 63.8897 69.5645 63.8752 69.7268 63.9805C69.8771 64.0781 69.9421 64.0685 69.9014 63.9546C69.8656 63.8548 69.9252 63.8086 70.0338 63.8516C70.3793 63.989 71.1149 63.8806 71.1562 63.6864C71.2059 63.4525 71.9999 63.2582 72.0243 63.4738C72.0474 63.678 73.4573 63.3132 73.5077 63.0899C73.5343 62.9728 73.5722 62.976 73.6246 63.0996C73.6761 63.2203 73.9605 63.2137 74.4597 63.0802C74.8761 62.9691 75.1151 62.8533 74.9903 62.8233C74.8127 62.7806 74.8284 62.7475 75.0642 62.67C75.2291 62.6158 75.4166 62.6218 75.4813 62.6833C75.5455 62.7448 75.7951 62.741 76.0358 62.6745C76.4725 62.5542 76.4728 62.5536 76.1742 62.3364C75.9074 62.1424 75.906 62.1139 76.1604 62.0736C76.3171 62.0487 76.399 62.0773 76.3421 62.1368C76.2851 62.1965 76.4403 62.2883 76.6873 62.3408C76.9342 62.3933 77.1483 62.3792 77.1631 62.3096C77.2056 62.1097 77.6163 62.2521 77.6566 62.4805C77.6765 62.5939 77.7378 62.5021 77.7924 62.2763C77.8612 61.9936 77.9517 61.9046 78.0834 61.9903C78.1888 62.0585 78.3402 62.0134 78.4205 61.89C78.5041 61.7609 78.4949 61.6911 78.3984 61.7256C78.302 61.76 78.292 61.6908 78.3749 61.5635C78.5226 61.3356 78.8577 61.4157 78.8116 61.6679C78.7973 61.7449 78.8457 61.9635 78.9188 62.1537C79.0206 62.4192 79.0455 62.4335 79.0253 62.216C78.9958 61.8957 79.2482 61.8777 79.3043 62.1959C79.3306 62.3452 79.3546 62.3527 79.3911 62.2234C79.4187 62.125 79.3291 61.924 79.1916 61.7766C78.9261 61.4918 79.1502 61.0361 79.4262 61.2997C79.5079 61.3779 79.5355 61.4831 79.4874 61.5336C79.4392 61.5838 79.4579 61.8149 79.5287 62.0473C79.6433 62.4229 79.6655 62.4361 79.7297 62.1673C79.7835 61.9431 79.824 61.9246 79.8874 62.0952C79.9932 62.3803 80.1621 62.4242 80.3591 62.2183C80.467 62.1055 80.5288 62.1147 80.5777 62.2512C80.615 62.3559 80.5694 62.4251 80.4761 62.4052C80.3826 62.3853 80.3381 62.4585 80.3773 62.5677C80.4219 62.6919 80.3904 62.7104 80.293 62.6173C80.1218 62.4536 79.164 62.6035 79.1221 62.8005C79.1076 62.8686 79.0443 62.875 78.9814 62.8148C78.8261 62.6664 77.618 62.9766 77.7229 63.1382C77.7978 63.253 77.3973 63.2497 77.1004 63.1329C76.9588 63.0771 77.1276 63.7034 77.2983 63.8665C77.3653 63.9305 77.4794 63.9213 77.5517 63.8458C77.6238 63.7703 77.5971 63.7097 77.4919 63.7114C77.3869 63.7131 77.2874 63.6197 77.2709 63.5039C77.2499 63.3555 77.3531 63.3391 77.62 63.4485C77.8286 63.5339 78.0109 63.5481 78.0253 63.48C78.0595 63.3195 79.5034 63.1183 79.9474 63.2121C80.1354 63.2519 80.3011 63.2287 80.3155 63.1608C80.33 63.0926 80.5514 63.0355 80.8077 63.0337C81.0639 63.0319 81.3649 62.9584 81.4768 62.8701C81.5886 62.7817 82.1249 62.6337 82.6688 62.5411C83.2124 62.4485 83.6767 62.2821 83.7003 62.1713C83.7238 62.0606 83.805 62.0291 83.8807 62.1016C83.9566 62.174 84.1345 62.1723 84.2764 62.0978C84.4254 62.0196 84.6914 62.0395 84.9075 62.1454C85.1127 62.2459 85.2579 62.2644 85.23 62.1866C85.2021 62.1087 85.6176 61.974 86.1533 61.8872C86.6891 61.8007 87.139 61.6749 87.1532 61.6079C87.1674 61.5409 87.3061 61.4763 87.4616 61.4644C87.6168 61.4521 88.2529 61.367 88.8748 61.2754C89.497 61.1836 90.0561 61.1567 90.1178 61.2157C90.1792 61.2746 90.246 61.2463 90.2658 61.1529C90.2857 61.0596 90.3613 61.0399 90.4338 61.1092C90.5064 61.1787 90.5783 61.1761 90.5938 61.1033C90.6093 61.0306 90.9803 60.9563 91.4184 60.9381C91.8566 60.9199 92.4091 60.8096 92.6463 60.6928C92.8835 60.5763 93.1125 60.4882 93.155 60.4973C93.1975 60.5063 93.5939 60.4366 94.0358 60.3425C94.4777 60.2482 94.9811 60.1766 95.1544 60.1831C95.3275 60.1894 95.6202 60.157 95.8046 60.1109C95.989 60.0649 96.3468 59.9984 96.5995 59.9632C96.8523 59.928 97.0384 59.8409 97.0129 59.77C96.9873 59.6989 97.1153 59.6647 97.2971 59.6941C97.6181 59.7458 100.995 59.2856 102.307 59.0114C102.664 58.9367 102.929 58.7981 102.895 58.7038C102.858 58.6001 102.931 58.5958 103.081 58.6932C103.266 58.8128 103.319 58.7903 103.29 58.6059C103.263 58.434 103.427 58.3242 103.824 58.2494C104.14 58.19 104.408 58.0923 104.421 58.0323C104.433 57.9724 104.389 57.9587 104.323 58.0022C104.256 58.0454 104.123 57.981 104.027 57.8594C103.93 57.7377 103.85 57.7033 103.849 57.7832C103.841 58.1141 103.742 58.1721 103.566 57.9483C103.412 57.7537 103.369 57.7555 103.326 57.9572C103.297 58.0927 103.167 58.1809 103.037 58.1532C102.906 58.1256 102.853 58.0475 102.918 57.9795C103.04 57.852 102.539 57.8629 101.676 58.0066C101.347 58.0615 101.145 58.0211 100.99 57.8703C100.812 57.6969 100.835 57.6898 101.11 57.8325C101.356 57.9603 101.429 57.9512 101.375 57.8C101.321 57.6487 101.387 57.641 101.619 57.7726C101.822 57.8879 101.915 57.89 101.875 57.7787C101.838 57.6763 102.082 57.6151 102.461 57.6309C102.817 57.646 103.961 57.5602 105.002 57.4403C106.043 57.3204 106.911 57.2271 106.932 57.2327C107.412 57.3668 107.585 57.3466 107.526 57.1631C107.488 57.0461 107.502 57.0127 107.557 57.0891C107.613 57.1656 107.781 57.1655 107.931 57.089C108.148 56.9782 108.172 56.9837 108.049 57.1156C107.964 57.2069 107.967 57.2966 108.056 57.3154C108.144 57.3342 108.232 57.2772 108.251 57.1887C108.27 57.1005 108.343 57.0834 108.414 57.1512C108.485 57.219 108.852 57.255 109.23 57.2309C109.608 57.2069 110.075 57.2007 110.268 57.2172C110.46 57.2336 110.783 57.227 110.985 57.2029C111.487 57.1425 111.435 57.1442 112.184 57.1651C112.553 57.1754 112.864 57.1391 112.876 57.0844C112.888 57.0296 113.083 57.0338 113.311 57.0936C113.538 57.1535 113.934 57.1766 114.19 57.1451C114.544 57.1018 114.678 57.1454 114.749 57.3279C114.826 57.5242 114.895 57.5228 115.13 57.3206C115.337 57.1431 115.405 57.1355 115.374 57.2931C115.338 57.4684 115.363 57.4778 115.498 57.3399C115.591 57.2452 115.886 57.2076 116.154 57.2566C116.422 57.3057 116.69 57.2945 116.75 57.2319C116.81 57.1692 116.907 57.1644 116.967 57.2213C117.026 57.2779 117.173 57.2463 117.294 57.151C117.415 57.0557 117.631 57.0365 117.774 57.1082C117.917 57.1801 118.17 57.1505 118.336 57.0427C118.502 56.9344 118.707 56.9123 118.792 56.993C118.887 57.084 118.918 57.0645 118.874 56.9412C118.835 56.832 118.882 56.7597 118.98 56.7804C119.077 56.8011 119.141 56.7155 119.121 56.5901C119.095 56.4269 119.174 56.4027 119.4 56.5046C119.628 56.6074 119.667 56.5949 119.542 56.4587C119.411 56.3162 119.469 56.2727 119.784 56.2793C120.173 56.2871 120.18 56.3019 119.899 56.5048C119.52 56.7791 119.759 57.0693 120.185 56.8517C120.433 56.7254 120.451 56.7313 120.302 56.8901C120.165 57.0371 120.196 57.0656 120.443 57.0207C120.617 56.9894 120.903 56.9554 121.08 56.9448C121.257 56.9346 121.444 56.8932 121.496 56.8531C121.549 56.8127 121.994 56.732 122.487 56.6731C124.096 56.4815 124.957 56.2541 125.007 56.008C125.035 55.8699 124.995 55.8238 124.911 55.8983C124.7 56.0866 123.783 55.8518 123.687 55.585C123.642 55.4586 123.543 55.3538 123.468 55.3519C123.393 55.3499 123.323 55.2675 123.312 55.1685C123.301 55.0694 123.347 55.0112 123.415 55.0386C123.818 55.202 124.24 55.1811 124.175 55.0005C124.127 54.8654 124.179 54.849 124.335 54.9504C124.463 55.0332 124.581 55.0348 124.599 54.9539C124.616 54.873 124.702 54.8221 124.79 54.8409C124.879 54.8597 124.882 54.9498 124.797 55.0409C124.674 55.1729 124.698 55.1781 124.916 55.0673C125.066 54.991 125.234 54.9909 125.289 55.0674C125.344 55.1436 125.358 55.1104 125.32 54.9928C125.275 54.8543 125.412 54.7571 125.711 54.7156C126.497 54.6062 126.912 54.4594 126.914 54.2898C126.916 54.2005 127.193 54.1063 127.53 54.081C127.867 54.0555 128.101 53.9634 128.049 53.876C127.998 53.7884 128.026 53.7794 128.112 53.8558C128.197 53.9323 128.325 53.9173 128.397 53.8227C128.5 53.6854 128.536 53.693 128.574 53.8595C128.601 53.9743 128.737 54.0915 128.876 54.1197C129.076 54.1603 129.092 54.1346 128.952 53.9969C128.827 53.8752 128.831 53.8019 128.963 53.7543C129.068 53.7168 129.144 53.7328 129.131 53.7897C129.119 53.8465 129.209 53.8436 129.331 53.783C129.453 53.7226 129.858 53.7491 130.231 53.8423C130.613 53.9371 131.016 53.9442 131.152 53.858C131.438 53.6773 131.904 53.7405 131.718 53.9351C131.647 54.0088 131.539 54.0203 131.476 53.9604C131.414 53.9007 131.303 53.9136 131.231 53.9889C131.159 54.0646 131.186 54.125 131.291 54.1236C131.396 54.1219 131.495 54.2126 131.511 54.325C131.536 54.5022 131.221 54.5413 130.866 54.405C130.805 54.3818 130.74 54.4359 130.721 54.5249C130.701 54.618 130.825 54.6734 131.011 54.6553C131.197 54.637 131.321 54.6924 131.301 54.7858C131.282 54.8748 131.217 54.9286 131.156 54.9055C131.082 54.8803 131.003 54.8703 130.924 54.8759C130.608 54.9092 130.406 54.8406 130.335 54.6754C130.288 54.5684 130.234 54.5956 130.201 54.7422C130.144 55.0014 129.655 55.1167 129.071 55.009C128.882 54.9743 128.714 55.008 128.698 55.0843C128.681 55.1605 128.576 55.163 128.463 55.0901C128.351 55.017 128.201 55.0177 128.129 55.0923C128.058 55.1665 127.912 55.1705 127.805 55.1007C127.698 55.031 127.598 55.0297 127.584 55.098C127.569 55.166 127.394 55.2568 127.194 55.2993C126.87 55.3685 126.857 55.3941 127.073 55.5341C127.217 55.6278 127.291 55.6229 127.254 55.5215C127.221 55.4281 127.283 55.3712 127.392 55.3952C127.501 55.419 128.486 55.3606 129.58 55.2655C131.245 55.1207 131.567 55.0466 131.557 54.8114C131.541 54.4856 131.695 54.4794 131.901 54.797C132.013 54.9686 132.057 54.9637 132.097 54.774C132.132 54.6075 132.237 54.5743 132.426 54.6691C132.579 54.7458 132.968 54.7793 133.293 54.7438C133.617 54.7083 133.981 54.6854 134.103 54.6932C134.225 54.7009 134.382 54.6698 134.452 54.6242C134.643 54.5003 134.87 54.5792 134.733 54.7219C134.662 54.7965 134.792 54.8333 135.061 54.8152C135.306 54.7985 135.721 54.8377 135.983 54.9022C136.245 54.9669 136.438 54.9615 136.412 54.8906C136.387 54.8198 136.48 54.786 136.619 54.8156C136.773 54.8482 136.823 54.9454 136.747 55.063C136.659 55.1986 136.713 55.2519 136.93 55.2419C137.099 55.2339 137.252 55.1633 137.269 55.0844C137.285 55.0058 137.222 54.9691 137.127 55.003C137.033 55.0368 136.97 54.9964 136.988 54.9132C137.005 54.83 137.15 54.7998 137.309 54.8463C137.467 54.8926 137.557 54.9721 137.509 55.0227C137.46 55.0734 137.608 55.0723 137.837 55.0197C138.065 54.9674 138.265 54.8696 138.28 54.8022C138.295 54.7345 138.373 54.7425 138.454 54.8197C138.535 54.8968 138.668 54.8892 138.751 54.8029C138.833 54.7166 139.118 54.6856 139.383 54.7339C139.647 54.7823 139.877 54.7603 139.893 54.6845C139.91 54.6087 139.983 54.6044 140.057 54.6749C140.131 54.7455 140.138 54.8584 140.073 54.9259C140.009 54.9934 140.031 55.0647 140.123 55.0843C140.216 55.1039 140.295 55.003 140.299 54.8605C140.304 54.7175 140.4 54.5891 140.512 54.5748C140.624 54.5605 140.7 54.6229 140.681 54.7134C140.662 54.8038 140.722 54.894 140.814 54.9136C140.906 54.9333 140.965 54.8384 140.943 54.7031C140.922 54.5676 140.978 54.4722 141.068 54.4914C141.166 54.5123 141.162 54.6687 141.055 54.8854C140.851 55.3023 140.829 55.2877 141.545 55.2039C142.187 55.129 142.906 54.7234 142.537 54.645C142.414 54.6188 142.127 54.6265 141.898 54.6618C141.67 54.6972 141.461 54.6634 141.433 54.5865C141.405 54.5096 141.677 54.4227 142.035 54.3934C142.56 54.3504 142.728 54.3891 142.892 54.5915C143.065 54.8051 143.081 54.8041 143.005 54.5857C142.855 54.1578 142.919 53.9983 143.224 54.0394C143.383 54.0609 143.5 54.1468 143.482 54.23C143.464 54.3134 143.375 54.3135 143.284 54.2301C143.192 54.147 143.216 54.2551 143.337 54.4701C143.581 54.9073 143.778 55.0438 143.557 54.6236C143.48 54.4763 143.478 54.361 143.552 54.3677C143.627 54.3743 143.794 54.3862 143.923 54.3944C144.053 54.4022 144.297 54.426 144.468 54.447C144.724 54.4785 144.703 54.4157 144.344 54.076C143.792 53.5549 143.649 53.5222 144.028 54.0043C144.19 54.2105 144.237 54.3632 144.132 54.3439C144.027 54.3245 143.954 54.2482 143.97 54.1744C143.986 54.1007 143.855 53.9617 143.678 53.8656L143.358 53.691L143.774 53.6038C144.002 53.556 144.395 53.4704 144.648 53.4139C145.119 53.3077 145.217 53.4276 144.853 53.6644C144.739 53.7382 144.542 53.7397 144.415 53.6678C144.228 53.5611 144.219 53.5735 144.367 53.7342C144.568 53.9534 144.971 53.943 145.019 53.7176C145.036 53.6381 145.11 53.6307 145.184 53.7014C145.258 53.772 145.266 53.8847 145.201 53.9522C145.036 54.1245 145.453 54.191 145.698 54.0317C145.809 53.9598 146.17 53.9227 146.501 53.9497C146.832 53.9766 147.181 53.9504 147.276 53.8916C147.372 53.8326 147.577 53.8115 147.732 53.8445C147.887 53.8775 147.994 53.8464 147.968 53.7755C147.943 53.7046 148.089 53.6719 148.292 53.7025C148.495 53.7329 148.645 53.8345 148.626 53.9277C148.606 54.021 148.728 53.9681 148.898 53.8102C149.067 53.6521 149.364 53.5566 149.558 53.5978C149.752 53.639 150.178 53.6223 150.504 53.5609C151.302 53.4103 151.52 53.466 151.186 53.7353C150.958 53.9191 150.958 53.942 151.189 53.9074C151.335 53.8854 151.782 53.8875 152.182 53.9118C152.582 53.9358 152.968 53.8942 153.04 53.8188C153.112 53.7435 153.09 53.7109 152.991 53.7464C152.891 53.782 152.793 53.7004 152.771 53.5655C152.75 53.4306 152.664 53.3055 152.581 53.2878C152.497 53.27 152.447 53.3664 152.468 53.5019C152.518 53.8207 152.249 53.7634 152.067 53.4168C151.926 53.1476 152.073 53.1129 152.694 53.2691C152.798 53.2953 152.898 53.2445 152.916 53.1563C152.935 53.0682 152.986 53.0507 153.029 53.1173C153.072 53.1839 153.216 53.1816 153.348 53.1122C153.481 53.0426 153.951 53.0467 154.393 53.1216C154.835 53.1961 155.415 53.2181 155.682 53.1699C156.102 53.0942 156.215 53.1365 156.527 53.4888C156.832 53.8341 156.894 53.8584 156.938 53.6505C156.98 53.4542 157.082 53.4476 157.461 53.6181C157.72 53.7348 157.966 53.9176 158.007 54.0247C158.048 54.1317 158.095 54.1657 158.11 54.1003C158.125 54.0351 158.276 54.0889 158.444 54.2199C158.745 54.4545 158.746 54.452 158.458 54.0699C158.298 53.8562 158.238 53.6966 158.326 53.7153C158.414 53.734 158.51 53.8174 158.54 53.9006C158.57 53.9839 158.761 54.1223 158.965 54.2082C159.17 54.2943 159.309 54.3207 159.274 54.2672C159.239 54.2137 159.381 54.1245 159.588 54.0691C159.894 53.9874 159.978 54.0177 160.032 54.2283C160.075 54.3984 160.108 54.3457 160.129 54.0765C160.159 53.6817 160.198 53.6681 161.064 53.7521C161.561 53.8003 162.021 53.7845 162.085 53.7166C162.155 53.644 162.31 53.6966 162.464 53.8444C162.678 54.0494 162.761 54.0594 162.919 53.8981C163.083 53.7318 163.104 53.7442 163.056 53.9783C163.005 54.231 163.026 54.2387 163.291 54.0663C163.451 53.9625 163.637 53.9293 163.703 53.9933C163.888 54.1703 163.816 54.2819 163.625 54.1136C163.492 53.9957 163.488 54.0151 163.605 54.2109C163.71 54.3873 163.807 54.4195 163.951 54.3258C164.095 54.2322 164.111 54.1573 164.007 54.0583C163.784 53.8446 164.249 53.3871 164.611 53.4641C164.781 53.5001 164.891 53.4522 164.857 53.3576C164.764 53.0964 164.921 53.1817 165.132 53.5067C165.235 53.6659 165.335 53.723 165.354 53.6334C165.373 53.5438 165.662 53.5287 165.996 53.5998C166.33 53.6708 166.588 53.8013 166.57 53.8898C166.551 53.9782 166.461 53.9811 166.37 53.8961C166.26 53.7941 166.257 53.8451 166.36 54.0475C166.519 54.3575 166.71 54.3508 166.777 54.0324C166.824 53.813 167.31 53.8144 167.619 54.0344C168.094 54.3733 168.216 54.3763 168.121 54.0466C168.001 53.6333 168.168 53.5944 168.964 53.8496C169.948 54.1646 170.372 54.1188 170.331 53.7024C170.311 53.4921 170.349 53.4116 170.431 53.4906C170.512 53.5675 170.603 53.4051 170.663 53.0786C170.757 52.5667 170.558 52.312 169.931 52.1405C169.63 52.0583 169.709 51.8464 170.022 51.8972C170.345 51.9494 170.337 51.9316 169.959 51.7574C169.533 51.561 169.537 51.5581 170.194 51.586C170.562 51.6016 170.876 51.551 170.893 51.4733C170.909 51.3956 170.782 51.3292 170.61 51.3259C170.262 51.3191 170.09 51.057 170.367 50.9577C170.465 50.9226 170.518 50.8186 170.485 50.7264C170.452 50.6344 170.53 50.4761 170.658 50.3744C170.846 50.2264 170.852 50.122 170.691 49.844C170.498 49.5116 170.503 49.5038 170.829 49.65C171.159 49.7979 171.161 49.7934 170.924 49.5005C170.649 49.1597 168.529 48.645 167.482 48.6647C167.133 48.6712 166.896 48.6193 166.913 48.5399C166.952 48.3558 166.177 48.2122 165.805 48.3345ZM166.393 48.5421C166.332 48.5818 166.2 48.5594 166.1 48.4923C165.989 48.418 166.033 48.3897 166.211 48.42C166.373 48.4476 166.455 48.5024 166.393 48.5421ZM163.2 48.085C163.183 48.1684 163.24 48.2523 163.329 48.2711C163.417 48.2899 163.462 48.2278 163.428 48.1335C163.394 48.0389 163.336 47.9553 163.3 47.9474C163.263 47.9396 163.218 48.0015 163.2 48.085ZM169.43 51.6314C169.413 51.715 169.326 51.7679 169.237 51.7491C169.149 51.7303 169.133 51.6556 169.203 51.583C169.272 51.5104 169.359 51.4575 169.396 51.4653C169.433 51.4732 169.448 51.5479 169.43 51.6314ZM155.978 49.9661C156.098 50.1935 156.084 50.2139 155.892 50.0894C155.766 50.0076 155.676 49.8799 155.692 49.8053C155.733 49.61 155.816 49.6562 155.978 49.9661ZM163.66 52.6841C163.511 52.9149 163.307 53.0282 163.115 52.9872C162.945 52.9513 162.796 52.9732 162.783 53.0361C162.769 53.0989 162.552 53.1093 162.301 53.0595C161.627 52.9256 162.141 52.6401 162.875 52.7407C163.184 52.7829 163.439 52.7825 163.442 52.7394C163.445 52.6963 163.527 52.5499 163.624 52.4142C163.897 52.0327 163.928 52.2685 163.66 52.6841ZM155.932 50.9163C155.922 50.9641 155.809 51.0708 155.682 51.1538C155.43 51.3174 155.081 51.1885 155.131 50.9502C155.148 50.8687 155.218 50.855 155.286 50.9195C155.353 50.9842 155.466 50.9766 155.537 50.9028C155.673 50.7606 155.963 50.7704 155.932 50.9163ZM156.287 51.2485C156.213 51.3592 156.185 51.3156 156.215 51.1371C156.243 50.9756 156.298 50.8937 156.337 50.9546C156.377 51.016 156.355 51.1481 156.287 51.2485ZM154.459 50.9259C154.397 50.9654 154.265 50.943 154.165 50.8758C154.054 50.8017 154.098 50.7735 154.276 50.8037C154.438 50.8311 154.52 50.8861 154.459 50.9259ZM154.688 51.3005C154.621 51.3437 154.629 51.502 154.706 51.6524C154.816 51.8701 154.811 51.8939 154.679 51.7708C154.588 51.686 154.498 51.6866 154.48 51.7726C154.462 51.8585 154.337 51.8582 154.203 51.7724C153.987 51.635 153.977 51.6528 154.114 51.9212C154.2 52.0889 154.217 52.2606 154.152 52.303C154.087 52.3452 154.053 52.2896 154.076 52.1791C154.109 52.0267 154.043 52.0218 153.803 52.1591C153.532 52.3139 153.465 52.3033 153.336 52.0845C153.13 51.7343 152.863 51.7037 152.374 51.974C151.921 52.2243 151.765 52.2515 151.962 52.0452C152.031 51.9726 152.016 51.8979 151.927 51.8791C151.839 51.8603 151.747 51.9303 151.724 52.0345C151.681 52.2263 151.464 51.8101 151.502 51.6079C151.521 51.5042 152.585 51.467 152.899 51.559C153.002 51.5891 153.1 51.545 153.118 51.4611C153.136 51.3771 153.311 51.3762 153.507 51.4587C153.731 51.5529 153.912 51.5352 153.992 51.4115C154.063 51.303 154.176 51.2673 154.244 51.3325C154.312 51.3975 154.426 51.3903 154.496 51.3166C154.567 51.2429 154.666 51.1914 154.717 51.2022C154.767 51.213 154.754 51.2572 154.688 51.3005ZM161.729 52.7665C161.721 52.8052 161.562 52.8812 161.376 52.9353C161.172 52.9942 161.05 52.975 161.069 52.8871C161.086 52.8065 161.226 52.7352 161.38 52.7279C161.534 52.721 161.679 52.7109 161.702 52.7055C161.725 52.7002 161.737 52.7277 161.729 52.7665ZM164.363 53.6783C164.463 53.7456 164.595 53.768 164.656 53.7283C164.717 53.6886 164.635 53.6336 164.474 53.6062C164.295 53.5759 164.252 53.6042 164.363 53.6783ZM165.588 54.1336C165.469 54.1763 165.09 54.1284 164.746 54.0272C164.198 53.8666 164.163 53.8732 164.462 54.079C164.785 54.3012 165.738 54.4657 165.941 54.3341C166.108 54.2252 165.809 54.0548 165.588 54.1338L165.588 54.1336ZM153.483 51.8422C153.584 51.9095 153.716 51.9319 153.777 51.8922C153.838 51.8525 153.756 51.7975 153.595 51.7701C153.416 51.7398 153.372 51.7681 153.483 51.8422ZM151.36 52.0153C151.325 52.18 151.208 52.1909 150.912 52.0568C150.691 51.9568 150.254 51.8905 149.939 51.9094C149.526 51.9342 149.349 51.8883 149.303 51.7448C149.268 51.6354 149.283 51.6061 149.336 51.6794C149.389 51.7526 149.665 51.7693 149.949 51.7162C150.233 51.6631 150.545 51.6668 150.641 51.7243C150.738 51.7817 150.832 51.7609 150.85 51.6783C150.867 51.5957 151 51.5873 151.144 51.6601C151.289 51.7326 151.386 51.8925 151.36 52.0151L151.36 52.0153ZM153.216 52.193C153.254 52.3102 153.242 52.3457 153.188 52.272C153.135 52.1982 152.95 52.1786 152.779 52.2282C152.53 52.3004 152.495 52.2756 152.605 52.1062C152.771 51.8496 153.122 51.8991 153.216 52.193ZM160.36 53.9799C160.343 54.0586 160.388 54.1789 160.46 54.2474C160.535 54.319 160.573 54.2636 160.55 54.1171C160.505 53.8328 160.407 53.7614 160.36 53.9799ZM150.389 52.4122C150.372 52.4593 150.324 52.4938 150.283 52.4884C150.242 52.4831 149.9 52.5188 149.525 52.5678C148.847 52.6564 148.844 52.6552 149.18 52.4127C149.366 52.2781 149.569 52.217 149.631 52.2765C149.694 52.3361 149.878 52.3435 150.042 52.2928C150.334 52.202 150.452 52.2424 150.389 52.4122ZM151.221 52.5509C151.259 52.6086 151.142 52.6625 150.962 52.6709C150.755 52.6804 150.651 52.6126 150.678 52.486C150.719 52.2927 151.082 52.3362 151.221 52.5509ZM151.757 52.6367C151.748 52.6769 151.724 52.712 151.69 52.7344C151.655 52.7568 151.613 52.7646 151.573 52.7562C151.533 52.7475 151.498 52.7233 151.475 52.6888C151.453 52.6543 151.445 52.6124 151.453 52.5721C151.462 52.5319 151.486 52.4968 151.521 52.4744C151.555 52.452 151.597 52.4441 151.637 52.4525C151.678 52.4612 151.713 52.4855 151.735 52.52C151.758 52.5545 151.765 52.5964 151.757 52.6367ZM130.54 48.2855C130.47 48.358 130.531 48.4425 130.676 48.4731C130.82 48.5037 130.886 48.5625 130.823 48.6035C130.642 48.7205 130.245 48.4025 130.387 48.2542C130.457 48.1811 130.548 48.1285 130.59 48.1374C130.632 48.1463 130.609 48.2131 130.54 48.2855ZM154.838 53.4969C154.863 53.6589 154.93 53.761 154.987 53.7243C155.044 53.6876 155.023 53.5549 154.941 53.4299C154.823 53.2494 154.802 53.263 154.838 53.4969ZM130.099 48.2877C130.038 48.3276 129.906 48.3052 129.806 48.238C129.695 48.1637 129.739 48.1353 129.917 48.1657C130.078 48.1931 130.16 48.2479 130.099 48.2877ZM156.021 53.8604C156.054 53.9549 156.112 54.0386 156.149 54.0464C156.186 54.0543 156.23 53.9923 156.248 53.9088C156.266 53.8254 156.208 53.7415 156.12 53.7227C156.031 53.7039 155.987 53.766 156.021 53.8604ZM157.141 54.0484C157.242 54.1156 157.374 54.138 157.435 54.0982C157.496 54.0585 157.414 54.0035 157.253 53.9761C157.074 53.9458 157.031 53.9741 157.141 54.0484ZM148.697 52.573C148.501 52.7005 148.091 52.6428 148.222 52.5062C148.285 52.44 148.447 52.4092 148.581 52.4378C148.715 52.4663 148.768 52.5272 148.697 52.573ZM151.281 53.2626C151.323 53.336 151.249 53.329 151.116 53.2471C150.984 53.165 150.821 53.1549 150.755 53.2243C150.688 53.2936 150.463 53.314 150.255 53.2696C150.046 53.2252 149.897 53.2509 149.924 53.3264C149.951 53.402 149.725 53.4284 149.422 53.385C149.119 53.3417 148.735 53.3457 148.568 53.394C148.401 53.4422 148.146 53.4566 148.001 53.4257C147.856 53.3949 147.588 53.456 147.406 53.5619C147.208 53.6771 147.09 53.6837 147.112 53.5789C147.133 53.4823 147.235 53.4205 147.34 53.4416C147.467 53.4666 147.465 53.4142 147.334 53.2839C147.226 53.1764 147.191 53.0894 147.256 53.0911C147.348 53.0925 147.441 53.0915 147.534 53.0883C147.622 53.0852 147.802 53.0968 147.935 53.1139C148.067 53.1312 148.152 53.0792 148.123 52.9983C148.094 52.9174 148.232 52.9192 148.43 53.0026C148.649 53.0947 148.805 53.0837 148.828 52.9743C148.851 52.8663 148.975 52.856 149.138 52.9487C149.287 53.0335 149.47 53.0388 149.545 52.9602C149.62 52.8817 149.799 52.884 149.941 52.9651C150.084 53.0461 150.252 53.0587 150.315 52.993C150.444 52.8579 151.164 53.0589 151.281 53.2626ZM151.849 53.6961C151.837 53.7543 151.742 53.6947 151.639 53.5641C151.536 53.4335 151.465 53.2617 151.482 53.1825C151.499 53.1032 151.594 53.1627 151.692 53.3146C151.791 53.4664 151.862 53.6382 151.849 53.6961ZM127.829 48.3441C127.759 48.4167 127.813 48.4996 127.948 48.5283C128.084 48.557 128.166 48.5033 128.132 48.4089C128.099 48.3144 128.045 48.2316 128.013 48.2248C127.981 48.218 127.898 48.2718 127.829 48.3441ZM125.794 48.3351C125.569 48.4812 125.614 48.6672 125.885 48.7123C126.047 48.7391 126.085 48.7102 125.979 48.6395C125.883 48.5748 125.857 48.4677 125.92 48.4013C126.054 48.261 125.973 48.2186 125.794 48.3351ZM126.391 48.6232C126.491 48.6903 126.623 48.7127 126.684 48.673C126.745 48.6333 126.663 48.5785 126.502 48.5509C126.323 48.5206 126.28 48.5489 126.391 48.6232ZM129.432 49.403C129.551 49.6304 129.537 49.6508 129.346 49.5263C129.22 49.4445 129.13 49.3168 129.146 49.2421C129.187 49.0468 129.269 49.0929 129.432 49.403ZM132.255 49.9183C132.29 50.0154 132.223 50.028 132.099 49.9476C131.858 49.7906 131.833 49.6716 132.051 49.718C132.13 49.7347 132.221 49.8248 132.255 49.9183ZM128.409 49.2046C128.3 49.2241 128.229 49.3459 128.249 49.4755C128.27 49.6052 128.218 49.6969 128.135 49.6791C128.051 49.6614 127.966 49.5406 127.945 49.4112C127.91 49.1857 128.128 49.0679 128.454 49.1371C128.537 49.1548 128.517 49.1852 128.409 49.2046ZM151.814 54.2361C151.742 54.311 151.632 54.3235 151.57 54.2636C151.507 54.2039 151.399 54.2154 151.328 54.2889C151.181 54.4429 151.456 54.5103 151.92 54.4336C152.123 54.4001 152.185 54.3304 152.091 54.2404C152.01 54.163 151.885 54.1613 151.814 54.2361ZM127.708 49.5296C127.71 49.5894 127.59 49.6304 127.44 49.6211C127.208 49.6064 127.204 49.5611 127.413 49.3134C127.635 49.0506 127.689 49.0902 127.708 49.5296ZM146.422 53.6356C146.136 53.6565 145.827 53.7526 145.736 53.8491C145.6 53.9933 145.54 53.9771 145.398 53.759C145.165 53.4002 145.217 53.2531 145.509 53.4431C145.641 53.5286 145.706 53.532 145.652 53.4507C145.599 53.3691 145.834 53.2829 146.174 53.2587C146.626 53.2268 146.813 53.2667 146.868 53.4061C146.914 53.525 146.746 53.612 146.422 53.6356ZM127.008 49.3452C126.982 49.4667 126.877 49.5034 126.764 49.43C126.602 49.3244 126.608 49.2865 126.797 49.2164C126.923 49.1693 127.033 49.1312 127.04 49.1313C127.047 49.1315 127.032 49.2278 127.008 49.3452ZM149.276 54.104C149.247 54.2406 149.322 54.3199 149.459 54.298C149.587 54.2778 149.8 54.2843 149.932 54.3124C150.255 54.381 150.153 54.2669 149.697 54.0501C149.421 53.9187 149.312 53.9328 149.276 54.104ZM147.853 54.2992C147.782 54.3455 147.485 54.3153 147.193 54.2324C146.81 54.1238 146.683 54.1396 146.736 54.289C146.787 54.4293 146.739 54.4499 146.59 54.3531C146.467 54.2733 146.316 54.2925 146.249 54.3964C146.182 54.4989 145.867 54.6114 145.547 54.6466C145.228 54.6815 144.955 54.7656 144.941 54.8332C144.908 54.9886 146.886 54.9284 146.992 54.7706C147.035 54.7066 147.124 54.7064 147.191 54.7704C147.258 54.8344 147.376 54.7891 147.454 54.6695C147.532 54.5499 147.642 54.497 147.699 54.5519C147.757 54.6068 147.864 54.5579 147.939 54.4431C148.086 54.2169 148.056 54.1673 147.853 54.2992ZM122.389 49.2623C122.324 49.33 122.191 49.3624 122.093 49.3347C121.965 49.2988 121.974 49.2739 122.122 49.248C122.236 49.228 122.299 49.129 122.263 49.0279C122.224 48.9184 122.26 48.9038 122.352 48.992C122.437 49.0731 122.453 49.1948 122.389 49.2623ZM120.002 50.4445C119.993 50.4863 119.891 50.4594 119.776 50.3847C119.661 50.31 119.556 50.3001 119.543 50.3628C119.529 50.4254 119.345 50.4546 119.132 50.4275C118.92 50.4003 118.761 50.3065 118.78 50.2192C118.798 50.1315 118.858 50.1005 118.913 50.1501C118.968 50.1995 119.161 50.2188 119.341 50.1928C119.658 50.147 120.034 50.2902 120.002 50.4445ZM135.657 53.705C135.428 53.757 135.175 53.8592 135.096 53.9318C135.016 54.0049 134.962 54.0044 134.977 53.9315C134.991 53.8582 134.885 53.8598 134.742 53.9348C134.599 54.01 134.42 54.0123 134.344 53.9397C134.269 53.8674 134.191 53.8846 134.171 53.9779C134.151 54.0712 134.071 54.0871 133.994 54.0131C133.917 53.9392 133.751 53.9624 133.626 54.0647C133.385 54.2617 131.839 54.4861 131.743 54.3382C131.712 54.2902 131.789 54.2362 131.914 54.2182C132.04 54.2002 132.438 54.1389 132.799 54.0821C133.414 53.9855 133.424 53.9769 132.947 53.9488C132.666 53.9325 132.448 53.8696 132.461 53.809C132.493 53.662 135.212 53.4273 135.695 53.5298L136.074 53.6103L135.657 53.705ZM118.409 50.4686C118.394 50.5419 118.25 50.5637 118.09 50.5167C117.871 50.4528 117.849 50.3917 118.001 50.2714C118.208 50.1075 118.46 50.2292 118.409 50.4686ZM118.284 50.8557C118.223 50.8953 118.091 50.8731 117.99 50.8057C117.879 50.7316 117.923 50.7033 118.101 50.7336C118.263 50.761 118.345 50.816 118.284 50.8557ZM132.302 53.8094C132.294 53.8463 132.21 53.904 132.116 53.938C132.021 53.9718 131.959 53.927 131.978 53.8388C131.997 53.7503 132.081 53.6924 132.164 53.7101C132.248 53.7279 132.31 53.7725 132.302 53.8094ZM115.766 50.9426C115.633 51.0473 115.493 51.0853 115.455 51.0266C115.417 50.9682 115.5 50.878 115.639 50.8264C116.004 50.6913 116.041 50.7251 115.766 50.9426ZM129.806 54.0809C129.827 54.2158 129.913 54.3015 129.998 54.2713C130.241 54.1844 130.235 53.935 129.99 53.8828C129.854 53.854 129.782 53.9319 129.806 54.0809ZM130.334 54.1055C130.317 54.1841 130.363 54.3043 130.434 54.3731C130.509 54.4444 130.547 54.389 130.524 54.2427C130.479 53.9583 130.381 53.887 130.334 54.1055ZM113.758 50.9089C113.679 51.0667 113.55 51.1821 113.471 51.1653C113.393 51.1486 113.385 51.0756 113.454 51.003C113.65 50.7978 113.395 50.8036 113.153 51.0097C113.035 51.1105 112.761 51.1851 112.545 51.1747C112.329 51.1644 112.245 51.1451 112.358 51.1316C112.471 51.1182 112.537 51.0342 112.505 50.9454C112.473 50.8566 112.357 50.8129 112.246 50.8485C112.135 50.8839 112.111 50.8659 112.191 50.8084C112.391 50.6642 112.827 50.704 112.684 50.8532C112.621 50.9194 112.679 50.997 112.815 51.0258C112.95 51.0545 113.035 51.0073 113.004 50.9208C112.973 50.8344 113.151 50.7351 113.399 50.6999C113.647 50.6647 113.862 50.6329 113.876 50.6291C113.891 50.6252 113.838 50.7511 113.758 50.9089ZM114.243 51.0503C114.086 51.0991 113.926 51.09 113.886 51.0301C113.848 50.9701 113.899 50.9389 114.002 50.9606C114.104 50.9824 114.161 50.9238 114.127 50.8303C114.091 50.7307 114.162 50.7226 114.298 50.811C114.513 50.9507 114.509 50.9678 114.243 51.0503ZM115.162 50.9949C115.049 51.0151 114.878 50.9788 114.783 50.9142C114.687 50.8501 114.78 50.8338 114.989 50.8781C115.198 50.9225 115.276 50.9751 115.162 50.9949ZM129.318 54.1369C129.339 54.2722 129.384 54.3889 129.416 54.3958C129.449 54.4028 129.498 54.3062 129.524 54.1808C129.551 54.0555 129.507 53.939 129.426 53.9218C129.345 53.9047 129.296 54.0013 129.318 54.1369ZM127.648 54.234C127.36 54.2549 127.111 54.3351 127.094 54.4121C127.063 54.5593 127.458 54.5524 128.289 54.3913C128.879 54.2772 128.463 54.1748 127.648 54.234ZM111.779 51.0438C111.86 51.1984 111.855 51.2978 111.766 51.2789C111.681 51.2609 111.594 51.1354 111.572 50.9999C111.551 50.8643 111.557 50.7586 111.586 50.7648C111.615 50.7709 111.702 50.8964 111.779 51.0438ZM110.145 50.9236C110.08 50.9911 110.089 51.105 110.164 51.1766C110.239 51.2482 110.246 51.3629 110.18 51.4317C109.996 51.6243 109.826 51.3756 109.946 51.09C110.089 50.7516 110.081 50.7621 110.177 50.7826C110.224 50.7925 110.209 50.8559 110.145 50.9236ZM111.386 51.2282C111.332 51.3203 111.201 51.4055 111.094 51.4175C110.976 51.4308 110.956 51.3542 111.045 51.2185C111.209 50.9648 111.535 50.9741 111.386 51.2282ZM110.707 51.2018C110.739 51.2898 110.686 51.3897 110.59 51.4243C110.494 51.4586 110.438 51.3802 110.465 51.25C110.522 50.9832 110.622 50.9634 110.707 51.2018ZM103.693 49.8806C103.624 49.9531 103.499 49.9979 103.415 49.9802C103.332 49.9624 103.32 49.8886 103.39 49.816C103.459 49.7434 103.584 49.6986 103.667 49.7163C103.751 49.7341 103.763 49.808 103.693 49.8806ZM109.061 51.536C108.74 51.6357 108.582 51.5018 108.778 51.2963C108.849 51.2223 109.006 51.2258 109.127 51.3044C109.324 51.4317 109.317 51.4568 109.061 51.536ZM129.594 55.7196C129.327 55.744 128.995 55.7098 128.856 55.6434C128.718 55.577 128.629 55.5927 128.66 55.6783C128.691 55.7641 128.643 55.8187 128.555 55.7999C128.466 55.7811 128.38 55.8293 128.364 55.9069C128.33 56.0655 128.908 56.0464 129.803 55.8596C130.45 55.7247 130.34 55.6514 129.594 55.7197L129.594 55.7196ZM102.549 50.0943C102.431 50.2174 101.782 50.2867 101.806 50.1736C101.813 50.1371 101.987 50.0779 102.191 50.0423C102.674 49.958 102.678 49.9585 102.549 50.0943ZM108.496 51.5533C108.477 51.6459 108.374 51.6653 108.268 51.5967C108.163 51.528 107.979 51.5351 107.86 51.6122C107.742 51.6892 107.595 51.7479 107.535 51.7426C107.475 51.7377 107.315 51.7516 107.18 51.774C106.851 51.8284 105.748 51.926 105.512 51.9217C105.408 51.92 104.928 51.9538 104.445 51.997C103.408 52.0899 103.461 52.0949 103.501 51.9033C103.519 51.8198 103.662 51.7786 103.819 51.8119C103.976 51.8452 104.361 51.8243 104.675 51.765C104.989 51.7059 105.453 51.6673 105.705 51.6794C105.957 51.6917 106.181 51.6995 106.204 51.697C106.226 51.6946 106.297 51.6978 106.361 51.704C106.425 51.7102 106.59 51.6559 106.727 51.5834C107.382 51.2372 108.568 51.217 108.496 51.5533ZM101.568 50.295C101.542 50.4166 101.471 50.4678 101.409 50.4087C101.347 50.35 101.35 50.2464 101.414 50.179C101.579 50.0063 101.623 50.0391 101.568 50.295ZM126.624 55.9538C125.748 56.1314 126.058 56.2414 127.132 56.1341C127.878 56.0595 127.994 56.0148 127.643 55.9385C127.393 55.8839 126.934 55.891 126.624 55.9538ZM112.775 53.0808C112.632 53.1351 112.447 53.1649 112.364 53.1471C112.28 53.1294 112.328 53.0705 112.471 53.0163C112.613 52.962 112.798 52.9321 112.882 52.9498C112.965 52.9676 112.917 53.0264 112.775 53.0808ZM122.876 55.4924C122.64 55.6805 122.658 55.6996 123.054 55.6859C123.296 55.6773 123.482 55.7257 123.468 55.7929C123.427 55.983 122.781 55.8486 122.594 55.6108C122.457 55.4376 122.467 55.3827 122.649 55.3152C123.027 55.1745 123.153 55.2726 122.876 55.4924ZM125.694 56.1445C125.625 56.2169 125.641 56.2916 125.729 56.3104C125.818 56.3292 125.905 56.2763 125.922 56.1927C125.94 56.1094 125.925 56.0346 125.888 56.0268C125.851 56.019 125.764 56.0721 125.694 56.1445ZM122.557 55.9458C122.59 56.0354 122.444 56.1514 122.234 56.2033C121.884 56.2898 121.879 56.284 122.173 56.135C122.414 56.0129 122.449 55.9422 122.313 55.8509C122.19 55.7688 122.191 55.7381 122.315 55.7561C122.416 55.7708 122.525 55.8559 122.557 55.9458ZM103.32 52.0109C103.291 52.1456 102.388 52.2206 102.297 52.0958C102.273 52.0623 102.101 52.1095 101.915 52.201C101.602 52.3552 101.597 52.351 101.846 52.143C101.994 52.0194 102.138 51.9538 102.166 51.9971C102.194 52.0405 102.421 52.0194 102.669 51.9503C103.198 51.8031 103.361 51.818 103.32 52.0109ZM121.798 56.1799C121.79 56.2168 121.707 56.2745 121.612 56.3083C121.518 56.3424 121.456 56.2975 121.474 56.2091C121.493 56.1206 121.577 56.0629 121.661 56.0806C121.744 56.0984 121.806 56.1432 121.798 56.1799ZM120.913 56.2391C120.843 56.3117 120.672 56.3414 120.532 56.3057C120.324 56.2523 120.339 56.2282 120.609 56.1746C121.052 56.0863 121.058 56.0875 120.913 56.2391ZM95.5665 50.9474C95.5053 50.9871 95.3732 50.9647 95.273 50.8976C95.1621 50.8233 95.2057 50.795 95.3843 50.8253C95.5456 50.8529 95.6276 50.9077 95.5665 50.9474ZM96.2735 51.5573C96.2469 51.6827 96.1589 51.7709 96.0779 51.7537C95.9972 51.7366 95.9921 51.6285 96.0667 51.5134C96.1415 51.3983 96.2295 51.31 96.2622 51.3169C96.295 51.3239 96.3001 51.432 96.2735 51.5573ZM96.9167 51.5184C96.9097 51.5511 96.7894 51.5962 96.6491 51.6185C96.503 51.6415 96.4475 51.6032 96.5188 51.5284C96.6387 51.4029 96.9428 51.3953 96.9167 51.5184ZM113.924 55.1411C113.916 55.178 113.832 55.2357 113.738 55.2695C113.644 55.3035 113.581 55.2587 113.6 55.1702C113.619 55.0818 113.703 55.0241 113.786 55.0418C113.87 55.0596 113.932 55.1042 113.924 55.1411ZM108.608 54.7213C108.292 54.7921 107.969 54.9079 107.89 54.9786C107.811 55.0491 107.756 55.0531 107.769 54.9873C107.781 54.9213 107.641 54.911 107.457 54.9644C107.188 55.0424 107.149 55.0215 107.255 54.8573C107.328 54.7451 107.59 54.652 107.838 54.6503C108.086 54.6487 108.344 54.562 108.411 54.4575C108.49 54.3372 108.654 54.3273 108.859 54.4301C109.161 54.5818 109.144 54.6012 108.608 54.7213ZM119.274 56.8525C119.256 56.9409 119.317 56.9855 119.412 56.9517C119.506 56.9179 119.59 56.8602 119.598 56.8233C119.606 56.7862 119.544 56.7418 119.46 56.724C119.377 56.7063 119.293 56.7642 119.274 56.8525ZM89.6113 51.1642C89.2435 51.2512 89.0147 51.3438 89.1027 51.3694C89.1908 51.3954 89.5598 51.3395 89.9226 51.2455C90.7697 51.0263 90.4958 50.9549 89.6113 51.1642ZM116.107 56.8203C114.993 56.9677 114.454 56.9576 114.613 56.7921C114.644 56.7588 114.687 56.7393 114.732 56.7377C114.778 56.7362 114.822 56.7527 114.856 56.7837C114.923 56.8482 114.991 56.842 115.007 56.7694C115.022 56.6969 115.34 56.6283 115.713 56.6166C116.844 56.5815 117.061 56.6942 116.107 56.8203ZM87.352 51.0051C87.2127 51.055 87.277 51.1133 87.5301 51.1671C87.9722 51.2611 88.0339 51.2287 87.7563 51.0486C87.6535 50.9817 87.4716 50.9621 87.352 51.0051ZM114.337 56.9314C114.322 57.0008 114.169 57.0279 113.998 56.9914C113.826 56.9548 113.732 56.8754 113.79 56.8151C113.848 56.7546 114.001 56.7275 114.129 56.7549C114.259 56.7823 114.352 56.8616 114.337 56.9314ZM108.583 55.9992C108.127 56.0898 107.888 56.0388 108.203 55.9185C108.346 55.8642 108.564 55.8451 108.688 55.8765C108.838 55.9138 108.802 55.9556 108.583 55.9992ZM102.623 54.8798C102.527 54.9405 102.234 54.9887 101.973 54.9866L101.498 54.9829L102 54.8578C102.595 54.7099 102.875 54.7197 102.623 54.8798ZM90.9332 52.7861C90.9262 52.8189 90.8057 52.8641 90.6655 52.8862C90.5194 52.9092 90.4638 52.8708 90.5353 52.7962C90.655 52.6707 90.9593 52.6631 90.9332 52.7861ZM91.8504 53.1797C91.7421 53.199 91.6723 53.3331 91.6951 53.4775C91.7214 53.6444 91.6836 53.6897 91.5915 53.6015C91.5115 53.5251 91.3875 53.5239 91.3159 53.5987C91.2443 53.6736 91.1345 53.6861 91.072 53.6264C91.0094 53.5664 90.9006 53.5779 90.8301 53.6516C90.7597 53.7254 90.5829 53.7604 90.4375 53.7295C90.292 53.6985 90.0695 53.7405 89.943 53.8228C89.8162 53.905 89.6641 53.9665 89.6044 53.9595C89.5447 53.9523 89.2054 53.9691 88.8505 53.9967C88.0555 54.0585 87.9678 54.042 88.0109 53.8393C88.0297 53.7509 88.0995 53.7305 88.1658 53.794C88.3115 53.9333 90.6494 53.5466 90.5535 53.3989C90.5165 53.3421 90.5754 53.3184 90.6842 53.3467C91.1607 53.47 91.438 53.4554 91.3858 53.3097C91.3301 53.1545 91.601 53.0496 91.8955 53.1122C91.979 53.13 91.9589 53.1601 91.8504 53.1797ZM106.535 57.7954C106.516 57.8836 106.578 57.9284 106.672 57.8946C106.767 57.8606 106.851 57.8029 106.858 57.766C106.866 57.7291 106.804 57.6845 106.721 57.6668C106.637 57.649 106.553 57.7069 106.535 57.7954ZM85.4143 53.3606C85.4072 53.3941 85.1811 53.4495 84.912 53.4835C84.3455 53.5553 84.2725 53.4312 84.8246 53.3349C85.2421 53.2622 85.4335 53.2704 85.4143 53.3606ZM106.057 57.9428C105.926 58.0919 105.844 58.0995 105.796 57.9669C105.684 57.6523 105.468 57.6924 105.484 58.0254C105.496 58.2953 105.56 58.3245 106.008 58.2677C106.289 58.2321 106.441 58.1571 106.345 58.1011C106.25 58.0452 106.224 57.945 106.287 57.8787C106.351 57.8123 106.368 57.7505 106.325 57.7414C106.283 57.7324 106.162 57.8231 106.057 57.9428ZM100.719 56.7785C100.711 56.8154 100.628 56.8732 100.533 56.9072C100.439 56.941 100.377 56.8963 100.395 56.8079C100.414 56.7194 100.498 56.6615 100.582 56.6793C100.665 56.697 100.727 56.7417 100.719 56.7785ZM105.052 58.0395C105.003 58.2605 104.967 58.274 104.901 58.0963C104.84 57.9332 104.772 57.9068 104.674 58.0085C104.598 58.0888 104.59 58.1681 104.657 58.1845C104.724 58.2011 104.477 58.292 104.107 58.3864C103.52 58.5365 103.496 58.5582 103.912 58.5588C104.174 58.5594 104.474 58.5748 104.579 58.5938C104.684 58.6125 104.784 58.5636 104.801 58.4849C104.817 58.4065 104.921 58.4005 105.031 58.4719C105.173 58.5643 105.232 58.5074 105.237 58.2732C105.245 57.8267 105.131 57.6822 105.052 58.0395ZM83.4094 53.8323C83.3906 53.9207 83.3159 53.9363 83.2433 53.867C83.1707 53.7975 83.0992 53.7982 83.0843 53.8684C83.0503 54.0281 82.1157 54.18 82.025 54.0403C81.9882 53.9837 82.2399 53.8722 82.5843 53.7924C83.3394 53.6177 83.4538 53.6232 83.4094 53.8323ZM83.7905 54.6044C82.9533 54.7752 82.4493 54.7532 83.1715 54.5775C83.5399 54.4878 83.9441 54.4339 84.0701 54.4575C84.1961 54.4812 84.0701 54.5472 83.7905 54.6044ZM92.3941 56.3675C92.3763 56.451 92.3317 56.5129 92.2948 56.5051C92.2579 56.4972 92.2002 56.4136 92.1662 56.319C92.1323 56.2247 92.1772 56.1626 92.2654 56.1814C92.3539 56.2002 92.4118 56.2841 92.3941 56.3675ZM81.9005 54.2094C81.8756 54.3266 81.4038 54.3247 81.3615 54.2073C81.3362 54.1364 81.4495 54.0968 81.6134 54.1188C81.7772 54.1411 81.9064 54.1817 81.9005 54.2094ZM91.7656 56.7101C91.6963 56.7826 91.5583 56.8237 91.4591 56.8013C91.3508 56.7767 91.3823 56.721 91.5379 56.6617C91.8697 56.5351 91.9222 56.5463 91.7656 56.7101ZM81.9204 54.8636C81.9 54.9594 80.8154 55.1822 80.6393 55.1271C80.5753 55.107 80.8231 55.022 81.1902 54.9383C81.9919 54.7557 81.9422 54.7609 81.9204 54.8636ZM91.1892 56.8088C91.1822 56.8415 91.0656 56.886 90.93 56.9075C90.7945 56.9289 90.6979 56.8802 90.7151 56.7993C90.7323 56.7184 90.8487 56.6739 90.974 56.7005C91.0994 56.7272 91.1962 56.7759 91.1892 56.8088ZM89.8084 56.8445C89.8294 56.977 89.7887 57.1065 89.718 57.1319C89.6471 57.1572 89.6075 57.0439 89.6295 56.8801C89.6775 56.5256 89.7555 56.5102 89.8084 56.8445ZM80.4429 55.093C80.408 55.2575 79.3993 55.5737 79.3164 55.4462C79.2875 55.4017 79.4892 55.3236 79.7648 55.2724C80.0406 55.2215 80.2786 55.1196 80.2942 55.0462C80.3098 54.9727 80.3568 54.9201 80.3985 54.929C80.4403 54.9379 80.4603 55.0115 80.4429 55.093ZM83.7289 56.1553C83.5473 56.2723 83.5335 56.2511 83.6619 56.0522C83.7508 55.9145 83.8536 55.8483 83.8905 55.9051C83.9274 55.9617 83.8547 56.0743 83.7289 56.1553ZM78.99 55.5819C78.9205 55.6543 78.7826 55.6954 78.6834 55.6731C78.575 55.6483 78.6065 55.5927 78.7623 55.5335C79.0941 55.4068 79.1466 55.4179 78.99 55.5819ZM79.473 55.9226C79.4464 56.0479 79.3757 56.1287 79.3159 56.102C79.1451 56.0262 78.5611 56.1638 78.3993 56.3176C78.3113 56.4016 78.2747 56.3513 78.3072 56.1911C78.3501 55.9801 78.864 55.7648 79.4807 55.6992C79.5031 55.6967 79.4996 55.7973 79.473 55.9226ZM81.6032 56.3561C81.5965 56.3875 81.4514 56.4818 81.2808 56.5653C80.9998 56.7028 80.9957 56.6964 81.2356 56.4957C81.4879 56.2848 81.6297 56.2311 81.6032 56.3561ZM83.8126 57.1624C83.2527 57.3418 83.0055 57.2926 83.4409 57.0885C83.629 57.0003 83.8855 56.9502 84.0107 56.9772C84.1428 57.0054 84.0595 57.0833 83.8126 57.1624ZM95.0011 59.9114C94.5724 60.1166 93.17 60.2501 93.0693 60.0953C93.0376 60.0463 93.2176 60.001 93.4694 59.9945C93.7211 59.988 94.0269 59.9338 94.1486 59.8737C94.2707 59.8137 94.3621 59.8031 94.3521 59.8499C94.3421 59.8972 94.5427 59.8775 94.7978 59.8064C95.4222 59.6327 95.4998 59.6728 95.0011 59.9114ZM82.2182 57.5212C82.2485 57.6059 82.1665 57.6919 82.0361 57.7124C81.8779 57.7376 81.8427 57.6829 81.9304 57.5479C82.0825 57.3135 82.1417 57.308 82.2182 57.5212ZM78.0112 56.9214C78.1489 57.2024 78.1423 57.2065 77.9416 56.9666C77.785 56.7791 77.709 56.7541 77.682 56.8811C77.6611 56.9797 77.5782 56.9977 77.498 56.9208C77.3961 56.8235 77.4227 56.755 77.5856 56.6944C77.7142 56.6466 77.8285 56.6086 77.8395 56.6095C77.8503 56.6104 77.9277 56.7508 78.0112 56.9214ZM78.847 56.969C78.8786 57.057 78.8387 57.1525 78.7584 57.1813C78.6781 57.2101 78.6335 57.1341 78.6593 57.0125C78.7138 56.7564 78.7665 56.7444 78.847 56.969ZM76.9379 57.1322C76.7818 57.2023 76.6891 57.3136 76.7319 57.3795C76.8121 57.5028 76.525 57.4992 76.1729 57.3722C76.0633 57.3328 76.0005 57.3747 76.0331 57.4656C76.1409 57.7665 75.6284 57.7108 75.4791 57.4055C75.3491 57.1397 75.3564 57.1342 75.5437 57.3577C75.7242 57.5729 75.7791 57.566 75.924 57.3111C76.0681 57.0575 76.1236 57.0502 76.2948 57.2624C76.4681 57.4771 76.4901 57.4705 76.4519 57.2166C76.4251 57.0392 76.4595 56.9709 76.5377 57.0458C76.6095 57.1143 76.6812 57.1095 76.697 57.035C76.7128 56.9605 76.8374 56.9232 76.9736 56.9522C77.2015 57.0006 77.1989 57.015 76.9379 57.1322ZM82.1187 58.3611C81.8403 58.5039 80.2857 58.8199 80.3048 58.73C80.3178 58.6688 80.7014 58.5323 81.1573 58.4262C81.6363 58.3148 81.962 58.1547 81.9288 58.0471C81.8973 57.9446 81.9446 57.9645 82.0337 58.0911C82.1228 58.2178 82.1611 58.3392 82.1187 58.3611ZM85.7445 59.1365C85.9704 59.1139 85.9737 59.1282 85.7641 59.2185C85.6245 59.2786 85.463 59.2824 85.4051 59.2272C85.3472 59.1718 85.2851 59.1956 85.2672 59.2801C85.2492 59.3648 85.406 59.4559 85.6159 59.4827C85.8255 59.5095 85.9677 59.5968 85.9319 59.6763C85.8603 59.8347 85.7663 59.815 85.177 59.5174C84.8738 59.3643 84.7715 59.3718 84.7336 59.55C84.7065 59.6774 84.7619 59.8369 84.8567 59.9045C84.9515 59.9722 84.8341 59.971 84.5961 59.902C84.3378 59.8272 84.1154 59.8555 84.0447 59.9718C83.9638 60.1053 84.0009 60.1434 84.1612 60.0924C84.3545 60.031 84.3532 60.0478 84.1551 60.1868C83.9499 60.3309 83.9009 60.3189 83.8245 60.1054C83.7188 59.8107 84.0299 59.5102 84.3664 59.5817C84.5045 59.6111 84.5769 59.534 84.5529 59.3832C84.518 59.1618 84.6904 59.1011 85.0057 59.2241C85.0685 59.2485 85.1893 59.1615 85.2744 59.0303C85.3627 58.8943 85.4383 58.8718 85.4502 58.9778C85.4617 59.0801 85.5943 59.1514 85.7445 59.1365ZM91.592 60.5136C91.405 60.5729 91.1857 60.6848 91.1051 60.7625C91.0037 60.86 90.9698 60.8472 90.9949 60.7208C91.0327 60.531 91.5161 60.3175 91.7805 60.3737C91.8641 60.3914 91.7793 60.4544 91.592 60.5136ZM75.2648 57.7039C75.4093 57.6922 75.3107 57.7534 75.0455 57.84C74.3849 58.0552 73.9987 58.0298 74.0529 57.7746C74.0843 57.6271 74.1435 57.6206 74.2483 57.753C74.3946 57.9381 74.8723 57.7273 74.7937 57.5126C74.7749 57.462 74.8144 57.4892 74.8808 57.573C74.9474 57.6565 75.1199 57.7154 75.2648 57.7039ZM83.9716 59.4014C83.9646 59.4342 83.8443 59.4794 83.7039 59.5015C83.5578 59.5245 83.5024 59.4862 83.5737 59.4115C83.6936 59.2861 83.9977 59.2784 83.9716 59.4014ZM80.0472 58.8224C79.9778 58.8949 79.8399 58.9358 79.7406 58.9136C79.6322 58.8889 79.6637 58.8333 79.8193 58.7739C80.1512 58.6474 80.2037 58.6586 80.0472 58.8224ZM87.8641 60.7404C87.7529 60.9119 87.7069 60.9101 87.6433 60.7326C87.581 60.5585 87.5278 60.5619 87.4069 60.7482C87.321 60.8804 87.178 60.973 87.089 60.954C86.9998 60.9351 87.1211 60.7844 87.3587 60.6196C87.8133 60.3038 88.1027 60.3729 87.8641 60.7404ZM79.924 59.1823C80.0452 59.1435 79.9789 59.2183 79.7766 59.3486C79.4013 59.5902 79.0073 59.6068 79.0558 59.3787C79.0706 59.3093 79.1894 59.2749 79.3194 59.3026C79.4497 59.3302 79.5298 59.279 79.4974 59.1888C79.4649 59.0983 79.3132 59.0369 79.1598 59.0525C78.929 59.0758 78.9251 59.0618 79.1373 58.9706C79.3131 58.8949 79.4422 58.9219 79.5486 59.0564C79.634 59.1645 79.8029 59.221 79.924 59.1823ZM69.9264 57.5137C69.9133 57.5817 69.8431 57.5804 69.7705 57.5111C69.698 57.4416 69.6208 57.4686 69.5991 57.571C69.5773 57.6734 69.5348 57.719 69.5046 57.6724C69.4742 57.6257 69.5237 57.4397 69.6142 57.2591C69.7379 57.013 69.8006 56.9884 69.8646 57.1603C69.9116 57.2869 69.9394 57.4459 69.9264 57.5137ZM78.8516 59.1321C78.8746 59.2782 78.8363 59.3336 78.7614 59.2622C78.6896 59.1937 78.6054 59.2578 78.5742 59.4046C78.5324 59.6012 78.4822 59.6177 78.3839 59.466C78.2855 59.3145 78.3181 59.2103 78.5078 59.0699C78.8276 58.8332 78.8035 58.8288 78.8516 59.1321ZM69.4044 57.2348C69.3162 57.3252 69.2298 57.4595 69.2127 57.5335C69.1956 57.6074 68.9894 57.6479 68.754 57.6236C68.2984 57.5766 68.42 57.4358 69.1321 57.1862C69.5687 57.0331 69.5969 57.0383 69.4044 57.2348ZM81.7081 59.969C81.6388 60.0416 81.5009 60.0825 81.4015 60.0602C81.2931 60.0356 81.3246 59.9799 81.4804 59.9206C81.8122 59.7941 81.8647 59.8052 81.7081 59.969ZM83.5074 60.5898C83.3495 60.6605 83.2588 60.7848 83.3057 60.8656C83.3525 60.9464 83.321 60.9501 83.2356 60.8737C83.1503 60.7974 83.0343 60.813 82.9784 60.9085C82.9223 61.004 82.8692 60.927 82.8603 60.7375C82.8481 60.4729 82.8946 60.4257 83.0607 60.5334C83.2019 60.625 83.2522 60.6048 83.2057 60.4748C83.1577 60.3409 83.2124 60.3265 83.3737 60.4312C83.5488 60.5449 83.5912 60.5256 83.5315 60.3589C83.4738 60.1982 83.5005 60.1799 83.6221 60.2962C83.7589 60.427 83.7352 60.4876 83.5074 60.5898ZM78.0943 59.4219C78.0873 59.4549 77.9707 59.4991 77.8353 59.5207C77.6998 59.542 77.6031 59.4934 77.6203 59.4127C77.6375 59.3317 77.754 59.2873 77.8793 59.3139C78.0044 59.3405 78.1013 59.3892 78.0943 59.4219ZM82.6972 60.8936C82.6794 60.9771 82.6204 60.9288 82.5662 60.7863C82.5119 60.6438 82.482 60.4588 82.4997 60.3755C82.5174 60.2919 82.5764 60.34 82.6307 60.4826C82.685 60.6251 82.7149 60.81 82.6972 60.8936ZM81.9199 60.5697C81.9413 60.705 82.0239 60.8298 82.1035 60.8467C82.1831 60.8636 82.2161 60.7882 82.1771 60.679C82.1328 60.5561 82.1639 60.536 82.2581 60.6264C82.3418 60.7063 82.3991 60.8253 82.3853 60.8906C82.3479 61.0666 81.4785 61.2492 81.1807 61.1436C81.0387 61.093 80.91 61.1108 80.8947 61.1827C80.8584 61.3532 79.7205 61.511 79.622 61.3593C79.5803 61.2953 79.7055 61.2356 79.9002 61.2266C80.0947 61.2174 80.2666 61.1497 80.2823 61.076C80.298 61.0022 80.4435 60.97 80.6057 61.0045C80.7679 61.0389 80.962 61.0027 81.0376 60.9238C81.1128 60.8448 81.2965 60.8415 81.4454 60.9162C81.6407 61.0142 81.7332 60.9715 81.7776 60.7625C81.8487 60.4282 81.7997 60.4041 81.3015 60.5263C80.9481 60.6129 80.9474 60.61 81.2806 60.4424C81.7131 60.225 81.8702 60.2564 81.9199 60.5697ZM86.0912 61.3768C86.0735 61.4604 85.9865 61.5133 85.8983 61.4946C85.8098 61.4758 85.794 61.401 85.8636 61.3284C85.9329 61.2559 86.0197 61.2029 86.0565 61.2107C86.0934 61.2186 86.109 61.2933 86.0912 61.3768ZM68.2987 58.0001C68.3217 58.1462 68.2833 58.2018 68.2087 58.1302C68.1369 58.0617 68.0919 57.9414 68.1086 57.8627C68.155 57.6442 68.2537 57.7156 68.2987 58.0001ZM66.6316 57.7167C66.5623 57.7893 66.4372 57.8341 66.3536 57.8164C66.2702 57.7986 66.2586 57.7248 66.3279 57.6522C66.3974 57.5796 66.5224 57.5348 66.606 57.5526C66.6895 57.5703 66.7012 57.6442 66.6316 57.7167ZM67.6509 58.5226C67.4225 58.6197 67.0788 58.8009 66.8871 58.9256C66.6954 59.05 66.5073 59.1041 66.4692 59.0456C66.3751 58.9007 67.0358 58.4375 67.2669 58.4867C67.3689 58.5083 67.561 58.4404 67.6938 58.3355C67.8266 58.2308 67.9646 58.1903 68.0004 58.2457C68.0364 58.3011 67.8791 58.4258 67.6509 58.5226ZM77.5758 60.6761C77.4558 60.7539 77.409 60.6818 77.4383 60.4644C77.472 60.216 77.5167 60.1868 77.6203 60.3463C77.7107 60.4857 77.6956 60.5981 77.5758 60.6761ZM76.9209 60.9596C76.8892 61.109 76.8363 61.1062 76.7117 60.9485C76.6199 60.8323 76.548 60.723 76.5517 60.7053C76.5555 60.6878 76.6496 60.6927 76.761 60.7163C76.8724 60.74 76.9443 60.8495 76.9209 60.9596ZM76.0927 60.9975C76.1267 61.0921 76.0819 61.154 75.9936 61.1352C75.9052 61.1164 75.8473 61.0327 75.865 60.9491C75.8828 60.8656 75.9274 60.8037 75.9643 60.8115C76.0012 60.8194 76.0587 60.903 76.0927 60.9975ZM81.21 62.5789C80.8382 62.7168 80.6885 62.6311 80.9459 62.4278C81.0757 62.3254 81.2408 62.2979 81.3127 62.3669C81.3925 62.4431 81.352 62.5261 81.21 62.5789ZM74.7641 61.3309C74.6463 61.454 73.997 61.5233 74.0211 61.4102C74.0288 61.3737 74.2019 61.3145 74.4062 61.2789C74.8896 61.1946 74.894 61.1951 74.7641 61.3309ZM73.8361 61.5328C73.8291 61.5655 73.7088 61.6105 73.5686 61.6328C73.4225 61.6559 73.3669 61.6173 73.4382 61.5428C73.5583 61.4173 73.8623 61.4097 73.8361 61.5328ZM69.3446 61.0639C69.43 61.0332 69.4423 61.0968 69.3721 61.205C69.2241 61.433 68.4479 61.6895 68.3524 61.5421C68.3168 61.4874 68.4816 61.2996 68.7186 61.1247C68.9554 60.9499 69.1585 60.8772 69.1694 60.9631C69.1806 61.0491 69.2592 61.0945 69.3446 61.0639ZM73.6783 62.0717C73.4305 62.1935 73.1021 62.2655 72.9484 62.2315C72.7198 62.1809 72.7144 62.153 72.9193 62.0772C73.057 62.026 73.2103 62.0232 73.2598 62.0707C73.3094 62.1182 73.4561 62.0733 73.5858 61.9709C73.7156 61.8684 73.8907 61.7995 73.9752 61.8174C74.0599 61.8354 73.9262 61.9498 73.6783 62.0717ZM75.9217 62.5486C75.8525 62.621 75.7147 62.6621 75.6152 62.6396C75.507 62.615 75.5385 62.5594 75.694 62.5002C76.0258 62.3735 76.0785 62.3847 75.9217 62.5486ZM68.642 61.3278C68.6232 61.4162 68.6851 61.4608 68.7797 61.427C68.8742 61.3932 68.9578 61.3355 68.9657 61.2984C68.9736 61.2615 68.9116 61.2171 68.8281 61.1993C68.7445 61.1816 68.6608 61.2395 68.642 61.3278ZM67.7838 62.0424C67.5207 62.1865 67.2245 62.2846 67.1254 62.2608C67.0243 62.2364 67.0798 62.1541 67.251 62.0733C67.4192 61.9942 67.519 61.871 67.4728 61.7997C67.4263 61.7284 67.5065 61.7466 67.6507 61.8404C67.8703 61.9829 67.9104 61.9525 67.8963 61.6539C67.8824 61.3482 67.9072 61.3317 68.0711 61.5388C68.2388 61.751 68.2036 61.8126 67.7838 62.0424ZM74.578 62.8977C74.5087 62.9701 74.3709 63.0112 74.2714 62.9889C74.1632 62.9641 74.1947 62.9085 74.3503 62.8493C74.6821 62.7225 74.7348 62.7337 74.578 62.8977ZM72.0076 62.6688C71.6697 62.7976 71.3594 62.7316 71.4002 62.5397C71.4179 62.4561 71.6204 62.4287 71.8497 62.4789C72.1749 62.5497 72.2096 62.5917 72.0076 62.6688ZM66.7177 62.4241C66.6408 62.5425 66.5492 62.5952 66.5139 62.5409C66.479 62.4869 66.3237 62.503 66.169 62.5769C65.9966 62.6595 66.0275 62.6041 66.2491 62.4341C66.6652 62.1142 66.9224 62.1089 66.7177 62.4241ZM71.4343 63.777C71.1944 63.9777 71.1986 63.9841 71.4795 63.8466C71.6501 63.763 71.7951 63.6688 71.8017 63.6373C71.8283 63.5124 71.6866 63.5663 71.4343 63.777ZM65.727 62.828C65.6563 63.0846 65.5849 63.1365 65.4819 63.0064C65.3936 62.8944 65.2911 62.8705 65.2198 62.945C65.1554 63.0123 64.9394 63.0742 64.74 63.0824C64.3872 63.0971 64.3893 63.0916 64.8194 62.8839C65.0627 62.7664 65.3474 62.6869 65.4521 62.7074C65.5569 62.7277 65.6572 62.6761 65.6749 62.5925C65.6927 62.509 65.7341 62.4464 65.767 62.4534C65.8 62.4604 65.7821 62.6288 65.727 62.828ZM70.6737 63.7174C70.6667 63.7501 70.5464 63.7951 70.4061 63.8175C70.26 63.8405 70.2045 63.8021 70.2758 63.7274C70.3957 63.6018 70.6998 63.5943 70.6737 63.7174ZM63.9246 63.3376C63.519 63.4878 63.3504 63.3908 63.7246 63.2227C63.9118 63.1386 64.0906 63.109 64.1216 63.1568C64.1527 63.2047 64.064 63.286 63.9246 63.3376ZM68.0883 64.9376C68.0113 65.0559 67.9227 65.1134 67.8915 65.0651C67.86 65.0169 67.8951 64.914 67.9692 64.8367C68.1703 64.6261 68.2478 64.6918 68.0883 64.9376ZM68.5638 65.708C68.6069 65.8329 68.4703 66.0635 68.2398 66.2559C68.0207 66.4382 67.8568 66.5155 67.8756 66.4271C67.8943 66.3388 67.6803 66.4086 67.4 66.5825C67.1194 66.7561 66.7391 66.95 66.5544 67.013C66.2328 67.1233 66.2331 67.1274 66.5637 67.1192C66.7535 67.1145 67.0797 67.0078 67.2886 66.8825C67.4976 66.7572 67.658 66.7087 67.6455 66.7749C67.6328 66.841 67.8635 66.7162 68.1582 66.4974C68.4531 66.2786 68.721 66.1408 68.7537 66.1912C68.7865 66.2417 68.9335 66.186 69.0802 66.0673C69.274 65.9108 69.2862 65.8727 69.1256 65.9281C69.0018 65.9708 68.8126 65.8914 68.6966 65.7484C68.5461 65.562 68.5099 65.5509 68.5638 65.708ZM63.7585 65.2406C63.565 65.396 63.1551 65.6753 62.8478 65.8617C62.5405 66.0479 62.3964 66.167 62.5279 66.1261C62.6883 66.0762 62.7181 66.1026 62.6187 66.2066C62.5373 66.2915 62.4251 66.317 62.3691 66.2634C62.3131 66.21 61.9877 66.3539 61.6461 66.5834C61.3042 66.813 60.9531 66.9844 60.8653 66.9644C60.7543 66.939 60.7614 66.9043 60.8886 66.8503C60.9893 66.8076 61.2796 66.5784 61.5336 66.3409C61.9231 65.9769 63.8557 64.9047 64.0486 64.9453C64.0825 64.9523 63.952 65.0852 63.7583 65.2406L63.7585 65.2406ZM63.9795 66.8351C63.9618 66.9186 63.8639 66.9692 63.7617 66.9475C63.6597 66.9258 63.0899 67.2154 62.4955 67.5912C61.901 67.9667 61.5236 68.1398 61.6569 67.9758C61.8648 67.7195 63.7736 66.6326 63.9497 66.67C63.9838 66.6773 63.9972 66.7517 63.9795 66.8351ZM65.2267 67.3913C65.169 67.4518 65.218 67.5218 65.336 67.5469C65.454 67.5719 65.5275 67.528 65.4992 67.4492C65.4711 67.3704 65.4218 67.3004 65.3898 67.2936C65.3578 67.2868 65.2846 67.3308 65.2267 67.3913Z" fill="#37B6FF"/>
</svg>
