<svg width="1440" height="134" viewBox="0 0 1440 134" fill="none" xmlns="http://www.w3.org/2000/svg">
<path d="M0 1.00013C44.8978 1.00013 259.065 1.00013 281.069 1.00013C311.101 1.00013 310.976 1.00013 350.118 1.00013C406.528 1.00013 415.706 133 475.417 133C535.299 133 545.555 1.54599 588.238 1.54599C630.921 1.54599 635.412 36.9328 672.319 36.9328C709.158 36.9328 709.135 0.999996 751.73 0.999996C794.326 0.999996 794.318 83.7797 855.332 83.7797C916.348 83.7797 915.177 1.17071 955.479 1.17071C1029.04 1.17071 1070.29 1.00024 1070.61 1.00024C1070.69 1.00024 1123.63 1.00013 1164.33 1.00013C1368.59 1.00013 1440 1.00013 1440 1.00013" stroke="#363A46" stroke-width="0.655397"/>
</svg>
