<svg width="138" height="49" viewBox="0 0 138 49" fill="none" xmlns="http://www.w3.org/2000/svg">
<path d="M11.1988 39.0838C9.69899 39.0838 8.11172 38.9254 6.43745 38.6092C4.76272 38.2944 3.26292 37.7509 1.93853 36.9787C1.37949 36.6266 0.986358 36.2142 0.759606 35.7405C0.533804 35.2659 0.446811 34.7923 0.499102 34.3186C0.550917 33.844 0.725379 33.4316 1.02201 33.0804C1.31864 32.7298 1.70179 32.502 2.17241 32.3972C2.64398 32.2915 3.15834 32.3791 3.71642 32.6594C5.11212 33.3268 6.42034 33.7924 7.6411 34.0564C8.86185 34.3196 10.0645 34.4507 11.2501 34.4507C12.9244 34.4507 14.1713 34.1612 14.9904 33.5818C15.8104 33.0029 16.2206 32.2394 16.2206 31.2911C16.2206 30.4835 15.9497 29.8606 15.4087 29.4214C14.8687 28.9827 14.0577 28.6578 12.9767 28.4473L7.74568 27.4464C5.58274 27.0254 3.93414 26.2269 2.7999 25.0504C1.66662 23.8745 1.09997 22.3559 1.09997 20.4958C1.09997 18.8107 1.56203 17.3534 2.48616 16.1248C3.41123 14.8962 4.69379 13.9489 6.33287 13.2829C7.97196 12.616 9.85538 12.282 11.9841 12.282C13.5177 12.282 14.9561 12.4485 16.2986 12.7815C17.642 13.1145 18.9421 13.6327 20.1985 14.3355C20.7205 14.6163 21.0775 14.9852 21.2691 15.4416C21.4616 15.8971 21.5053 16.3621 21.4003 16.8367C21.2962 17.3104 21.087 17.7314 20.7728 18.0998C20.4595 18.4686 20.0673 18.6969 19.5958 18.7849C19.1251 18.8729 18.5937 18.7763 18.0004 18.494C16.9189 17.9328 15.8812 17.5295 14.8877 17.2845C13.8937 17.0386 12.9429 16.9152 12.0354 16.9152C10.3265 16.9152 9.06199 17.2137 8.24197 17.8108C7.4229 18.4069 7.01361 19.1963 7.01361 20.18C7.01361 20.9177 7.25747 21.5321 7.74568 22.0229C8.23341 22.5143 8.98355 22.8477 9.99514 23.0238L15.228 24.0247C17.4946 24.4457 19.2121 25.2184 20.3811 26.3422C21.5495 27.4651 22.1343 28.9745 22.1343 30.8701C22.1343 33.4321 21.1398 35.4415 19.1508 36.8983C17.1628 38.3556 14.5121 39.0838 11.1988 39.0838Z" fill="#37B6FF"/>
<path d="M27.6283 38.9269C26.5811 38.9269 25.7787 38.6111 25.2211 37.9796C24.663 37.3471 24.3844 36.4692 24.3844 35.3463V16.0195C24.3844 14.8613 24.663 13.9752 25.2211 13.3614C25.7787 12.7466 26.5811 12.439 27.6283 12.439C28.6742 12.439 29.4847 12.7466 30.0603 13.3614C30.6355 13.9752 30.9236 14.8613 30.9236 16.0195V35.3463C30.9236 36.4692 30.6446 37.3471 30.087 37.9796C29.5289 38.6111 28.7093 38.9269 27.6283 38.9269ZM27.6283 7.54173C26.4062 7.54173 25.4549 7.23505 24.7742 6.62122C24.0944 6.00644 23.755 5.15483 23.755 4.0664C23.755 2.94399 24.0944 2.08377 24.7742 1.48669C25.4549 0.889606 26.4062 0.591064 27.6283 0.591064C28.8833 0.591064 29.8421 0.889606 30.5053 1.48669C31.168 2.08377 31.4998 2.94399 31.4998 4.0664C31.4998 5.15483 31.168 6.00644 30.5053 6.62122C29.8421 7.23505 28.8833 7.54173 27.6283 7.54173Z" fill="#37B6FF"/>
<path d="M49.4976 39.0838C47.3347 39.0838 45.4422 38.5398 43.8198 37.4514C42.1983 36.3634 41.1258 34.9061 40.6025 33.0804L41.1786 31.7638V35.6085C41.1786 36.6969 40.8991 37.5308 40.3401 38.1097C39.782 38.6886 38.9981 38.9786 37.9879 38.9786C36.9407 38.9786 36.1382 38.6886 35.5806 38.1097C35.0225 37.5308 34.744 36.6969 34.744 35.6085V4.3305C34.744 3.24255 35.0225 2.41773 35.5806 1.85605C36.1382 1.29342 36.9407 1.0121 37.9879 1.0121C39.0337 1.0121 39.8442 1.29342 40.4199 1.85605C40.9951 2.41773 41.2832 3.24255 41.2832 4.3305V18.0213H40.6557C41.2133 16.3004 42.2948 14.9134 43.8996 13.8609C45.5045 12.8083 47.3703 12.282 49.4976 12.282C51.7652 12.282 53.7361 12.8265 55.4094 13.9145C57.0836 15.0029 58.3918 16.5391 59.334 18.5227C60.2758 20.5053 60.7468 22.8836 60.7468 25.6571C60.7468 28.3952 60.2758 30.7734 59.334 32.7915C58.3918 34.81 57.0751 36.3634 55.3827 37.4514C53.6914 38.5398 51.73 39.0838 49.4976 39.0838ZM47.6665 34.0813C48.9567 34.0813 50.0899 33.7656 51.0664 33.134C52.0437 32.5025 52.8024 31.5638 53.3424 30.317C53.8834 29.0707 54.1544 27.5172 54.1544 25.6571C54.1544 22.8477 53.5611 20.7503 52.3746 19.3648C51.189 17.9783 49.6198 17.2845 47.6665 17.2845C46.3759 17.2845 45.2421 17.5922 44.2647 18.2069C43.2883 18.8208 42.5296 19.7508 41.9886 20.9972C41.4486 22.2425 41.1786 23.796 41.1786 25.6571C41.1786 28.4296 41.7709 30.5271 42.9565 31.9494C44.143 33.3709 45.7127 34.0813 47.6665 34.0813Z" fill="#37B6FF"/>
<path d="M67.1304 38.9786C66.049 38.9786 65.2204 38.6714 64.6452 38.0581C64.0695 37.4433 63.7819 36.5917 63.7819 35.5032V4.48743C63.7819 3.36503 64.0695 2.50481 64.6452 1.90772C65.2204 1.31064 66.049 1.0121 67.1304 1.0121C68.2114 1.0121 69.04 1.31064 69.6157 1.90772C70.1909 2.50481 70.479 3.36503 70.479 4.48743V35.5032C70.479 36.5917 70.1994 37.4433 69.6404 38.0581C69.0823 38.6714 68.2457 38.9786 67.1304 38.9786Z" fill="#37B6FF"/>
<path d="M78.1706 38.9269C77.1234 38.9269 76.3209 38.6111 75.7633 37.9796C75.2052 37.3471 74.9267 36.4692 74.9267 35.3463V16.0195C74.9267 14.8613 75.2052 13.9752 75.7633 13.3614C76.3209 12.7466 77.1234 12.439 78.1706 12.439C79.2164 12.439 80.0269 12.7466 80.6026 13.3614C81.1778 13.9752 81.4659 14.8613 81.4659 16.0195V35.3463C81.4659 36.4692 81.1868 37.3471 80.6292 37.9796C80.0711 38.6111 79.2516 38.9269 78.1706 38.9269ZM78.1706 7.54173C76.9484 7.54173 75.9972 7.23505 75.3165 6.62122C74.6367 6.00644 74.2973 5.15483 74.2973 4.0664C74.2973 2.94399 74.6367 2.08377 75.3165 1.48669C75.9972 0.889606 76.9484 0.591064 78.1706 0.591064C79.4256 0.591064 80.3844 0.889606 81.0476 1.48669C81.7102 2.08377 82.042 2.94399 82.042 4.0664C82.042 5.15483 81.7102 6.00644 81.0476 6.62122C80.3844 7.23505 79.4256 7.54173 78.1706 7.54173Z" fill="#37B6FF"/>
<path d="M88.5302 38.9786C87.4829 38.9786 86.6805 38.6886 86.1229 38.1097C85.5648 37.5308 85.2862 36.6969 85.2862 35.6085V15.7038C85.2862 14.6158 85.5648 13.791 86.1229 13.2293C86.6805 12.6681 87.4653 12.3873 88.4769 12.3873C89.4885 12.3873 90.2729 12.6681 90.831 13.2293C91.3886 13.791 91.6676 14.6158 91.6676 15.7038V19.2844L91.0934 17.9677C91.8602 16.1076 93.0543 14.6953 94.6758 13.7307C96.2982 12.7653 98.1389 12.282 100.198 12.282C102.255 12.282 103.946 12.6681 105.271 13.4399C106.597 14.212 107.591 15.3794 108.254 16.942C108.917 18.5036 109.249 20.4781 109.249 22.865V35.6085C109.249 36.6969 108.969 37.5308 108.41 38.1097C107.852 38.6886 107.051 38.9786 106.005 38.9786C104.958 38.9786 104.146 38.6886 103.571 38.1097C102.995 37.5308 102.708 36.6969 102.708 35.6085V23.1807C102.708 21.1804 102.332 19.7241 101.582 18.8117C100.833 17.8984 99.6734 17.4415 98.1042 17.4415C96.1861 17.4415 94.6596 18.0476 93.5254 19.2595C92.3921 20.4704 91.8255 22.076 91.8255 24.0764V35.6085C91.8255 37.8552 90.7269 38.9786 88.5302 38.9786Z" fill="#37B6FF"/>
<path d="M124.84 48.5625C122.956 48.5625 121.133 48.3869 119.371 48.0362C117.61 47.6851 116.015 47.1411 114.585 46.4038C113.922 46.0527 113.477 45.6311 113.25 45.1388C113.025 44.6475 112.955 44.1475 113.041 43.6385C113.129 43.1294 113.338 42.6816 113.669 42.295C114 41.9094 114.411 41.6468 114.899 41.5066C115.387 41.3659 115.892 41.4363 116.416 41.7171C117.951 42.4888 119.408 42.9888 120.786 43.2175C122.164 43.4457 123.341 43.56 124.317 43.56C126.654 43.56 128.407 42.9888 129.575 41.8472C130.743 40.7066 131.328 39.013 131.328 36.7663V32.0279H131.799C131.276 33.8182 130.186 35.2487 128.529 36.3204C126.872 37.3911 124.997 37.926 122.904 37.926C120.602 37.926 118.596 37.3911 116.886 36.3204C115.177 35.2487 113.852 33.7479 112.91 31.8174C111.969 29.8874 111.499 27.6407 111.499 25.0772C111.499 23.1472 111.769 21.401 112.309 19.8394C112.85 18.2768 113.618 16.9338 114.612 15.811C115.605 14.6871 116.809 13.8183 118.221 13.2045C119.634 12.5897 121.195 12.282 122.904 12.282C125.067 12.282 126.959 12.8174 128.58 13.8877C130.203 14.9584 131.258 16.3712 131.746 18.1266L131.223 19.4432V15.7038C131.223 14.6158 131.511 13.791 132.087 13.2293C132.662 12.6681 133.456 12.3873 134.467 12.3873C135.514 12.3873 136.316 12.6681 136.874 13.2293C137.432 13.791 137.711 14.6158 137.711 15.7038V35.9778C137.711 40.1545 136.612 43.2964 134.414 45.4029C132.217 47.509 129.026 48.5625 124.84 48.5625ZM124.684 32.9235C126.044 32.9235 127.212 32.6078 128.188 31.9762C129.166 31.3437 129.925 30.4395 130.465 29.2645C131.006 28.0885 131.276 26.6924 131.276 25.0772C131.276 22.6545 130.683 20.7503 129.497 19.3648C128.311 17.9783 126.707 17.2845 124.684 17.2845C123.323 17.2845 122.155 17.6003 121.178 18.2318C120.201 18.8634 119.443 19.7585 118.902 20.9168C118.362 22.0755 118.092 23.462 118.092 25.0772C118.092 27.5 118.684 29.4137 119.869 30.8184C121.056 32.2221 122.661 32.9235 124.684 32.9235Z" fill="#37B6FF"/>
</svg>
