<svg width="40" height="40" viewBox="0 0 40 40" fill="none" xmlns="http://www.w3.org/2000/svg">
<g clip-path="url(#clip0_1_614)">
<path d="M39.2033 10.3092C38.9772 9.4582 38.5315 8.68155 37.9109 8.05694C37.2902 7.43233 36.5165 6.98168 35.6669 6.75009C32.5397 5.90918 20.0397 5.90918 20.0397 5.90918C20.0397 5.90918 7.53967 5.90918 4.4124 6.75009C3.56289 6.98168 2.7891 7.43233 2.16849 8.05694C1.54787 8.68155 1.10218 9.4582 0.876037 10.3092C0.039673 13.4501 0.0396729 20.0001 0.0396729 20.0001C0.0396729 20.0001 0.039673 26.5501 0.876037 29.691C1.10218 30.542 1.54787 31.3186 2.16849 31.9432C2.7891 32.5678 3.56289 33.0185 4.4124 33.2501C7.53967 34.091 20.0397 34.091 20.0397 34.091C20.0397 34.091 32.5397 34.091 35.6669 33.2501C36.5165 33.0185 37.2902 32.5678 37.9109 31.9432C38.5315 31.3186 38.9772 30.542 39.2033 29.691C40.0397 26.5501 40.0397 20.0001 40.0397 20.0001C40.0397 20.0001 40.0397 13.4501 39.2033 10.3092Z" fill="#FF0302"/>
<path d="M15.9488 25.9477V14.0522L26.4033 20L15.9488 25.9477Z" fill="#FEFEFE"/>
</g>
<defs>
<clipPath id="clip0_1_614">
<rect width="40" height="40" fill="white"/>
</clipPath>
</defs>
</svg>
